<svg width="50" height="64" fill="none" xmlns="http://www.w3.org/2000/svg"><g clip-path="url(#a)"><path fill-rule="evenodd" clip-rule="evenodd" d="M48.425 1.493V51.61c0 3.282-2.664 5.938-5.957 5.938h-8.942c-4.694 0-8.492 2.886-8.492 6.452 0-3.566-3.798-6.452-8.492-6.452H7.6c-3.293 0-5.957-2.656-5.957-5.938V1.493h46.782ZM49.918 0H.15v51.61c0 1.987.775 3.854 2.183 5.257A7.412 7.412 0 0 0 7.6 59.041h8.942c1.946 0 3.758.563 5.103 1.585 1.223.928 1.896 2.127 1.896 3.374h2.986c0-1.247.673-2.445 1.895-3.374 1.345-1.022 3.158-1.585 5.104-1.585h8.942c1.99 0 3.86-.772 5.267-2.174a7.374 7.374 0 0 0 2.182-5.257V0Z" fill="#000"/><path fill-rule="evenodd" clip-rule="evenodd" d="M24.367 64c0-3.191-3.512-5.788-7.828-5.788H7.597c-3.65 0-6.62-2.962-6.62-6.602V.83h48.108v50.78c0 3.64-2.97 6.602-6.62 6.602h-8.943c-4.316 0-7.828 2.596-7.828 5.788h-1.327Z" fill="#0074C1"/><path fill-rule="evenodd" clip-rule="evenodd" d="M48.423 1.493V51.61c0 3.282-2.664 5.938-5.957 5.938h-8.942c-4.694 0-8.492 2.886-8.492 6.452 0-3.566-3.798-6.452-8.492-6.452H7.598c-3.292 0-5.957-2.656-5.957-5.938V1.493h46.782ZM49.75.166H.314V51.61a7.21 7.21 0 0 0 2.134 5.14 7.247 7.247 0 0 0 5.15 2.125h8.942c1.982 0 3.83.575 5.204 1.618 1.264.962 1.96 2.207 1.96 3.507h2.655c0-1.3.696-2.545 1.961-3.507 1.374-1.043 3.222-1.618 5.204-1.618h8.942a7.247 7.247 0 0 0 5.15-2.125 7.209 7.209 0 0 0 2.134-5.14V.166Z" fill="#fff"/><path d="M23.613 63.917h2.835" stroke="#000" stroke-width=".166"/><path fill-rule="evenodd" clip-rule="evenodd" d="M21.918 37.356c-.725-.829-.87-1.62-1.326-2.18-.456-.56-1.494-.959-1.494-1.353s1.214-.451 1.931-.266c.689.178.99.384 1.608.917.6.518 1.235 1.522 1.552 1.887.32.37 1.267 1.086 1.659 1.473.376.371.932 1.068 1.109 1.005.321-.114.615-1.614 1.071-2.277.4-.581 1.77-1.306 2.226-1.742.456-.435 1.311-1.978 1.596-2.061.259-.075.84 1.446.404 2.96-.238.829-2.374 2.53-2.602 3.09-.228.559-.164.937-.31 1.347-.172.477-.752.783-.685.974.032.092.767.145.995.145.228 0 1.467-.233 1.614-.1.112.103-.214.816-.608 1.127-.612.482-.321.984-.404 1.213-.083.228-1.037.625-1.846.642-2.965.063-4.926-2.144-6.49-2.591-1.503-.43-1.46-.208-2.114-.286-.695-.083-.622-.191-1.058-.337-.435-.145-1.555.063-1.555-.228 0-.29.54-.124 1.078-.352.54-.228.506-.422.843-.629.305-.187.837-.138 1.127-.014.29.124 1.68.824 2.26.949.58.124 1.965.52 2.053.109.083-.387-.387-1.078-1.058-1.887-.581-.701-1.576-1.535-1.576-1.535ZM10.536 27.431c-.726-.829-.87-1.62-1.327-2.18-.456-.56-1.494-.959-1.494-1.353s1.214-.451 1.931-.266c.69.178.99.384 1.608.917.6.518 1.235 1.521 1.552 1.887.32.37 1.267 1.086 1.659 1.473.376.37.932 1.068 1.11 1.005.32-.114.614-1.614 1.07-2.277.4-.582 1.77-1.306 2.226-1.742.456-.435 1.311-1.978 1.596-2.061.26-.076.84 1.446.405 2.96-.239.829-2.374 2.53-2.602 3.09-.229.559-.164.936-.311 1.347-.172.477-.752.782-.685.974.032.092.767.145.995.145.229 0 1.468-.233 1.614-.1.113.103-.214.816-.608 1.127-.611.482-.321.985-.404 1.213-.083.228-1.037.626-1.845.643-2.966.062-4.927-2.145-6.49-2.592-1.504-.43-1.461-.207-2.115-.285-.695-.083-.622-.192-1.058-.337-.435-.145-1.555.062-1.555-.228 0-.29.54-.125 1.078-.353.54-.228.506-.422.844-.629.304-.187.836-.138 1.126-.014.29.125 1.68.824 2.26.949.58.124 1.965.52 2.053.109.083-.387-.387-1.078-1.058-1.887-.581-.701-1.575-1.535-1.575-1.535ZM33.35 27.432c-.726-.83-.87-1.62-1.327-2.18-.456-.56-1.493-.96-1.493-1.354 0-.394 1.214-.451 1.93-.266.69.178.99.384 1.609.918.6.517 1.234 1.52 1.551 1.886.32.37 1.268 1.086 1.66 1.473.375.371.931 1.068 1.108 1.005.322-.114.616-1.614 1.072-2.277.4-.582 1.77-1.306 2.225-1.742.456-.435 1.312-1.978 1.597-2.061.259-.076.84 1.446.404 2.96-.238.829-2.374 2.53-2.602 3.09-.228.559-.164.936-.311 1.347-.171.477-.752.782-.684.974.032.092.767.145.995.145.228 0 1.467-.233 1.613-.1.113.103-.213.816-.607 1.127-.612.482-.322.985-.405 1.213-.083.228-1.037.625-1.845.642-2.965.063-4.926-2.144-6.49-2.591-1.503-.43-1.46-.207-2.115-.285-.694-.083-.622-.192-1.057-.337-.436-.145-1.555.062-1.555-.228 0-.29.539-.125 1.078-.353.539-.228.505-.422.843-.629.304-.187.836-.138 1.127-.014.29.125 1.68.824 2.26.949.58.124 1.964.52 2.052.109.083-.387-.387-1.078-1.057-1.887-.582-.701-1.576-1.534-1.576-1.534ZM10.536 47.17c-.726-.829-.87-1.62-1.327-2.18-.456-.56-1.494-.959-1.494-1.353s1.214-.451 1.931-.266c.69.178.99.384 1.608.918.6.517 1.235 1.52 1.552 1.886.32.37 1.267 1.086 1.659 1.473.376.371.932 1.068 1.11 1.005.32-.114.614-1.614 1.07-2.277.4-.581 1.77-1.306 2.226-1.742.456-.435 1.311-1.978 1.596-2.061.26-.075.84 1.446.405 2.96-.239.83-2.374 2.53-2.602 3.09-.229.56-.164.937-.311 1.347-.172.477-.752.783-.685.974.032.092.767.146.995.146.229 0 1.468-.234 1.614-.1.113.102-.214.815-.608 1.126-.611.482-.321.985-.404 1.213-.083.228-1.037.626-1.845.643-2.966.062-4.927-2.145-6.49-2.592-1.504-.43-1.461-.207-2.115-.285-.695-.083-.622-.192-1.058-.337-.435-.145-1.555.062-1.555-.228 0-.29.54-.125 1.078-.353.54-.228.506-.422.844-.629.304-.186.836-.138 1.126-.014.29.125 1.68.825 2.26.95.58.124 1.965.519 2.053.108.083-.387-.387-1.078-1.058-1.887-.581-.701-1.575-1.534-1.575-1.534ZM33.35 47.17c-.726-.829-.87-1.62-1.327-2.18-.456-.56-1.493-.959-1.493-1.353s1.214-.451 1.93-.266c.69.178.99.384 1.609.918.6.517 1.234 1.52 1.551 1.886.32.37 1.268 1.086 1.66 1.473.375.371.931 1.068 1.108 1.005.322-.114.616-1.614 1.072-2.277.4-.581 1.77-1.306 2.225-1.742.456-.435 1.312-1.978 1.597-2.061.259-.076.84 1.446.404 2.96-.238.829-2.374 2.53-2.602 3.09-.228.559-.164.937-.311 1.347-.171.477-.752.782-.684.974.032.092.767.145.995.145.228 0 1.467-.233 1.613-.1.113.103-.213.816-.607 1.127-.612.482-.322.985-.405 1.213-.083.228-1.037.626-1.845.642-2.965.063-4.926-2.144-6.49-2.591-1.503-.43-1.46-.207-2.115-.285-.694-.083-.622-.192-1.057-.337-.436-.146-1.555.062-1.555-.229 0-.29.539-.124 1.078-.352.539-.228.506-.422.843-.629.304-.187.836-.138 1.127-.014.29.125 1.68.825 2.26.949.58.124 1.964.52 2.052.109.083-.387-.387-1.078-1.057-1.887-.582-.701-1.576-1.534-1.576-1.534ZM1.523 1.493v17.413h1.361l1.628 1.468 1.804-1.468 1.877 1.269 1.866-1.376 2.24 1.376 1.682-1.27 1.731 1.469 1.788-1.468 1.872 1.468 1.693-1.468 1.628 1.269 2.25-1.687 2.284 1.687 1.638-1.27 1.73 1.469 1.79-1.468 1.87 1.468 1.694-1.468 1.686 1.269 2.18-1.376 1.954 1.376 1.79-1.27 1.803 1.469 1.628-1.468h1.432V1.493H1.523Z" fill="#fff"/><path fill-rule="evenodd" clip-rule="evenodd" d="M13.169 9.731H11.51l1.852-1.575 1.88 1.575-2.073 1.77 1.548 1.282-4.59 3.804-4.588-3.804L7.087 11.5 5.013 9.73l1.88-1.575L8.746 9.73h-1.66l1.521 1.244 1.52-1.244 1.521 1.244 1.52-1.244Z" fill="#F30"/><path fill-rule="evenodd" clip-rule="evenodd" d="M28.052 9.731h-1.66l1.853-1.575 1.88 1.575-2.073 1.77 1.548 1.282-4.59 3.804-4.589-3.804L21.97 11.5l-2.074-1.77 1.88-1.575 1.852 1.575H21.97l1.52 1.244 1.52-1.244 1.521 1.244 1.52-1.244Z" fill="#0074C1"/><path fill-rule="evenodd" clip-rule="evenodd" d="M42.925 9.731h-1.66l1.853-1.575 1.88 1.575-2.073 1.77 1.548 1.282-4.59 3.804-4.589-3.804 1.549-1.282-2.074-1.77 1.88-1.575 1.852 1.575h-1.658l1.52 1.244 1.52-1.244 1.521 1.244 1.52-1.244Z" fill="#F30"/><path fill-rule="evenodd" clip-rule="evenodd" d="M48.422 17.642H47.06L45.43 19.11l-1.804-1.468-1.337 1.178-1.424-1.178 5.792-4.86-1.549-1.281 2.13-1.77L42.98 6.11l-2.516 2.045v-.967l2.073-1.742h-1.492l-1.161.995-1.162-.995h-1.492l2.073 1.742v.967L36.788 6.11 32.531 9.73l2.128 1.77-1.548 1.282 5.792 4.859-1.334 1.178-1.552-1.178-1.693 1.468-1.871-1.468-1.788 1.468-1.731-1.468-1.338 1.178-1.604-1.178 5.792-4.86-1.548-1.281 2.129-1.77-4.258-3.621-2.515 2.045v-.967l2.073-1.742h-1.493l-1.16.995-1.162-.995h-1.493l2.073 1.742v.967L21.915 6.11 17.657 9.73l2.129 1.77-1.548 1.282 5.792 4.859-1.344 1.178-1.552-1.178-1.693 1.468-1.872-1.468-1.788 1.468-1.73-1.468-1.338 1.178-1.604-1.178 5.792-4.86-1.549-1.281 2.13-1.77-4.258-3.621-2.516 2.045v-.967l2.073-1.742H11.29l-1.162.995-1.16-.995H7.472l2.074 1.742v.967L7.03 6.11 2.774 9.73l2.128 1.77-1.548 1.282 5.792 4.859-1.424 1.178-1.337-1.178L4.58 19.11l-1.628-1.468H1.64V1.492h46.782v16.15Z" fill="#F30"/><path fill-rule="evenodd" clip-rule="evenodd" d="M22.385 11.48h-.3l-.146.145v2.264h.446V11.48ZM24.154 11.48v3.592h-.26l-.24-.24v-1.59h-1.06v-.558l1.15-1.204h.41Z" fill="#fff" stroke="#fff" stroke-width=".083"/><path d="M25.43 14.074c.55 0 .996-.372.996-.832 0-.46-.446-.832-.996-.832s-.995.373-.995.832c0 .46.446.832.995.832Z" fill="#fff" stroke="#fff" stroke-width=".083"/><path fill-rule="evenodd" clip-rule="evenodd" d="M24.433 13.242c0-1.269.446-1.734 1.659-1.734v.352c-.638 0-.994.214-.994.598l-.665.784Z" fill="#fff"/><path d="M24.433 13.242c0-1.269.446-1.734 1.659-1.734v.352c-.638 0-.994.214-.994.598" stroke="#fff" stroke-width=".083"/><path d="M27.253 13.144c.55 0 .995-.373.995-.832 0-.46-.446-.832-.995-.832-.55 0-.996.372-.996.832 0 .46.446.832.996.832Z" fill="#fff" stroke="#fff" stroke-width=".083"/><path fill-rule="evenodd" clip-rule="evenodd" d="M28.248 12.312c0 1.269-.445 1.735-1.659 1.735v-.353c.639 0 .995-.214.995-.598l.664-.784Z" fill="#fff"/><path d="M28.248 12.312c0 1.269-.445 1.735-1.659 1.735v-.353c.639 0 .995-.214.995-.598" stroke="#fff" stroke-width=".083"/><path fill-rule="evenodd" clip-rule="evenodd" d="M23.123 12.883h.53v-.746l-.53.547v.199Z" fill="#0074C1"/><path d="M25.43 13.636c.255 0 .463-.176.463-.394 0-.217-.208-.394-.463-.394-.256 0-.464.177-.464.394 0 .218.208.394.463.394ZM27.254 12.706c.255 0 .463-.176.463-.394 0-.218-.207-.394-.463-.394s-.463.176-.463.394c0 .218.207.394.463.394Z" fill="#0074C1"/></g><defs><clipPath id="a"><path fill="#fff" transform="translate(.127)" d="M0 0h49.807v64H0z"/></clipPath></defs></svg>