<svg width="54" height="64" fill="none" xmlns="http://www.w3.org/2000/svg"><g clip-path="url(#a)" fill-rule="evenodd" clip-rule="evenodd"><path d="M53.863.266H27.307V64c1.144-2.43 2.235-4.89 5.843-5.842h14.87c2.513-.392 5.176-2.848 5.843-5.843V.265Z" fill="#3598D4"/><path d="M.75.266h26.557V64c-1.144-2.43-2.235-4.89-5.843-5.842H6.593C4.08 57.766 1.417 55.31.75 52.315V.265Z" fill="#fff"/><path d="M17.054 43.286a.9.9 0 1 1-1.8 0 .9.9 0 0 1 1.8 0ZM24.05 44.35a.9.9 0 1 1-1.8 0 .9.9 0 0 1 1.8 0ZM19.255 44.685a.9.9 0 1 1-1.8 0 .9.9 0 0 1 1.8 0ZM21.57 43.076a.9.9 0 1 1-1.8 0 .9.9 0 0 1 1.8 0ZM19.177 41.835a.9.9 0 1 1-1.8 0 .9.9 0 0 1 1.8 0ZM21.636 48.71a.9.9 0 1 1-1.8 0 .9.9 0 0 1 1.8 0ZM24.015 49.95a.9.9 0 1 1-1.8 0 .9.9 0 0 1 1.8 0ZM24.015 47.133a.9.9 0 1 1-1.8 0 .9.9 0 0 1 1.8 0ZM21.57 45.96a.9.9 0 1 1-1.8 0 .9.9 0 0 1 1.8 0ZM19.255 47.502a.9.9 0 1 1-1.8 0 .9.9 0 0 1 1.8 0ZM36.908 43.267a.9.9 0 1 0 1.8 0 .9.9 0 0 0-1.8 0ZM29.91 44.33a.9.9 0 1 0 1.8 0 .9.9 0 0 0-1.8 0ZM34.705 44.666a.9.9 0 1 0 1.8 0 .9.9 0 0 0-1.8 0ZM32.393 43.056a.9.9 0 1 0 1.799 0 .9.9 0 0 0-1.8 0ZM34.705 41.816a.9.9 0 1 0 1.8 0 .9.9 0 0 0-1.8 0ZM32.324 48.69a.9.9 0 1 0 1.8 0 .9.9 0 0 0-1.8 0ZM29.945 49.93a.9.9 0 1 0 1.8 0 .9.9 0 0 0-1.8 0ZM29.945 47.114a.9.9 0 1 0 1.8 0 .9.9 0 0 0-1.8 0ZM32.393 45.94a.9.9 0 1 0 1.799 0 .9.9 0 0 0-1.8 0ZM34.705 47.483a.9.9 0 1 0 1.8 0 .9.9 0 0 0-1.8 0Z" fill="#EA1D28"/><path d="m32.27 38.382.034 1.341c-2.199-2.426-4.17-4.948-7.947-6.706.124 0-1 2.18-1.777 3.017-.978 1.052-3.814 1.487-3.823 1.442 0 0 1.167-2.026 1.878-2.716.808-.785 3.152-2.045 3.152-2.045-.565-.45-1.259-.855-2.012-1.24 0 0-2.044 1.977-3.152 2.413-1.449.571-5.164.503-5.164.503s2.127-2.402 3.353-2.917c1.138-.478 4.15-.35 4.15-.35l-3.363-3.22s-1.307 2.144-2.028 2.631c-1.007.68-3.822 1.341-3.822 1.341s1.3-2.543 2.011-3.219c.807-.765 3.018-1.274 3.018-1.274l-1.71-1.375c.16-.063-.793 1.655-1.911 2.28-.935.524-3.621 1.107-3.621 1.107s1.299-2.11 2.045-2.683c.838-.642 3.051-1.072 3.051-1.072l-1.542-1.275s-1.1 1.486-1.71 1.979c-1.055.85-4.1.924-4.125.77 0 0 1.362-2.012 2.18-2.514.918-.564 3.32-.704 3.32-.704l-.235-.436c.104.086-2.852-.066-4.46-1.107-.813-.526-2.28-2.347-2.28-2.347.006-.012 3.182-.173 4.292.503.907.552 2.649 2.347 2.649 2.347s-.524-2.19-.436-2.984c.103-.927 1.174-2.481 1.174-2.481s1.32 2.133 1.274 3.152c-.04.903-1.375 2.682-1.375 2.682l.1.57 1.275 1.174s-.128-1.841 0-2.616c.158-.954 1.04-3.051 1.04-3.051s1.176 2.2 1.106 3.219c-.066.956-1.442 2.85-1.442 2.85l1.71 1.51s-.169-1.933-.033-2.717c.183-1.06 1.073-3.42 1.073-3.42s.92 2 .905 2.884c-.02 1.165-1.341 3.52-1.341 3.52l3.454 3.152s-.74-2.45-.973-3.52c-.257-1.185-.603-4.259-.603-4.259s2.001 1.511 2.548 2.783c.22.512.648 2.463.604 3.018-.06.76-.671 2.481-.671 2.481l1.777 1.107s-.021-1.315-.067-1.81c-.172-1.885 1.186-4.067 1.308-3.823.072 0 .923 1.87.838 2.75-.123 1.275-1.176 3.482-1.24 3.352 3.576 1.831 5.498 3.927 7.544 6.003Z" fill="#24B34B"/><path d="m22.194 38.281-.033 1.341c2.198-2.426 4.169-4.948 7.947-6.706-.124 0 .999 2.18 1.777 3.018.977 1.052 3.814 1.487 3.823 1.442 0 0-1.167-2.026-1.878-2.716-.809-.786-3.152-2.046-3.152-2.046.564-.449 1.258-.854 2.012-1.24 0 0 2.044 1.977 3.152 2.414 1.448.57 5.164.503 5.164.503s-2.128-2.403-3.353-2.917c-1.138-.478-4.15-.35-4.15-.35l3.362-3.221s1.308 2.145 2.028 2.632c1.007.68 3.823 1.34 3.823 1.34s-1.3-2.543-2.012-3.218c-.806-.766-3.018-1.274-3.018-1.274l1.71-1.375c-.16-.064.793 1.654 1.912 2.28.934.523 3.621 1.107 3.621 1.107s-1.3-2.111-2.045-2.683c-.839-.643-3.052-1.073-3.052-1.073l1.543-1.274s1.099 1.486 1.71 1.978c1.054.85 4.099.925 4.124.771 0 0-1.361-2.012-2.18-2.515-.917-.563-3.32-.704-3.32-.704l.236-.436c-.104.087 2.851-.066 4.46-1.106.812-.526 2.28-2.348 2.28-2.348-.007-.012-3.182-.172-4.293.503-.906.553-2.649 2.348-2.649 2.348s.524-2.19.436-2.985c-.102-.927-1.173-2.481-1.173-2.481s-1.32 2.133-1.274 3.152c.04.904 1.374 2.683 1.374 2.683l-.1.57-1.274 1.173s.128-1.841 0-2.615c-.158-.954-1.04-3.052-1.04-3.052s-1.176 2.2-1.106 3.22c.065.955 1.441 2.85 1.441 2.85l-1.71 1.509s.17-1.933.034-2.716c-.183-1.06-1.073-3.42-1.073-3.42s-.921 1.999-.906 2.883c.02 1.165 1.342 3.52 1.342 3.52L33.26 30.2s.74-2.45.972-3.521c.258-1.185.604-4.259.604-4.259s-2.002 1.511-2.549 2.784c-.22.51-.647 2.463-.603 3.017.06.76.67 2.482.67 2.482l-1.777 1.106s.022-1.314.067-1.81c.173-1.884-1.185-4.067-1.307-3.823-.073 0-.924 1.87-.839 2.75.124 1.275 1.176 3.482 1.241 3.353-3.576 1.83-5.498 3.926-7.545 6.002Z" fill="#24B34B"/><path d="m7.407 49.46 13.896-27.873c.665-.947 1.416-1.837 2.833-2.284-3.428-1.288-4.528-2.695-4.579-4.144-.103-2.933 2.48-4.439 3.432-7.072l.337-1.68h1.012l.068 2.217c-.501 1.592-2.106 2.753-2.024 5.172.068 1.992 2.534 3.818 4.182 3.963l-.135-4.299-2.428.403c1.441-3.076 2.625-6.45 3.305-10.41v51.716l-.877.068v-1.142l-1.349.672.068-10.948 1.484-1.277-.068-21.022c-.875.09-1.733.122-3.103 1.813L8.217 50.266c-.522.233-.919.218-.81-.806Z" fill="#3598D4"/><path d="M47.206 49.46 33.311 21.587c-.666-.947-1.416-1.837-2.833-2.284 3.428-1.288 4.527-2.695 4.578-4.144.104-2.933-2.48-4.439-3.432-7.072l-.337-1.68h-1.012l-.067 2.217c.501 1.592 2.106 2.753 2.023 5.172-.067 1.992-2.534 3.818-4.182 3.963l.135-4.299 2.428.403c-1.44-3.076-2.625-6.45-3.305-10.41v51.716l.877.068v-1.142l1.35.672-.068-10.948-1.484-1.277.067-21.022c.875.09 1.733.122 3.103 1.813l15.245 26.933c.521.233.918.218.81-.806Z" fill="#fff"/></g><defs><clipPath id="a"><path fill="#fff" transform="translate(.749)" d="M0 0h53.112v64H0z"/></clipPath></defs></svg>