<svg width="53" height="66" fill="none" xmlns="http://www.w3.org/2000/svg"><path fill-rule="evenodd" clip-rule="evenodd" d="M.822 1v53.275c0 2.804.46 7.6 6.893 7.6h14.82c3.04 0 4.178 3.125 4.178 3.125s1.137-3.125 4.177-3.125h14.82c6.433 0 6.892-4.797 6.892-7.6V1H.822Z" fill="#008DCD" stroke="#1A1A18" stroke-width=".39" stroke-linejoin="round"/><path fill-rule="evenodd" clip-rule="evenodd" d="M24.922 11.667c.018-.134.041-.267.087-.395a2.756 2.756 0 0 1-.087.395ZM23.628 12.24c-.127-.006-.027-.214.064-.13-.02.043-.042.087-.064.13ZM18.32 16.225a4.803 4.803 0 0 1 1.654-.435c-.045.302-.143.595-.235.887a.877.877 0 0 1-.167.297c-.03-.16-.046-.335-.189-.44-.047.344-.349.555-.619.73-.113.08-.242.135-.377.17-.086-.104-.082-.23-.016-.343-.071-.024-.147-.037-.212-.076-.03-.073-.005-.144.056-.191.213-.183.51-.265.677-.502-.323-.008-.607.187-.839.393-.355.303-.424.791-.646 1.18-.098.244-.333.404-.396.664.106.024.372-.111.38.058-.126.18-.337.276-.451.465.23.019.39-.183.61-.215.472-.082.924-.263 1.401-.317.32-.033.664-.084.955.086v.118a2.57 2.57 0 0 0-.687.21c.152.063.325.036.477.1.113.141.177.331.358.404.409.192.716.56 1.154.693.506.158 1.042.16 1.564.228.334.007.649.143.984.144.072-.28-.419-.04-.381-.32.742.111 1.482.33 2.1.766.105.081.242.15.31.255l-.003.015c-.34-.046-.604-.297-.929-.394.245.32.672.4 1.033.527.246.186.514.343.76.527-.185-.053-.358.027-.496.146-.113-.08-.214-.175-.334-.244-.107-.04-.259.06-.258.175.205.056.396.143.568.268.072-.085.147-.169.224-.25l.23.096a3.88 3.88 0 0 1 .066-.19c.159-.017.275.077.354.205-.138.006-.276.005-.413.005.157.131.272.323.47.396.24.096.459.279.547.528-.133.07-.276.126-.427.141-.113.023-.265-.002-.327.121-.04.144.15.225.262.172.196-.074.461-.172.631.006.402.389.827.784 1.36.98.57.202 1.18.229 1.775.298 1.268.093 2.546.036 3.803-.153.791-.1 1.572-.297 2.371-.31.717.019 1.342.406 1.978.687.668.34 1.37.63 1.992 1.053.46.303.852.694 1.249 1.072.232.22.42.48.605.737.425.544.752 1.17.92 1.842.043.252.046.51.016.763.013.064-.093.195-.14.091-.081-.187-.073-.402-.184-.579-.137-.214-.07-.543-.335-.665-.156.141.046.326.016.5-.029.638.245 1.245.22 1.882-.016.463.05.938-.086 1.39-.15.566-.412 1.094-.663 1.622-.154.322-.345.627-.454.967-.149.466-.402.889-.67 1.294-.298.514-.625 1.026-.783 1.605-.128.385-.131.795-.23 1.187-.115.477-.09.989.084 1.448.159.396.65.508.826.892.054.1.001.214-.03.314-.19.527-.34 1.07-.568 1.582-.267.606-.655 1.146-.958 1.733-.386.768-.692 1.573-.999 2.376-.147.398-.299.796-.417 1.203-.068.233-.182.454-.212.697-.026.188-.034.377-.057.565-.08.114-.158.23-.234.345l.043.563c-.025.392-.262.721-.352 1.098-.06.246-.224.454-.272.706.233-.159.298-.456.404-.699.148.002.207.113.186.246-.056.2-.115.403-.135.611l.176-.004-.109-.084c.08-.137.145-.283.181-.438a1.495 1.495 0 0 0-.006.497l.177-.079c.01.146.02.295.02.443-.018.084-.077.17-.176.158-.186.044-.295-.128-.432-.215-.124-.08-.235-.186-.375-.233a.941.941 0 0 0-.3.498c-.055.654.038 1.315-.049 1.966-.252-.272-.423-.614-.7-.866-.244-.268-.573-.445-.812-.717l.011-.105c.25-.415.367-.891.505-1.352.35-1.2.678-2.41.983-3.623.29-1.24.582-2.48.841-3.728.08-.503.236-.995.257-1.506-.012-.516-.214-1.004-.4-1.48-.251-.594-.531-1.18-.678-1.812-.149-.677-.292-1.354-.433-2.032-.09-.514-.276-1.002-.436-1.495-.186-.58-.467-1.12-.717-1.674-.267-.594-.656-1.146-.773-1.797-.106-.56.049-1.148-.14-1.697-.066-.175-.062-.378-.171-.535l-.084.013a3.483 3.483 0 0 0-.056 1.74c.132.67.437 1.288.614 1.946-.234-.039-.433-.186-.668-.21-.061.08-.105.213-.229.207-.5.03-1.007-.002-1.5.1-.8.155-1.613.291-2.368.61-.35.162-.672.379-1.014.555-.205.101-.403.245-.64.26-.065-.425-.083-.885-.333-1.252.103.072.189.22.333.154.066-.144.044-.312.007-.46a4.724 4.724 0 0 0-1.046-1.725.55.55 0 0 0-.34-.196c.053.235.236.407.382.59.333.376.628.797.77 1.285-.358-.022-.549-.38-.871-.492.007.314.24.542.42.773.238.316.324.713.378 1.097.044.577.154 1.152.116 1.732-.051.718-.14 1.432-.251 2.144-.027.145-.051.296-.133.423-.135-.297-.238-.641-.09-.955-.244-.127-.246-.467-.502-.567.083.212.245.398.293.62a8.222 8.222 0 0 1-.058.139.716.716 0 0 1-.154-.289l-.094-.003c.086.128.17.263.197.419.055.26.206.488.266.746.044.337.06.683-.017 1.019-.066.287-.052.587-.136.872.029.175.05.35.043.53-.006.165.06.327.026.493-.02.183-.118.347-.141.53.099-.078.206-.155.264-.268.07-.176.044-.382.162-.54-.105-.549-.164-1.115-.073-1.67.108.216.143.46.179.696.043.359.132.713.138 1.076-.003.454-.294.839-.322 1.288-.068.739.021 1.48.165 2.206.081.627.223 1.244.287 1.874.157 1.206.665 2.322.968 3.492.056.206.096.425.053.638-.321.178-.716.135-1.054.273-.035.53.029 1.064-.047 1.592a4.218 4.218 0 0 1-.23.907l-.026-.006-.058-.013-.02-.004c-.145-.27-.39-.472-.626-.66-.297-.204-.617-.415-.986-.448-.275-.026-.553-.008-.828-.03.298-.276.637-.519.858-.868.333-.442.424-1.006.466-1.544.135-.886.08-1.786-.013-2.674-.092-1.082-.231-2.165-.491-3.22-.13-.542-.345-1.06-.438-1.611-.075-.393-.109-.793-.199-1.183-.09-.372-.313-.689-.483-1.026-.27-.514-.42-1.084-.5-1.656-.074-.426-.08-.864-.183-1.287a5.263 5.263 0 0 1-.15-.763c.002-.135.083-.28.001-.407-.11-.121-.243-.219-.346-.345-.432-.478-.58-1.183-1.15-1.538-.274-.16-.477-.404-.634-.675-.072.015-.143.031-.213.05-.243-.161-.416-.403-.568-.646-.29-.46-.42-.995-.65-1.485-.088-.166-.091-.376-.232-.51 0 .295.084.58.188.856.178.494.402.973.669 1.426.217.366.567.62.891.881.35.254.727.49.998.836-.085-.004-.17-.007-.253-.012-.028.127-.094.264-.228.306-.158-.023-.297-.184-.45-.052-.078-.105-.07-.32-.208-.35-.06.129-.018.331.132.387a.238.238 0 0 1-.14.132c-.001.076.031.174-.04.23-.214.05-.44.01-.645-.065-.794-.236-1.43-.791-2.069-1.294-.327-.278-.673-.545-.93-.894a4.024 4.024 0 0 1-.702-1.497c-.113-.665-.154-1.35-.377-1.992.062-.18.103-.369.186-.54.257.205.402.623.792.608.102-.347.127-.708.21-1.057.265.078.4.35.635.477.092.052.284.01.244-.127-.088-.297-.139-.62-.04-.922.29.01.593.18.736.435l.167.004a1.12 1.12 0 0 1 .03-.704c.066-.003.132-.003.198-.003.01.146.013.293.018.44h.154c.028-.113.047-.23.063-.344.117.037.235.072.36.08-.057-.137-.218-.094-.319-.165-.06-.078-.063-.186-.1-.276l-.156.011-.04.21c-.153.046-.203-.182-.351-.12-.023.203-.042.406-.073.607-.281-.12-.395-.444-.676-.56-.405.182-.336.691-.327 1.053a.744.744 0 0 1-.506-.534c-.019-.085-.102-.116-.172-.147-.022.475-.01.994-.276 1.408-.154-.15-.215-.36-.328-.535-.129-.213-.148-.467-.182-.707-.167.048-.176.255-.232.39-.107.263-.042.566-.18.818-.195-.226-.244-.534-.316-.814a15.822 15.822 0 0 0-.824-3.107 5.906 5.906 0 0 0-1.37-2.226c-.217-.214-.498-.396-.817-.367.018.193-.068.45.12.581.079.071.146.152.209.238a.645.645 0 0 1-.338.038c-.142-.038-.202-.223-.361-.217-.053.104-.012.218-.01.328-.034.066-.092.115-.143.17-.014.233-.067.463-.117.692-.02.079-.036.174-.12.213-.123-.062-.122-.213-.16-.328-.047-.111.015-.22.043-.325-.195.034-.23.325-.103.457.119.171.208.378.395.488.19.005.072-.191.05-.29a6.87 6.87 0 0 1 .108-.539c.009-.095.115-.13.148-.212.034-.11.052-.221.073-.333.163.086.341.137.515.197.024-.117.06-.23.098-.342-.112-.2-.239-.415-.197-.654.296.09.466.384.604.64-.137.472-.152.97-.288 1.442a.611.611 0 0 1-.247.006c-.1-.068-.053-.208-.077-.31l-.176-.006c-.055.127-.136.245-.172.38-.036.375-.017.754-.02 1.13-.072-.013-.154-.003-.212-.053-.422-.303-.876-.583-1.193-1.002-.251-.291-.54-.606-.605-1 .013.01-.128-.162-.128-.268 0-.06.012-.14.04-.18.046-.067.119-.074.13-.066.035.026.213.562.169.672.235.342.554.641.942.8-.123-.158-.294-.267-.436-.405-.273-.247-.478-.56-.668-.872-.117-.19-.112-.421-.15-.634-.122-.63-.097-1.276-.06-1.91l.185.05c-.17-.155-.421-.292-.5-.52-.383-.18-.114-.268-.12-.303l.262.19c.315.166.616.357.964.445a7.796 7.796 0 0 0-1.26-.715l.057.136c-.048.005-.005.112-.053.118-.17-.088-.495-.269-.691-.222-.415.05-.771.295-1.098.54-.293.214-.545.489-.882.638-.32-.218-.554-.534-.87-.758.04-.096.146-.138.227-.195.553-.31 1.051-.73 1.66-.93.258-.092.544-.101.785-.237a1.44 1.44 0 0 0 .03-.198c-.506-.071-.972.16-1.411.376-.532.289-.995.687-1.524.981a.311.311 0 0 1-.411-.06c-.168-.2-.333-.405-.498-.609.08.039.155.084.23.129.182-.119.397-.176.575-.299.165-.117.198-.333.323-.482.08-.104.17.044.249.074a.975.975 0 0 0 .086-.316c-.104-.007-.21-.023-.312 0a.917.917 0 0 0-.318.37c-.103.24-.362.363-.603.423-.118-.176.034-.37.157-.494.252-.219.547-.381.827-.558.172-.11.452-.15.483-.392-.554.013-.973.425-1.443.662-.322.143-.417.543-.37.865-.15-.121-.265-.315-.232-.512.04-.259.115-.51.2-.757.127-.364.162-.76.354-1.1.213-.348.52-.624.836-.88.192-.149.395-.29.62-.392.31-.138.652-.17.988-.192.76-.033 1.525-.022 2.285-.077-.27.402-.805.494-1.109.86.238-.017.429-.167.63-.279a3.93 3.93 0 0 0 .674-.505c.297-.258.535-.58.865-.799.348-.251.759-.398 1.168-.515.21-.05.434-.068.647-.027.147.11.225.305.4.387.331.155.715.297 1.078.169.277-.096.45-.36.718-.472.004.086.07.196-.004.271-.252.305-.652.428-.926.705.272.005.506-.147.75-.244.301-.123.462-.422.705-.62.159-.13.289-.292.396-.467.282-.455.646-.884 1.135-1.121l.001-.007Zm-4.693 1.584a.673.673 0 0 1 .135.498c-.03.077.074.074.115.108-.094-.193-.033-.495-.25-.605Zm.579.53c.09.334.429.517.76.513l.006-.12c-.147-.015-.305-.009-.439-.078-.125-.088-.215-.212-.326-.315h-.001Zm-1.364.254c-.254.076-.372.33-.428.568.032.048.074.093.082.153-.038-.03-.074-.06-.108-.092a.583.583 0 0 0-.17.295c.123.012.231-.049.346-.079.07.028.134.069.203.096.433.014.815-.264 1.083-.579.026-.106-.095-.105-.16-.14-.28-.089-.54-.359-.85-.222h.002Zm.624 1.053c-.196.11-.438.128-.61.284.298 0 .555-.174.814-.301.176-.095.378-.15.516-.303-.26.055-.479.218-.72.32Zm4.713 3.573c-.129.073-.262.141-.392.21-.14.073-.185.241-.305.337-.092.057-.201.072-.303.107-.197.055-.328.221-.484.342-.093-.05-.172-.12-.268-.16-.112.072-.098.224-.1.34a.5.5 0 0 1 .395-.153l.045.159c.094-.02.088-.115.101-.19.158-.199.425-.22.64-.302.21-.232.475-.4.69-.623l-.018-.067h-.001Zm8.994.623c-.287.023-.578.046-.856.127l-.05.087c.118.18.322.277.481.418.177.108.277.324.485.38-.016-.102-.024-.209-.085-.293-.194-.194-.45-.31-.65-.496.35-.15.73.017 1.085-.073.054-.13-.116-.178-.179-.262-.073.042-.139.114-.23.112Zm-14.717.109c.008.101-.013.223.08.294.04-.09.091-.18.09-.281l-.169-.014Zm.56.102c-.037.131-.137.252-.104.394.098-.076.17-.175.241-.274a26.9 26.9 0 0 0 .15-.029c-.075-.08-.183-.092-.287-.091Zm.711-.006c.086.141.102.402.317.393-.08-.153-.087-.42-.317-.393Zm.541.039c.04.152.1.297.138.45l.121.024c-.011-.188-.086-.378-.258-.474Zm.554.01c.003.222.082.526.337.575-.06-.154-.136-.3-.2-.452-.018-.066-.086-.09-.137-.123Zm-3.096.393c-.027.163-.13.311-.102.483.019.196-.016.495.232.547-.114-.293-.16-.625-.041-.925l.246-.006c-.035-.212-.25-.307-.396-.433.023.11.047.22.06.333Zm1.611-.249c-.03.069.032.204.116.175.032-.068-.034-.202-.116-.175Zm2.497.624c-.08-.244-.332-.384-.476-.592.026.263.247.482.476.592Zm.089-.566c.064.149.142.296.24.426.126.064.148-.144.182-.219-.144-.061-.278-.145-.422-.207Zm10.485.372c.076.194.32.2.497.236.15.194.221.44.375.636-.128.018-.257.04-.384.071-.084-.072-.166-.152-.273-.187.002.227.177.391.258.59.04.11.146.152.253.17-.088-.158-.193-.312-.212-.498.159-.016.32-.02.48-.034-.057-.158-.126-.313-.187-.47-.111-.335-.493-.458-.807-.516v.002Zm-11.829.649c.19.31.438.584.689.847l-.027-.224c-.243-.184-.374-.502-.662-.623Zm11.478.445c.068.124.17.22.26.33.1.122.122.286.165.434l.16-.006c-.097-.298-.228-.71-.585-.757v-.001Zm-10.64.166c.014.127.044.292-.13.319.148.09.318.133.491.126-.12-.15-.105-.474-.36-.445Zm.387.42c.077.058.143.155.255.127.062-.155.143-.33.047-.488h-.172c-.04.12-.01.28-.13.36Zm2.906-.31c.058.142.228.146.354.186l.057.161a.898.898 0 0 1 .602-.245.559.559 0 0 0-.12-.13c-.173 0-.315.106-.456.19a.65.65 0 0 0-.438-.162h.001Zm-2.274.232-.01.155c.09-.005.18-.017.27-.006.09.049.175.104.275.134-.064-.107-.121-.22-.207-.31-.094-.093-.227-.007-.328.028Zm1.271.31a.796.796 0 0 1-.312-.16c-.168.005-.298.178-.34.332.17.052.282-.093.383-.203l.238.034.072.12c.14-.13.243-.296.396-.412.165.017.182.237.343.267-.038-.16-.142-.374-.339-.355-.235-.036-.32.23-.44.376Zm3.147 3.27c.065.128.172.256.317.297-.039-.15-.107-.3-.231-.399-.082-.009-.11.025-.086.102Zm21.664.634c.04.2.207.343.243.545.052.262.009.535-.05.791-.083.217-.094.451-.168.671-.113.319-.198.645-.305.965-.041.296-.131.586-.142.885.02-.015.063-.043.084-.057.158-.435.255-.889.38-1.335.12.012.242.018.362-.005a1.554 1.554 0 0 0-.352-.024c.167-.623.421-1.26.306-1.915-.089-.185-.125-.47-.359-.522l.001.001Zm-.22 1.061c.03.176.206.25.327.358-.107-.122-.187-.273-.328-.358Zm-14.51.666c.19.23.418.44.545.715.059.118.074.274.206.34.029-.259-.12-.493-.254-.703-.122-.165-.263-.38-.498-.352h.001Zm-.25.317c-.038.195.158.322.254.467.156.166.245.439.494.48a.997.997 0 0 0-.162-.268c-.175-.21-.313-.447-.487-.655a4.569 4.569 0 0 0-.098-.023Zm4.442 1.074c.192.23.435.431.722.532.13.04.23.14.362.182-.005-.21-.231-.231-.375-.312-.254-.107-.428-.364-.71-.403h.001Zm-1.074.317c.247.345.628.673 1.082.63-.081-.128-.243-.123-.37-.17-.28-.085-.422-.4-.712-.46Zm10.78.438c-.018.29-.183.542-.242.823-.016.07-.085.105-.127.156-.055.01-.175-.075-.18.023-.034.222-.223.362-.316.557.169-.132.254-.337.412-.48.158-.146.352-.27.436-.477.175-.316.082-.69.186-1.025-.156.075-.137.278-.168.422ZM29.2 34.243c.064.366.484.491.794.582.164.04.29.237.463.193-.024-.13-.153-.178-.253-.235-.194-.106-.408-.161-.61-.25-.159-.06-.22-.262-.395-.29h.001Zm-6.688 3.126a.448.448 0 0 0 .31-.104c-.13-.096-.277-.059-.31.104Zm-.998.164c.05.18.238.22.386.288.031-.022.06-.045.091-.066l-.052-.01c0-.04 0-.078-.003-.116-.15.032-.282-.065-.423-.095v-.001Zm5.531.463c.105.239.25.458.391.676.1.155.135.344.093.525.03-.012.088-.032.118-.043a.615.615 0 0 0-.077-.455c-.11-.195-.209-.397-.332-.584-.04-.073-.12-.1-.193-.12v.001Zm13.166 4.046c.02.29.078.575.112.863.072.484-.225.91-.313 1.37.135-.073.184-.225.267-.344.124-.185.263-.372.284-.602.038-.355-.006-.712-.028-1.066-.035-.15-.198-.179-.321-.22h-.001Zm-2.172 7.827c-.183.58-.242 1.188-.378 1.78l.12.014c.004-.238.043-.473.111-.7.078-.414.163-.827.297-1.226.016-.096.03-.193.042-.288-.227-.003-.133.279-.192.42Zm-9.675 1.686c-.036.214.168.345.208.538a.93.93 0 0 1-.148.859l.233-.066c.137-.444.101-1.031-.293-1.332v.001Zm-.15.802c-.077.17-.18.327-.27.49-.047.114.093.102.164.11.064-.222.18-.426.223-.653l-.117.052v.001Zm8.797.6c-.024.09-.11.194-.01.277.1-.2.158-.418.253-.622-.164.035-.183.217-.242.345Z" fill="#fff"/><path fill-rule="evenodd" clip-rule="evenodd" d="M18.42 17.762c.324-.153.64-.322.96-.48-.119.276-.324.5-.52.724a2.167 2.167 0 0 1-1.288.708c.03-.192.151-.348.25-.51.137-.216.381-.325.598-.442ZM13.095 18.906a.66.66 0 0 1 .46.124c-.1.098-.253.065-.375.046-.084-.01-.062-.111-.084-.17ZM41.952 36.587c.04-.071.118-.088.192-.093.035.621.076 1.243.213 1.851.177.617.66 1.175 1.304 1.316.474.096.962.066 1.443.078.09.681.123 1.368.201 2.05.059.803-.049 1.607-.025 2.411.028.662.049 1.328.191 1.979.202 1.218.468 2.429.86 3.6.166.539.4 1.062.5 1.618.034.36.03.72.03 1.08l-.037.058h-.159a.876.876 0 0 0-.486-.132c-.008.948.017 1.897-.013 2.845a.514.514 0 0 1-.49-.189 4.221 4.221 0 0 0-1.213-.871c-.197-.096-.397-.188-.581-.305.488-.373.75-.968.824-1.567.207-1.139.105-2.303-.05-3.441-.127-1.148-.425-2.272-.813-3.358-.243-.711-.604-1.375-.873-2.076-.067-.19-.237-.312-.37-.454.087-.002.173-.002.26 0l-.053-.049c.076.06.158.106.261.11l-.087.052c.07.082.136.166.202.25-.014.013-.045.039-.06.05.157.088.272.231.353.389.097.167.132.376.294.501a3.222 3.222 0 0 0-.074-.475 2.562 2.562 0 0 1-.04-.34l.038-.192c-.088-.036-.186-.035-.278-.04a7.104 7.104 0 0 1-.38-.72 2.087 2.087 0 0 0-.105.188c.032.005.098.014.13.02l.125.208-.198.072c-.02-.089-.04-.177-.056-.265l-.076.07c-.15-.154-.257-.351-.433-.48-.072.025-.14.059-.208.092l.025.049c.04.102.078.209.121.31-.163-.12-.332-.23-.5-.342-.209-.166-.127-.487-.309-.667-.169-.188-.405-.3-.57-.491-.204-.22-.285-.516-.367-.795-.084-.296-.019-.605.063-.892.159-.655.401-1.288.675-1.903.136-.4.347-.771.6-1.109Zm2.807 4.073c-.12.104-.382.206-.273.405.125.162.172.4.362.5-.008-.296-.027-.591-.033-.887l-.056-.02v.002Zm1.193 10.042c.186.217.517.413.438.747-.107.158-.254.291-.36.453.098-.014.204-.04.258-.131.105-.17.29-.357.19-.573-.094-.22-.24-.524-.526-.499v.003Zm-.032.473c0 .21.17.334.344.415-.089-.157-.188-.317-.344-.415ZM19.767 37.347c.217.122.396.302.62.417.521.286 1.11.47 1.71.464a2.318 2.318 0 0 1-.035-.2c.083-.007.167-.011.251-.014a.336.336 0 0 1-.178.275c.313.067.64.042.958.034.22 0 .475-.098.668.049.085.101.113.236.178.351-.524.646-.817 1.433-1.126 2.195-.402.969-.764 1.965-1.337 2.851-.234.403-.547.75-.784 1.153-.343.58-.635 1.19-.95 1.785-.493.925-1.02 1.895-1.048 2.97-.027 1.038.01 2.078-.02 3.115.008.11-.093.224-.208.199-.105-.155-.072-.35-.087-.524-.023-.383.024-.767-.005-1.148l-.091.05c-.035.564-.038 1.13.007 1.693.005.073.012.15.056.213l.015.027c-.047.085-.082.184-.16.25-.095.015-.13-.1-.169-.165-.116-.205-.103-.443-.118-.67-.115.053-.111.19-.138.296-.07-.066-.146-.22-.262-.153-.253.156-.337.463-.416.732-.128.415-.114.852-.157 1.28-.551-.44-1.185-.762-1.803-1.094.39-.381.747-.807.973-1.306.296-.573.456-1.201.598-1.825.192-.952.612-1.836.868-2.77.189-.68.443-1.34.652-2.012.211-.678.25-1.392.327-2.093.089-1.064.167-2.142.495-3.164.212-.718.564-1.403.618-2.16.033-.368.086-.733.1-1.102h-.002Zm1.84 5.024c-.133.18-.344.284-.467.472-.088.17-.105.367-.088.555a.465.465 0 0 1-.318-.092c-.073.179-.12.37-.117.565.162-.098.128-.375.332-.426.082.043.137.122.206.182.062-.096.031-.192-.04-.272.06-.296.182-.608.468-.754-.052.177-.135.354-.111.543.235-.063.152-.372.131-.551.095-.178.217-.342.3-.526-.166.015-.203.192-.295.302v.002Zm-2.523.92c-.115.008-.137.24-.019.253.06.255.086.517.088.78l.113.027c-.02-.285-.036-.57-.096-.849-.042-.135.043-.254.088-.374-.096-.122-.192.075-.172.164h-.002ZM22.957 37.528c.075.04.187.056.191.163-.147.03-.286.083-.433.106.054-.034.11-.063.168-.09l.074-.18Z" fill="#fff"/><path fill-rule="evenodd" clip-rule="evenodd" d="M22.358 37.867c.189-.111.057.282-.036.099l.036-.099Z" fill="#fff"/><path fill-rule="evenodd" clip-rule="evenodd" d="M21.905 6.758c.065-.083.18-.032.268-.038-.08.446-.053.92-.258 1.336-.166.34-.277.7-.343 1.071-.194.643.02 1.427.606 1.793.17.068.326-.066.453-.16.326-.29.551-.669.82-1.007.074-.121.227-.08.346-.094.042.196-.02.385-.091.565-.1.237-.086.502-.051.751.063.153.277.153.386.052.218-.156.298-.435.508-.597.06-.068.145.017.185.065.076.095.09.22.116.334.377.045.659-.245.868-.518.188-.213.293-.489.496-.688.045-.072.166-.041.154.05.044.392.029.79-.03 1.18-.06.38-.276.707-.4 1.066-.143.38-.401.7-.685.984-.627.726-1.483 1.207-2.36 1.566-.54.29-1.149.397-1.729.576-.366.113-.752.14-1.123.229-.37.11-.737.24-1.117.314-.316.053-.639.105-.925.258-.613.303-1.277.608-1.689 1.179-.142.17-.008.402.102.554.071.12.25.124.344.03.19-.168.302-.404.468-.596.241-.28.496-.555.807-.76.31-.223.67-.358 1.03-.475.241-.087.503-.072.755-.101.086-.014.226 0 .235.11.038.3-.11.577-.174.862-.05.272-.273.456-.382.702-.114.268-.305.493-.461.737.485.113.99.192 1.425.45.244.15.509.281.715.482-.102.182-.275.326-.329.534-.011.212.225.303.393.354.568.151 1.16.166 1.745.179 1.186-.024 2.31.488 3.276 1.14.363.213.642.53.951.81.109.1.156.24.215.372.104.243.295.44.387.69.141.397.509.642.811.909.258.23.582.371.918.441.914.2 1.854.28 2.79.245.912.005 1.809-.186 2.713-.288.634-.077 1.265-.191 1.903-.219.814.002 1.54.41 2.27.716 1.024.477 2.047 1.016 2.864 1.81.312.276.613.57.85.917.256.393.549.765.743 1.196.237.499.38 1.069.271 1.619-.027.193-.167.351-.182.547-.07.687.002 1.386-.138 2.066-.141.661-.425 1.282-.76 1.866-.223.428-.478.883-.44 1.384.028.801.032 1.631.345 2.383.139.353.405.675.775.795.491.146 1.012.066 1.513.148.09.005.188.062.19.162.065.608.152 1.214.162 1.827.115.965-.078 1.934.034 2.9.023.531.05 1.065.159 1.586.105.827.322 1.632.54 2.436.265.89.593 1.762.812 2.664.042.455.076.917.034 1.374.005.132-.14.242-.264.19-.125-.05-.242-.117-.367-.165-.008.634-.037 1.269-.023 1.903-.002.222.019.446-.007.667-.025.154-.175.232-.285.323a.532.532 0 0 0-.255-.236c-.21-.115-.37-.298-.556-.445-.4-.316-.832-.602-1.311-.783-.116-.061-.212.044-.291.114-.332.32-.625.675-.917 1.031-.287.355-.547.747-.658 1.196a.53.53 0 0 0 .5-.233c.382-.523.605-1.184 1.159-1.563-.07.372-.297.683-.46 1.019-.143.299-.341.569-.45.884.463.052.91-.114 1.339-.265.58-.208 1.121-.524 1.724-.675l.088-.022c-.203.135-.447.183-.661.298-.324.172-.672.286-1.005.438-.276.124-.577.172-.868.252a1.288 1.288 0 0 1-.73.026c-.209-.06-.428-.05-.639-.095-.112-.028-.128-.172-.08-.261.127-.33.27-.661.493-.938.368-.438.681-.925 1.118-1.3.304-.255.57-.556.748-.914.176-.301.204-.658.285-.991.136-.779.106-1.574.027-2.356-.085-.556-.117-1.119-.23-1.67-.118-.52-.227-1.043-.372-1.557-.154-.449-.315-.897-.498-1.335-.26-.614-.5-1.246-.872-1.803-.264-.295-.579-.624-.996-.658-.352.89-.705 1.797-1.278 2.572-.171.253-.379.48-.518.753-.473.986-.845 2.016-1.21 3.048-.088.262-.213.51-.285.778-.04.276-.034.558-.092.831-.142.576-.045 1.17-.012 1.754.04.311.089.622.076.937-.009.185.04.383-.037.56-.07.159-.284.191-.425.116-.21-.117-.39-.308-.64-.333-.065.11-.143.222-.142.357-.03.662.01 1.328-.053 1.99-.007.227-.222.35-.4.443-.307.149-.59.351-.924.44-.42.152-.863.225-1.308.235-.404.035-.83.103-1.213-.072a.182.182 0 0 1-.082-.25c.174-.376.462-.682.725-.997.262-.261.456-.578.719-.836.274-.283.582-.547.76-.905.19-.373.333-.77.446-1.172.344-1.14.649-2.291.955-3.441.161-.7.347-1.393.47-2.1.142-.66.355-1.306.428-1.979.054-.435.228-.85.219-1.294.037-.492-.176-.945-.35-1.39-.277-.668-.585-1.333-.714-2.05-.12-.675-.31-1.334-.45-2.004-.133-.504-.276-1.016-.52-1.48-.283-.459-.488-.962-.805-1.4-.133-.187-.38-.217-.586-.274a6.027 6.027 0 0 0-1.878-.071c-.494.073-.978.202-1.46.327-.251.065-.509.108-.75.205-.693.272-1.315.692-1.988 1.008.013 1.09-.058 2.18-.172 3.263-.036.361-.153.708-.197 1.068-.034.276.05.547.102.816.092.46.177.924.197 1.394.018.294-.171.536-.255.806-.232.616-.142 1.286-.12 1.927.145 1.311.382 2.612.682 3.896.101.479.296.929.433 1.396.149.484.331.973.332 1.485a.34.34 0 0 1-.247.351c-.272.065-.549.096-.819.165-.024.727.037 1.473-.182 2.18-.076.324-.301.595-.578.77-.587.34-1.244.54-1.91.65-.496.08-1.005.227-1.507.102-.212-.054-.467-.133-.548-.36-.038-.073.016-.148.038-.215.171-.355.41-.677.678-.965.402-.436.816-.862 1.217-1.299.32-.312.628-.652.815-1.064.192-.423.15-.898.242-1.344.117-.657.034-1.324-.027-1.981-.058-.654-.06-1.316-.197-1.962a31.232 31.232 0 0 0-.29-1.475c-.116-.544-.356-1.054-.428-1.608a8.632 8.632 0 0 0-.278-1.347c-.103-.334-.282-.637-.435-.948-.316-.625-.446-1.323-.546-2.01-.057-.356-.048-.73-.192-1.066-.076-.186-.072-.391-.139-.58a2.693 2.693 0 0 0-.579.796c-.433 1.079-.909 2.141-1.376 3.205-.497 1.017-1.222 1.9-1.745 2.9-.284.512-.538 1.04-.81 1.558-.333.657-.63 1.358-.66 2.104-.027 1.055.024 2.115-.078 3.168.003.194-.218.29-.23.48-.035.151-.019.354-.174.444-.123.055-.264.03-.393.02-.123-.178-.197-.39-.349-.548-.052.004-.104.01-.157.017-.273.459-.336 1.004-.357 1.527-.009.417-.195.847-.55 1.084-.57.395-1.252.601-1.93.72-.299.054-.575.216-.885.195a2.116 2.116 0 0 1-.959-.275c.054-.108.112-.216.136-.334.096-.435.39-.786.675-1.114.423-.508.946-.919 1.449-1.343.353-.335.677-.711.89-1.15.198-.369.31-.773.46-1.16.121-.316.167-.65.253-.975.165-.56.339-1.12.545-1.668.175-.465.285-.951.44-1.423.157-.609.433-1.18.585-1.792.1-.46.056-.939.154-1.4.147-.675.09-1.378.259-2.048.086-.406.073-.832.213-1.227.2-.57.39-1.145.569-1.722.165-.502.175-1.037.166-1.561-.005-.138.002-.297-.105-.402-.395-.415-.887-.725-1.28-1.14a3.48 3.48 0 0 1-.74-1.784c-.06-.495-.078-1.01-.309-1.464-.096-.135-.257-.218-.326-.374-.213-.462-.256-.975-.37-1.465a20.099 20.099 0 0 0-.598-2.065c-.176-.57-.383-1.131-.668-1.654-.131-.233-.338-.408-.506-.613-.012.258-.077.51-.12.764-.037.265-.19.493-.294.737-.064.142-.258.095-.382.094l-.057.031c-.027.087-.05.176-.075.265-.038.24.026.5-.077.729-.124.061-.265-.003-.371-.074-.399-.271-.81-.54-1.132-.904a21.437 21.437 0 0 1-.426-.495c-.17-.201-.235-.461-.31-.707-.081-.284-.193-.564-.21-.861-.053-.662.003-1.326-.02-1.989-.01-.352-.322-.68-.679-.682-.217-.01-.444-.01-.643.09-.255.129-.488.3-.72.466-.304.23-.598.551-1 .582-.28-.233-.502-.538-.806-.743-.187-.008-.408.085-.566-.057a4.2 4.2 0 0 1-.65-.802c-.12-.166-.287-.306-.337-.512-.067-.262.02-.53.084-.783.144-.443.243-.901.437-1.327.134-.295.385-.51.622-.722.305-.245.624-.488 1.002-.607.567-.204 1.18-.194 1.774-.213.446-.017.895 0 1.34-.053a.787.787 0 0 0 .444-.2c.328-.275.657-.561 1.061-.72.422-.166.84-.345 1.268-.495.155.068.337.138.5.053a.593.593 0 0 0 .287-.419c-.02-.144-.124-.26-.187-.385a3.394 3.394 0 0 0-.258-.386c-.308-.411-.63-.87-1.13-1.056-.524-.102-1.07.147-1.585-.02-.446-.19-.546-.72-.6-1.15-.46.232-.878.605-1.411.639-.261.024-.43-.224-.533-.429-.248-.55-.43-1.126-.669-1.679-.117.2-.08.441-.071.663.026.28-.023.558-.067.833-.089-.039-.2-.06-.247-.155-.175-.291-.254-.626-.366-.943-.143-.408-.286-.825-.532-1.184-.062-.11-.19-.14-.3-.175.074.369.224.716.303 1.083.1.443.162.894.31 1.324.146.411.285.83.515 1.204.262.351.656.558.986.835.36.286.803.416 1.224.576a1.347 1.347 0 0 1-.545-.07 3.973 3.973 0 0 1-1.32-.86 8.16 8.16 0 0 0-.019.145c.23.577.828.957 1.44.985.565.023 1.132.034 1.698-.007.411-.018.821-.072 1.233-.041.386.042.773.12 1.114.319.089.052.15.134.177.235-.22-.145-.45-.309-.721-.327-.717-.091-1.438-.03-2.155-.027-.482.027-.968.052-1.45.006-.424-.037-.775-.312-1.047-.62-.43-.414-.649-.981-.918-1.502-.258-.479-.358-1.019-.487-1.54a15.833 15.833 0 0 0-.463-1.705c-.03-.09-.037-.185-.048-.277.241-.015.458.134.59.326.191.276.326.59.407.915.081.357.221.696.345 1.039l.146.02c.018-.39.003-.786.09-1.17.031-.07.092-.191.188-.146.193.2.23.49.332.74.196.502.39 1.006.64 1.484.662.11 1.126-.485 1.72-.643.034.26.096.516.152.774.112.262.36.487.657.482.482-.003.959-.141 1.44-.075.007-.201-.017-.406-.147-.568-.523-.741-.784-1.632-.9-2.523-.041-.367.096-.72.127-1.082.087-.603.243-1.195.41-1.78.054-.18.072-.381.183-.541.034-.047.132-.131.167-.043.284.458.134 1.013.05 1.506-.036.58-.246 1.138-.227 1.723-.011.301.125.578.168.872.004.122.16.07.225.035.132-.084.282-.168.352-.313.03-.342-.024-.691.06-1.029.058-.227.104-.462.215-.67.07-.04.153-.05.23-.07.018.623-.035 1.245-.024 1.866.01.374-.023.753.03 1.126.072.257.116.544.303.747.116-.01.233-.017.35-.022-.027.024-.08.074-.106.1.425.153.894.142 1.325.023.268-.1.45-.339.614-.562a.189.189 0 0 0 .096-.147c.2-.26.339-.557.487-.847-.165-.102-.35-.162-.514-.267-.164-.146-.265-.353-.34-.557-.003-.119-.14-.106-.168-.007-.338.489-.468 1.081-.743 1.602-.144.283-.38.504-.65.664.08-.155.23-.25.336-.385.256-.32.439-.692.596-1.071.135-.346.228-.761.576-.959.243.209.202.639.532.757.128.053.265.081.4.109.053-.582-.012-1.17-.119-1.744a4.992 4.992 0 0 1 .086-2.095c.082-.387.174-.785.407-1.112.043-.062.123-.071.188-.098.1.862-.088 1.74.084 2.597.102-.02.221 0 .307-.068.215-.174.37-.405.53-.628.073-.095.146-.208.273-.232.107.029.071.158.096.239.036.367.112.753.347 1.048.077.107.203-.002.287-.04.582-.385 1.08-.941 1.299-1.612.17-.402.353-.801.47-1.223.092-.346.209-.699.443-.976l-.01-.013ZM37.94 50.903c.077-.117.153-.232.233-.345.024-.188.032-.377.058-.565.03-.243.145-.464.211-.697.12-.407.27-.804.418-1.203.307-.802.612-1.607.998-2.377.303-.587.693-1.126.958-1.732.23-.512.38-1.055.57-1.582.03-.099.083-.212.029-.314-.176-.385-.667-.496-.826-.892-.174-.46-.2-.971-.084-1.448.1-.392.101-.802.23-1.187.158-.579.484-1.092.783-1.605.267-.405.52-.828.67-1.294.109-.34.3-.644.454-.966.25-.529.512-1.055.663-1.623.135-.452.07-.927.086-1.39.024-.637-.25-1.244-.22-1.883.03-.172-.172-.358-.017-.499.266.122.198.45.336.665.11.177.102.392.184.58.047.103.152-.028.14-.092.03-.253.027-.511-.017-.763a4.96 4.96 0 0 0-.92-1.842c-.185-.258-.372-.518-.605-.737-.397-.378-.788-.769-1.248-1.072-.623-.424-1.324-.712-1.992-1.053-.637-.281-1.262-.668-1.978-.686-.8.013-1.581.21-2.371.309a17.204 17.204 0 0 1-3.803.153c-.596-.07-1.205-.096-1.774-.298-.535-.197-.96-.591-1.361-.98-.17-.178-.435-.08-.632-.006-.111.052-.302-.028-.262-.172.063-.123.214-.1.328-.12.15-.016.293-.071.426-.142-.088-.25-.306-.43-.546-.528-.2-.072-.313-.266-.47-.396.136 0 .275 0 .413-.005-.08-.128-.196-.222-.354-.206-.247-.185-.514-.341-.76-.526-.028-.053-.041-.123-.1-.149-.07-.104-.206-.174-.31-.255-.62-.437-1.359-.655-2.102-.766-.037.28.455.04.381.32-.334 0-.65-.137-.983-.144-.522-.069-1.058-.07-1.565-.228-.439-.132-.746-.5-1.153-.693-.181-.073-.244-.263-.358-.403-.152-.065-.325-.038-.478-.101a2.61 2.61 0 0 1 .688-.21l.063.017-.065.081c.186.007.371.023.557.029a1.665 1.665 0 0 0-.556-.246c-.293-.17-.636-.12-.955-.086-.478.053-.929.233-1.402.317-.219.032-.38.234-.61.215.114-.19.327-.285.45-.465-.006-.168-.273-.034-.379-.058.063-.26.298-.42.396-.664.223-.39.293-.877.647-1.18.232-.205.515-.4.839-.393-.167.237-.464.319-.678.502-.06.047-.086.117-.056.191.066.04.141.052.213.076-.067.113-.07.24.015.343.135-.035.264-.09.378-.17.269-.175.57-.386.619-.73.143.105.159.28.188.44a.913.913 0 0 0 .168-.297c.092-.292.19-.585.234-.887-.57.049-1.136.189-1.654.435-.49.238-.854.666-1.135 1.122a1.81 1.81 0 0 1-.396.467c-.242.199-.404.497-.706.62-.244.096-.479.25-.749.244.274-.277.674-.401.926-.705.074-.076.007-.185.003-.271-.267.112-.44.375-.717.472-.364.128-.748-.015-1.079-.17-.175-.081-.252-.276-.4-.386a1.567 1.567 0 0 0-.646.027c-.41.117-.82.264-1.169.515-.33.22-.568.542-.864.798-.208.19-.43.366-.675.506-.2.111-.392.262-.63.28.305-.366.839-.46 1.11-.861-.76.055-1.525.044-2.286.076-.335.02-.677.055-.988.193a3.135 3.135 0 0 0-.62.393c-.315.253-.621.53-.835.88-.193.34-.227.735-.354 1.099a4.39 4.39 0 0 0-.2.757c-.035.197.081.39.231.511-.048-.32.049-.72.37-.864.47-.239.89-.649 1.444-.662-.031.241-.31.282-.483.392-.282.177-.575.34-.827.558-.124.123-.275.317-.158.493.242-.059.5-.182.604-.423a.917.917 0 0 1 .317-.37c.104-.02.209-.006.312 0-.012.11-.039.216-.086.317-.077-.031-.169-.18-.248-.074-.125.148-.158.364-.324.482-.178.124-.393.18-.574.299-.076-.045-.152-.09-.23-.13.165.205.33.41.497.61a.31.31 0 0 0 .412.06c.529-.295.991-.693 1.523-.981.44-.217.906-.447 1.411-.376a1.856 1.856 0 0 1-.03.198c-.24.136-.526.145-.784.237-.61.2-1.108.62-1.66.93-.082.056-.188.098-.227.195.315.224.55.54.87.758.336-.15.59-.424.882-.639.326-.244.682-.49 1.098-.539.196-.047.382.036.552.124.113.083.23.16.344.24l-.004-.02c.079.23.277.372.45.528l-.187-.05c-.036.634-.062 1.282.061 1.91.038.213.033.444.15.633.19.313.395.626.668.873.142.138.313.246.436.404-.387-.158-.707-.457-.943-.799.017-.105-.057-.184-.098-.27-.07-.112-.086-.258-.2-.337a.813.813 0 0 0 .088.449l.013.008c.065.393.34.699.591.99.317.419.772.7 1.193 1.002.059.05.14.041.212.053.003-.376-.015-.755.02-1.13.037-.135.118-.253.172-.38l.177.005c.023.103-.024.243.076.311a.613.613 0 0 0 .248-.006c.136-.472.15-.969.287-1.442-.138-.257-.308-.551-.603-.64-.042.24.085.454.197.654a2.624 2.624 0 0 0-.098.341c-.175-.059-.353-.11-.516-.196-.02.111-.04.223-.072.332-.033.082-.14.118-.149.213-.04.178-.08.357-.108.539.022.099.142.295-.05.29-.187-.11-.276-.317-.394-.488-.127-.132-.092-.424.103-.457-.029.105-.09.213-.043.325.038.115.037.266.16.328.084-.04.1-.136.12-.213.05-.23.103-.459.117-.693.05-.055.107-.103.143-.169-.003-.11-.044-.223.01-.328.158-.008.219.178.36.217.114.02.23.002.338-.038a1.49 1.49 0 0 0-.208-.238c-.189-.132-.102-.389-.12-.58.318-.03.6.152.817.366a5.904 5.904 0 0 1 1.37 2.226 15.82 15.82 0 0 1 .823 3.106c.073.28.122.589.316.815.138-.253.074-.556.18-.818.057-.135.065-.342.233-.39.034.24.053.494.182.707.112.177.175.385.327.535.266-.415.254-.933.277-1.408.07.03.154.061.172.147a.746.746 0 0 0 .506.534c-.01-.362-.079-.872.326-1.053.282.116.395.44.677.56.03-.202.05-.404.072-.607.149-.063.199.165.352.12l.04-.21.156-.011c.036.09.039.197.1.276.1.07.262.028.318.164a1.496 1.496 0 0 1-.36-.079c-.016.115-.036.23-.062.344l-.155-.001c-.005-.146-.008-.293-.017-.439-.067 0-.133 0-.199.003-.079.228-.104.47-.03.704l-.166-.004a.904.904 0 0 0-.736-.435c-.1.3-.048.625.04.922.039.137-.152.18-.244.127-.235-.127-.37-.4-.636-.477-.083.35-.107.711-.21 1.057-.39.015-.535-.403-.792-.609-.082.172-.123.36-.185.54.222.642.263 1.326.377 1.993.122.542.371 1.052.702 1.497.256.349.602.617.93.894.638.502 1.275 1.057 2.069 1.294.203.074.43.115.644.065.072-.056.04-.154.041-.23a.238.238 0 0 0 .14-.133c-.149-.056-.192-.257-.133-.386.138.03.13.244.21.35.152-.132.29.03.448.052.134-.042.2-.18.229-.306.083.005.167.008.252.012-.271-.346-.645-.582-.997-.836-.326-.262-.676-.516-.892-.88a8.462 8.462 0 0 1-.669-1.427c-.103-.274-.188-.56-.187-.856.14.134.143.344.232.51.23.49.36 1.024.65 1.485.151.244.325.485.568.645.07-.018.141-.035.213-.049.157.27.36.515.633.675.57.355.718 1.06 1.151 1.537.103.127.236.224.346.346.082.126 0 .271-.001.407.025.257.086.511.15.763.103.422.108.86.183 1.287.08.573.23 1.142.5 1.656.17.337.394.653.483 1.026.09.39.123.79.198 1.183.093.55.31 1.069.438 1.61.26 1.056.4 2.139.491 3.221.094.889.149 1.788.014 2.674-.042.538-.133 1.102-.467 1.544-.22.349-.56.59-.857.868.275.022.552.004.827.03.37.034.688.244.987.449.236.187.48.388.626.658l.02.005c-.194-.003-.28-.2-.415-.307-.3-.264-.618-.53-.998-.666-.286-.055-.58-.023-.87-.037a4.778 4.778 0 0 0-.258-.05c-.272.366-.598.687-.896 1.031-.27.304-.567.619-.655 1.031.113-.02.237-.044.303-.149.208-.289.455-.547.7-.805.12-.123.23-.258.383-.341-.034.255-.15.49-.29.703-.18.284-.465.511-.546.85.5-.023.99-.115 1.483-.197a5.226 5.226 0 0 0 1.316-.391c.308-.155.628-.36.8-.658l.027.006c.116-.291.181-.599.23-.907.075-.529.012-1.064.047-1.593.337-.136.731-.094 1.054-.272.043-.213.003-.433-.054-.638-.303-1.17-.81-2.286-.968-3.492-.063-.63-.206-1.247-.286-1.874-.144-.725-.232-1.466-.166-2.206.029-.448.32-.834.323-1.288-.007-.364-.096-.718-.139-1.076-.036-.237-.07-.48-.179-.697-.09.556-.031 1.122.074 1.671-.119.158-.092.364-.163.54-.057.113-.166.19-.264.268.023-.184.12-.347.141-.53.035-.166-.031-.329-.025-.493a2.643 2.643 0 0 0-.043-.53c.084-.285.07-.585.136-.872.077-.336.06-.682.016-1.02-.059-.257-.211-.484-.266-.745-.027-.156-.11-.29-.196-.419l.094.003a.716.716 0 0 0 .154.289l.058-.14c-.047-.221-.21-.408-.294-.62.257.1.259.44.503.567-.148.315-.046.657.09.956.081-.127.106-.278.133-.423.11-.712.198-1.426.25-2.144.038-.58-.071-1.155-.115-1.733-.053-.383-.14-.781-.378-1.096-.181-.232-.413-.459-.42-.773.322.113.513.47.871.492-.143-.488-.438-.908-.77-1.286-.146-.181-.33-.353-.382-.59a.555.555 0 0 1 .34.197 4.71 4.71 0 0 1 1.046 1.724c.037.149.059.317-.008.46-.144.067-.23-.081-.332-.153.25.367.268.827.334 1.253.236-.015.433-.159.639-.261.343-.177.664-.393 1.014-.555.753-.32 1.568-.455 2.367-.61.494-.1 1-.07 1.5-.1.125.006.169-.127.23-.208.234.026.434.173.667.211-.177-.658-.482-1.276-.614-1.946a3.497 3.497 0 0 1 .056-1.74l.084-.013c.11.157.106.36.171.535.19.548.035 1.135.14 1.697.118.65.506 1.203.774 1.797.25.553.531 1.093.716 1.674.16.493.347.98.437 1.495.14.678.284 1.355.433 2.032.146.63.427 1.218.678 1.812.186.476.387.963.4 1.48-.021.51-.177 1.003-.257 1.505-.26 1.248-.55 2.489-.841 3.73a98.191 98.191 0 0 1-.984 3.622c-.137.46-.255.937-.504 1.352-.024.05-.046.101-.068.153-.056.04-.111.08-.166.122-.358.392-.676.82-1.057 1.192-.356.347-.703.739-.856 1.22.07-.022.167-.012.205-.09.183-.262.34-.55.59-.758.14-.113.282-.246.473-.249-.266.353-.536.714-.693 1.132.244.035.488-.02.734-.018.62-.01 1.24-.147 1.794-.427.17-.096.372-.176.466-.355.08-.2-.126-.329-.234-.464-.336-.384-.657-.788-1.07-1.094l-.138-.16.007-.1c.24.272.568.449.813.717.276.252.447.594.7.866.086-.652-.006-1.313.048-1.966a.948.948 0 0 1 .3-.498c.14.047.251.154.375.233.136.087.247.257.433.215.098.012.158-.074.176-.158 0-.149-.01-.296-.02-.443-.06.025-.118.052-.178.079a1.496 1.496 0 0 1 .007-.497c-.036.155-.1.301-.181.438.027.02.081.064.109.084l-.176.004c.02-.208.079-.411.135-.612.02-.133-.039-.243-.186-.245.09-.364.3-.717.22-1.104-.016-.189-.03-.376-.043-.563v.007ZM21.73 7.3c-.2.56-.39 1.124-.62 1.672-.153.38-.305.775-.593 1.075a2.305 2.305 0 0 1-1.026.695c-.188-.092-.282-.307-.368-.488-.125-.24-.128-.518-.253-.755-.198.196-.276.484-.498.66-.128.11-.288.27-.472.184-.165-.036-.228-.2-.244-.35-.048-.662-.025-1.325-.03-1.987a1.365 1.365 0 0 0-.22.4c-.033.339-.187.65-.218.988a8.826 8.826 0 0 0-.018 1.612c.075.517.203 1.032.18 1.558-.007.282-.125.542-.238.793-.21.426-.5.819-.873 1.117-.176.13-.239.384-.457.457-.38.128-.825.135-1.179-.068-.187-.128-.39-.3-.416-.539.028.044.055.09.08.135.17.136.32.318.539.378.266.083.545.045.817.011.17-.02.335-.104.39-.277-.329.044-.662.036-.994.034-.347-.045-.609-.294-.925-.412a3.121 3.121 0 0 1-.26-1.463c.102-.585.057-1.184.024-1.773l-.04.157a3.788 3.788 0 0 0-.046.113c-.04.36-.015.724-.069 1.082-.115.196-.311.338-.497.463-.146.103-.245-.075-.286-.191-.285-.632-.173-1.349-.042-2.004.083-.625.298-1.253.184-1.889-.054.062-.114.121-.148.197a7.79 7.79 0 0 0-.413 1.318c-.14.653-.347 1.317-.236 1.99.196 1.298.92 2.445 1.754 3.432.305.397.624.803.782 1.284.04.284-.221.482-.39.671-.078.064-.033.19.039.239.273.2.63.267.962.214.077-.036.135-.105.2-.16.105-.033.234-.037.304-.134l-.003.03c.03-.087.054-.175.077-.265.137-.095.092-.287.108-.43-.18.225-.445.44-.463.747-.027-.008-.08-.02-.107-.029.06-.372.347-.645.593-.908.198-.234.432-.434.664-.633.503-.423 1.121-.676 1.742-.872.327.075.636-.073.955-.118.6-.099 1.192-.246 1.784-.386.517-.102 1.014-.285 1.5-.485.443-.177.813-.485 1.238-.697.325-.16.579-.434.772-.736l-.014.086c.169-.016.282-.152.402-.256l-.003-.01a2.05 2.05 0 0 0 .427-.512c.191-.332.387-.67.48-1.045.138-.45.17-.924.158-1.392-.212.217-.31.516-.53.726-.145.137-.272.306-.46.388a2.126 2.126 0 0 1-.44.01c-.072-.15-.09-.32-.138-.48-.26.16-.35.477-.568.678a.925.925 0 0 1-.47-.008c-.086-.092-.092-.224-.11-.342 0-.189-.03-.384.04-.566.047-.124.05-.26.055-.391-.132.074-.218.2-.294.327-.26.352-.543.738-.983.868-.289-.041-.55-.237-.708-.48-.23-.377-.27-.842-.202-1.272.13-.775.49-1.504.51-2.298a.913.913 0 0 0-.199.314l.001-.002Zm-3.31 10.462c-.217.117-.46.226-.599.442-.098.162-.218.317-.25.51a2.167 2.167 0 0 0 1.289-.708c.195-.223.401-.448.52-.724-.322.158-.637.328-.96.48Zm1.374 1.33c.085.077.163.19.289.198.134.02.308-.013.348-.164-.213.05-.425-.015-.637-.034Zm22.161 17.495c-.252.34-.463.71-.6 1.11a11.241 11.241 0 0 0-.674 1.902c-.083.287-.147.596-.063.892.083.28.162.576.366.795.166.191.403.303.571.491.182.181.101.502.308.667.169.112.338.223.501.342.07.073.148.135.224.202h.015c.132.14.302.264.37.453.268.702.628 1.365.872 2.076.388 1.087.686 2.21.812 3.358.156 1.138.258 2.302.05 3.441-.073.599-.335 1.194-.823 1.567.184.117.385.21.581.305.455.21.861.516 1.213.871.12.143.301.225.49.189.03-.948.005-1.897.013-2.845a.876.876 0 0 1 .486.132c.084.016.168.03.254.038.01-.394.005-.792-.088-1.176-.1-.556-.334-1.08-.5-1.617-.394-1.172-.659-2.383-.86-3.601-.142-.65-.162-1.316-.191-1.979-.024-.804.083-1.606.025-2.41-.079-.683-.111-1.37-.202-2.051-.48-.012-.968.018-1.442-.078-.645-.141-1.127-.699-1.304-1.316-.137-.608-.178-1.23-.214-1.85-.073.005-.153.022-.191.092h.001Zm-22.186.76c-.014.368-.067.734-.1 1.102-.053.756-.406 1.441-.618 2.16-.328 1.022-.406 2.1-.495 3.164-.077.701-.116 1.414-.326 2.093-.21.673-.464 1.332-.653 2.011-.256.935-.675 1.819-.868 2.771-.143.623-.302 1.252-.597 1.825-.226.5-.585.925-.973 1.305.618.333 1.251.655 1.803 1.094.043-.428.028-.864.156-1.279.079-.269.163-.577.417-.732.115-.068.19.088.261.153.027-.106.024-.244.139-.296.014.226.002.465.117.67.04.063.074.179.17.164.077-.065.113-.164.16-.25.088-.014.148-.2.064-.246-.074.04-.086.143-.08.221a.399.399 0 0 1-.056-.213c-.045-.564-.04-1.13-.007-1.693.022-.014.069-.038.091-.05.03.381-.017.765.005 1.148.015.175-.017.37.087.524.116.025.217-.09.208-.199.03-1.038-.006-2.078.02-3.116.028-1.074.555-2.044 1.05-2.969.314-.597.605-1.205.95-1.786.235-.402.548-.75.783-1.152.573-.886.936-1.881 1.338-2.851.309-.762.601-1.55 1.125-2.195-.065-.115-.093-.25-.178-.351-.193-.147-.448-.05-.668-.05-.318.01-.645.034-.958-.033a.338.338 0 0 0 .178-.275 4.006 4.006 0 0 0-.25.013c.008.067.02.133.034.2-.6.007-1.188-.177-1.71-.463-.223-.115-.402-.296-.62-.417v-.002Zm3.189.18-.074.18a1.483 1.483 0 0 0-.169.09c.148-.023.287-.076.434-.107-.004-.106-.116-.122-.191-.162Zm-.599.34-.035.099c.093.183.225-.21.035-.099Zm-7.668 16.239c-.278.386-.746.578-1.011.974-.27.382-.543.767-.733 1.196.082-.035.168-.068.23-.135.367-.394.662-.86 1.087-1.197-.153.556-.707.937-.727 1.54.464.032.915-.105 1.358-.223.536-.166 1.11-.295 1.554-.658.217-.167.329-.425.416-.675-.565-.386-1.18-.695-1.737-1.093-.2-.08-.32.15-.435.272l-.002-.001Z" fill="#000003"/><path fill-rule="evenodd" clip-rule="evenodd" d="M25.353 11.816c.14-.269.253-.552.405-.815-.11.421-.258.839-.48 1.216-.137.187-.212.418-.386.579.185-.311.292-.66.46-.98ZM25.01 11.272l.11-.094c.026.314-.073.619-.193.904-.192.431-.461.822-.759 1.186-.25.288-.61.436-.941.61-.225.101-.437.235-.675.307.023-.067.006-.184.103-.192.35-.082.648-.295.956-.47.602-.323.964-.95 1.217-1.561.034-.078.06-.159.08-.24l.014-.054c.037-.13.07-.26.088-.395ZM23.69 12.109c.259-.28.39-.645.606-.954a1.34 1.34 0 0 1-.218.63c-.124.192-.245.412-.47.496l.018-.041.064-.131ZM23.443 11.82c.01-.153-.03-.38.16-.438.013.16.024.372-.16.439Z" fill="#000003"/><path fill-rule="evenodd" clip-rule="evenodd" d="M24.224 12.241c.146-.214.253-.454.424-.65-.069.432-.331.8-.598 1.136-.303.4-.747.65-1.148.936-.235.175-.51.28-.764.425-.062.023-.204.095-.209-.023.103-.1.248-.128.374-.186.408-.147.736-.44 1.088-.685.35-.247.595-.604.833-.953ZM19.544 14.395c.126-.07.26-.128.396-.172a.61.61 0 0 1-.212.193c-.27.143-.551.264-.815.418-.564.346-1.218.508-1.778.86-.152.17-.358.279-.521.438-.1.087-.184.203-.32.236.123-.252.325-.455.549-.616.394-.291.841-.497 1.295-.676.491-.177.95-.428 1.405-.682h.001ZM19.265 14.97c.28-.124.591-.133.874-.249l-.04.106c-.317.08-.624.21-.952.245l-.079.153c-.153.054-.244-.072-.33-.177.179.009.361-.004.527-.078ZM9.007 15.567c.031.015.097.042.13.057.14.116.289.228.464.285.184.068.384.072.569.134.136.079.243.2.385.273l.003.105a4.089 4.089 0 0 0-.11-.006c-.115-.008-.231-.01-.346-.015l.22-.201c-.227-.114-.488-.099-.722-.18-.23-.091-.492-.21-.595-.452h.002Z" fill="#000003"/><path fill-rule="evenodd" clip-rule="evenodd" d="M10.821 16.006c.255-.038.513-.08.772-.065.25.011.473.141.698.24.22.096.438.201.643.327a3.715 3.715 0 0 1-.105.006c-.242-.076-.46-.207-.693-.306-.403-.205-.87-.12-1.301-.097l-.11.132c.187.128.419.101.635.107-.064.041-.122.1-.201.108-.235.021-.483.04-.71-.044l.11.006c0-.036 0-.07-.003-.105.113-.082.137-.25.265-.309ZM12.91 16.22c.115-.055.238-.093.365-.115-.014.047-.03.094-.044.143a5.542 5.542 0 0 1-.321-.027ZM13.627 17.81c.216.109.156.41.25.604-.04-.033-.145-.03-.115-.108a.674.674 0 0 0-.135-.498v.001ZM14.208 18.34c.111.1.201.226.326.314.134.07.293.063.44.077-.003.03-.006.091-.008.121-.33.004-.668-.18-.76-.513h.002ZM12.844 18.593c.31-.137.57.133.849.221.065.035.187.034.16.141-.268.315-.65.592-1.082.578-.07-.026-.134-.068-.204-.095-.114.03-.223.091-.345.079a.576.576 0 0 1 .17-.295c.034.031.07.063.108.092-.009-.06-.05-.105-.082-.153.057-.237.174-.492.427-.568Zm.252.313c.023.059 0 .16.084.17.123.018.276.052.375-.046a.654.654 0 0 0-.46-.124h.001ZM13.467 19.646c.241-.102.46-.265.72-.32-.138.152-.34.208-.516.303-.26.126-.515.3-.814.3.17-.155.413-.171.61-.283ZM25.558 21.985c0-.114.15-.215.258-.175.12.069.221.164.334.244.138-.119.31-.199.496-.146a3.88 3.88 0 0 0-.067.19 25.503 25.503 0 0 1-.229-.094c-.078.08-.152.163-.224.25a1.743 1.743 0 0 0-.568-.269ZM18.179 23.219l.017.066c-.214.225-.48.392-.688.624-.217.082-.483.103-.64.302-.014.075-.008.17-.102.19l-.045-.159a.502.502 0 0 0-.395.153c.002-.116-.012-.268.1-.34.096.04.176.11.268.16.156-.121.287-.288.484-.342.101-.035.21-.05.303-.108.12-.095.164-.264.305-.335.13-.07.263-.137.392-.211ZM10.936 23.233c.437.204.868.432 1.26.715-.348-.087-.65-.279-.964-.445a4.67 4.67 0 0 0-.24-.134l-.057-.136h.001ZM27.174 23.842c.09.002.156-.07.23-.112.062.084.233.132.18.262-.355.09-.737-.077-1.085.073.199.188.455.303.648.496.063.084.07.19.086.292-.209-.055-.308-.27-.485-.38-.159-.14-.362-.238-.48-.417l.048-.087c.279-.08.568-.104.857-.127ZM12.458 23.95a9.6 9.6 0 0 1 .168.015c.003.1-.049.191-.09.28-.092-.071-.071-.193-.08-.294h.002ZM13.016 24.053c.105 0 .212.01.287.091l-.15.029c-.07.099-.143.198-.241.274-.032-.143.068-.264.104-.394ZM13.73 24.047c.23-.027.236.24.317.393-.214.009-.23-.252-.317-.393ZM14.272 24.086c.172.096.247.286.258.475-.04-.009-.08-.018-.12-.025-.04-.154-.1-.298-.139-.45h.001ZM14.824 24.097c.05.033.117.057.137.123.063.151.14.297.2.452-.255-.05-.334-.352-.337-.575ZM11.727 24.49c-.013-.112-.038-.222-.06-.332.145.125.36.22.396.432l-.247.006c-.117.3-.072.632.042.925-.25-.052-.214-.352-.232-.547-.029-.172.074-.32.101-.483v-.001ZM13.338 24.241c.082-.027.147.107.116.175-.084.029-.148-.106-.116-.175ZM15.835 24.865c-.23-.11-.45-.33-.476-.592.144.208.396.348.476.592ZM15.924 24.299c.144.062.278.146.422.207-.035.074-.056.283-.182.22a2.059 2.059 0 0 1-.24-.427ZM26.41 24.671c.314.059.696.181.807.517.06.156.13.31.186.47-.16.012-.32.016-.479.033.019.186.124.34.212.499-.107-.02-.213-.062-.252-.171-.083-.2-.258-.362-.26-.59.107.035.189.114.273.188a4.86 4.86 0 0 1 .385-.072c-.155-.196-.226-.441-.376-.635-.176-.036-.42-.042-.496-.237v-.002ZM14.582 25.32c.287.122.418.439.662.623l.026.224c-.25-.264-.499-.536-.688-.847ZM26.058 25.765c.358.047.488.46.585.757a8.51 8.51 0 0 1-.16.006c-.043-.148-.064-.31-.164-.435-.09-.107-.192-.205-.26-.33v.002ZM15.418 25.93c.256-.028.242.296.36.446a.882.882 0 0 1-.491-.126c.174-.027.144-.192.13-.32ZM15.804 26.35c.12-.08.09-.24.13-.36h.172c.095.159.015.333-.047.488-.111.028-.179-.069-.255-.128ZM18.71 26.04a.65.65 0 0 1 .438.163c.142-.084.284-.192.456-.19.046.036.086.08.12.13a.899.899 0 0 0-.601.244l-.057-.16c-.127-.04-.296-.045-.354-.188l-.001.001ZM16.437 26.272c.1-.035.233-.121.327-.027.086.09.142.202.207.309-.1-.03-.185-.084-.274-.134-.09-.012-.181.002-.272.006l.012-.155v.001ZM17.707 26.582c.12-.146.205-.413.441-.376.197-.019.3.195.339.355-.16-.03-.178-.25-.343-.267-.153.116-.256.282-.396.412l-.073-.12-.237-.034c-.101.11-.213.256-.384.203.043-.154.174-.327.341-.332a.77.77 0 0 0 .312.16ZM20.854 29.853c-.025-.078.004-.112.086-.102.124.098.191.249.231.4-.145-.04-.252-.168-.317-.298ZM42.519 30.487c.232.05.269.337.359.522.115.656-.14 1.292-.306 1.915.117-.002.235 0 .352.024a1.27 1.27 0 0 1-.363.005c-.124.446-.221.9-.38 1.335-.02.015-.063.042-.084.057.011-.3.102-.589.142-.884.108-.32.193-.646.305-.965.074-.22.085-.456.17-.672.059-.256.102-.53.048-.79-.035-.202-.202-.345-.242-.546h-.001Z" fill="#000003"/><path fill-rule="evenodd" clip-rule="evenodd" d="M42.297 31.548c.142.085.22.237.327.358-.12-.107-.297-.182-.328-.358ZM27.789 32.214c.235-.027.375.188.498.352.134.209.282.443.254.703-.132-.066-.148-.222-.206-.34-.128-.275-.355-.484-.545-.715h-.001ZM27.54 32.531l.098.023c.175.209.312.446.487.655.068.08.122.17.163.269-.25-.041-.34-.315-.495-.481-.096-.145-.291-.272-.253-.467v.001ZM31.982 33.605c.282.039.456.297.71.403.143.08.37.102.375.312-.131-.042-.233-.142-.363-.182-.286-.1-.529-.303-.72-.532l-.002-.001ZM30.906 33.922c.29.06.432.375.712.46.127.048.289.042.37.17-.455.042-.834-.285-1.082-.63ZM41.687 34.359c.03-.145.01-.347.167-.422-.103.336-.01.71-.186 1.025-.084.207-.278.33-.436.477-.157.143-.243.348-.412.48.092-.195.282-.335.316-.557.006-.099.126-.013.18-.023.042-.051.112-.088.127-.155.06-.283.223-.534.243-.824v-.001ZM29.2 34.243c.176.028.236.23.396.29.2.089.415.144.61.25.1.057.229.106.252.235-.17.043-.298-.155-.462-.193-.31-.09-.73-.215-.794-.582H29.2ZM22.513 37.37c.033-.163.18-.201.31-.105a.459.459 0 0 1-.31.104ZM21.513 37.533c.141.03.273.127.424.095.002.038.003.078.003.117l.052.009-.09.066c-.15-.068-.339-.108-.388-.288ZM27.045 37.996c.073.02.154.046.193.12.123.187.221.389.332.584a.62.62 0 0 1 .076.455c-.03.01-.088.031-.117.043a.682.682 0 0 0-.094-.525c-.142-.218-.285-.437-.39-.676ZM44.76 40.66l.056.02c.006.294.024.59.032.885-.189-.099-.236-.337-.362-.5-.108-.198.154-.3.274-.404v-.001ZM21.606 42.37c.092-.11.13-.287.296-.302-.084.184-.205.348-.3.526.022.179.104.487-.132.551-.024-.189.06-.366.11-.543-.285.146-.406.458-.466.754.07.08.101.176.04.272-.07-.061-.125-.139-.207-.182-.203.051-.17.329-.332.426a1.465 1.465 0 0 1 .118-.565.47.47 0 0 0 .318.092c-.018-.188 0-.385.087-.555.124-.188.335-.292.467-.472l.001-.002ZM40.213 42.042c.124.041.287.07.321.22.023.354.066.711.028 1.066-.02.23-.16.417-.284.602-.082.119-.133.272-.267.345.088-.462.385-.887.313-1.371-.034-.288-.092-.573-.112-.863v.001ZM42.218 42.428c.069-.032.135-.066.208-.091.176.128.282.325.433.479l.077-.07c.016.088.035.176.055.265l.198-.071a19.19 19.19 0 0 0-.125-.21c-.032-.004-.098-.013-.13-.019a2.43 2.43 0 0 1 .105-.188 6.8 6.8 0 0 0 .38.72c.093.006.19.005.278.04l-.038.192c.004.113.02.228.04.34.035.157.063.315.075.475-.163-.124-.198-.333-.295-.501a.902.902 0 0 0-.352-.388l.06-.05c-.068-.084-.134-.169-.202-.25l.087-.053a.434.434 0 0 1-.262-.11l.053.049h-.273c-.077-.066-.155-.128-.224-.2-.045-.103-.081-.209-.122-.31-.006-.013-.017-.038-.025-.05v.001Zm1.083.887c.028.079.181.064.248.029-.034-.076-.18-.053-.248-.029ZM19.085 43.29c-.02-.088.076-.285.171-.163-.045.12-.13.24-.087.374.06.279.075.564.096.849-.028-.008-.084-.02-.113-.027a3.392 3.392 0 0 0-.088-.78c.041-.08.03-.169.018-.252h.003ZM38.04 49.869c.059-.142-.035-.424.192-.42a7.22 7.22 0 0 1-.042.287 8.84 8.84 0 0 0-.297 1.226 2.582 2.582 0 0 0-.11.7c-.03-.004-.09-.01-.121-.015.136-.591.195-1.2.377-1.78v.002ZM45.953 50.702c.285-.026.43.277.527.498.099.216-.086.402-.192.573-.053.092-.16.118-.256.131.105-.163.252-.295.359-.452.078-.335-.252-.531-.438-.748v-.002Z" fill="#000003"/><path fill-rule="evenodd" clip-rule="evenodd" d="M45.922 51.175c.155.098.254.257.343.415-.174-.08-.343-.204-.343-.415ZM37.981 51.466c.081.387-.13.74-.22 1.104-.106.243-.17.54-.404.699.048-.252.212-.459.272-.706.09-.376.327-.706.352-1.098ZM28.367 51.555c.394.3.43.888.293 1.332-.078.022-.156.043-.233.066a.93.93 0 0 0 .148-.859c-.04-.193-.244-.325-.208-.538v-.001ZM28.215 52.357l.117-.052c-.044.227-.158.43-.223.653-.071-.008-.211.004-.164-.11.09-.164.193-.32.27-.49ZM37.014 52.958c.059-.128.08-.311.242-.346-.094.202-.154.42-.253.622-.098-.083-.014-.187.011-.276Z" fill="#000003"/><path fill-rule="evenodd" clip-rule="evenodd" d="M21.73 7.3a.914.914 0 0 1 .2-.314c-.021.794-.383 1.524-.511 2.298-.068.43-.03.894.201 1.273.158.242.42.438.708.479.44-.13.724-.516.983-.868.076-.128.161-.253.294-.327-.004.132-.007.267-.055.392-.069.18-.039.376-.039.565.017.117.024.25.11.342.15.038.319.051.47.008.217-.201.307-.516.567-.677.05.158.066.328.138.479.146.007.296.013.441-.01.187-.082.314-.252.459-.388.22-.21.319-.509.53-.726.013.468-.02.943-.158 1.392-.091.375-.288.713-.48 1.045a2.05 2.05 0 0 1-.427.511l.003.011c-.12.104-.233.24-.402.256l.015-.086c-.194.303-.448.576-.773.736-.425.21-.795.52-1.237.697-.487.2-.983.383-1.501.485-.591.139-1.183.287-1.783.386-.32.044-.629.194-.955.118-.62.196-1.24.45-1.743.872-.232.199-.465.4-.664.633-.246.262-.533.535-.592.908l.106.029c.019-.307.283-.522.464-.747-.017.143.028.335-.109.43l-.057.05c-.007.06-.011.122-.016.185-.07.097-.2.101-.305.135-.065.054-.122.123-.2.16a1.303 1.303 0 0 1-.962-.215c-.071-.05-.115-.175-.04-.239.17-.19.432-.387.391-.671-.157-.482-.478-.888-.781-1.284-.834-.987-1.559-2.134-1.754-3.432-.112-.673.095-1.337.235-1.99.098-.45.237-.891.414-1.318.033-.077.094-.135.148-.197.114.636-.101 1.264-.184 1.89-.131.654-.244 1.371.042 2.003.04.115.14.294.285.191.186-.125.383-.267.497-.463.055-.357.03-.723.069-1.082a3.79 3.79 0 0 0 .047-.112l.039-.158c.034.59.079 1.189-.024 1.773-.024.5.05 1.007.26 1.463.318.118.578.367.925.412.332.002.664.01.995-.034-.055.172-.22.258-.391.277-.271.034-.55.072-.816-.011-.22-.062-.369-.242-.54-.378a2.942 2.942 0 0 0-.08-.135c.027.24.23.412.417.539.354.202.799.196 1.179.068.219-.073.28-.327.456-.457.373-.298.663-.691.874-1.117.112-.252.23-.512.237-.793.024-.526-.104-1.04-.18-1.558a8.835 8.835 0 0 1 .018-1.612c.031-.338.186-.65.219-.988a1.34 1.34 0 0 1 .22-.4c.005.662-.019 1.325.03 1.987.015.15.08.314.244.35.184.088.343-.073.471-.184.222-.176.3-.464.499-.66.125.236.128.515.252.755.086.181.18.396.369.488.399-.126.75-.38 1.025-.695.289-.3.44-.696.593-1.075.23-.549.42-1.113.62-1.672V7.3Zm3.547 4.917c.222-.377.37-.795.48-1.216-.152.264-.264.546-.405.815-.17.32-.276.669-.46.98.173-.16.248-.392.385-.58Zm-.268-.945c-.163.877-.398 1.736-1.398 2.25-.309.175-.605.389-.957.47-.096.008-.08.126-.102.192.238-.071.45-.205.675-.307.33-.174.69-.322.94-.61.427-.52 1.01-1.383.953-2.09-.037.03-.074.062-.111.094v.001Zm-1.314.832c-.027.052-.036.07-.067.136l-.02.041c.225-.085.347-.305.47-.495.122-.19.204-.404.219-.63-.216.308-.342.668-.6.948h-.002Zm-.25-.284c.184-.067.172-.28.16-.44-.19.059-.15.286-.16.44Zm.78.421c-.238.349-.483.706-.833.953-.352.244-.68.538-1.088.685-.126.058-.272.085-.374.185.005.12.146.046.209.024.254-.144.529-.25.764-.425.401-.286.844-.537 1.148-.936.266-.335.53-.704.598-1.137-.171.197-.279.437-.424.651Zm-4.681 2.154c-.454.254-.914.505-1.405.682-.454.178-.901.385-1.295.676a1.698 1.698 0 0 0-.549.616c.135-.032.22-.149.32-.236.163-.16.369-.268.52-.439.561-.35 1.215-.513 1.779-.86.264-.154.545-.275.815-.417a.6.6 0 0 0 .212-.193 2.123 2.123 0 0 0-.396.172l-.001-.001Zm-.278.576a1.117 1.117 0 0 1-.527.078c.086.105.177.231.33.177.026-.051.051-.103.079-.153.327-.036.634-.164.952-.245.009-.027.03-.079.04-.106-.283.116-.595.125-.874.249Z" fill="#FFD300"/><path fill-rule="evenodd" clip-rule="evenodd" d="M6.66 11.533c.111.035.24.065.3.175.245.36.39.775.533 1.184.111.317.191.652.365.942.048.095.159.117.248.156.045-.276.093-.554.066-.833-.008-.221-.047-.462.072-.663.24.552.42 1.13.668 1.679.102.204.272.453.533.428.533-.033.952-.407 1.411-.638.054.429.156.959.6 1.15.516.167 1.063-.082 1.585.02.501.185.822.645 1.13 1.056.092.123.184.25.258.385.018.09.048.184.023.275-.199.16-.467.228-.618.446l-.03.006-.03-.044a.376.376 0 0 0-.177-.236c-.34-.198-.727-.277-1.114-.319-.411-.03-.822.025-1.233.041-.565.041-1.132.03-1.697.007-.612-.027-1.212-.407-1.44-.984l.018-.145c.382.365.825.672 1.32.86.173.068.361.077.546.07-.42-.16-.865-.29-1.224-.576-.33-.277-.725-.484-.987-.835-.23-.374-.369-.793-.514-1.205-.149-.43-.212-.882-.31-1.324-.08-.367-.228-.715-.304-1.082l.002.004Zm6.274 4.975a5.347 5.347 0 0 0-.643-.328c-.226-.098-.447-.228-.698-.24-.26-.014-.517.027-.772.066-.127.06-.152.227-.265.31-.142-.072-.248-.194-.384-.274-.186-.061-.385-.066-.57-.134a1.455 1.455 0 0 1-.464-.285c.014-.076-.124-.174-.13-.057.102.243.364.36.595.453.235.082.495.066.721.179l-.219.201c.115.003.23.006.345.015.227.082.474.064.71.044.079-.007.137-.067.2-.108-.215-.006-.447.02-.635-.107.028-.033.082-.1.11-.132.431-.024.899-.108 1.302.097.232.1.451.23.693.306l.105-.006Zm.34-.404c-.127.022-.25.06-.365.115.106.014.213.02.321.027l.044-.143ZM15.415 13.588c.275-.521.405-1.114.743-1.602.027-.1.166-.113.169.006.073.205.175.412.34.558.162.104.348.165.513.267-.148.29-.288.587-.487.846-.003.059-.02.093-.096.148-.164.223-.345.462-.614.561-.43.12-.902.131-1.325-.023.026-.025.08-.074.105-.1.272-.16.507-.38.651-.664l.001.002Z" fill="#FFD300"/><path fill-rule="evenodd" clip-rule="evenodd" d="M14.454 16.854c.026-.091-.004-.187-.023-.276.064.127.167.242.188.386a.59.59 0 0 1-.287.419c-.164.085-.345.014-.5-.054l.004-.03c.15-.218.418-.287.618-.445ZM14.689 54.106c.114-.122.235-.351.435-.272.557.398 1.172.706 1.737 1.092-.087.251-.199.51-.416.676-.445.364-1.018.492-1.554.658-.443.119-.893.255-1.358.223.02-.603.575-.984.727-1.54-.426.339-.72.804-1.088 1.197-.06.068-.146.101-.229.135.19-.429.463-.814.733-1.196.266-.396.732-.588 1.012-.974ZM43.625 54.149c.079-.07.176-.176.29-.114.48.181.912.467 1.313.783.186.147.344.33.555.445.032.091.054.185.077.28-.603.15-1.142.468-1.724.675-.429.151-.876.318-1.34.265.11-.315.308-.585.452-.884.162-.336.389-.647.46-1.02-.554.38-.777 1.042-1.16 1.564a.529.529 0 0 1-.5.233c.111-.449.37-.84.658-1.196.293-.355.586-.71.917-1.031h.002ZM34.13 55.715c.38-.37.698-.8 1.056-1.192.12.018.242.038.352.09.414.305.735.71 1.07 1.093.108.135.316.264.235.464-.094.18-.297.26-.466.355a4.149 4.149 0 0 1-1.794.428c-.246-.003-.49.052-.734.017.157-.419.427-.779.693-1.132-.19.003-.334.136-.473.249-.25.208-.407.495-.59.758-.038.078-.135.069-.206.091.155-.482.5-.873.856-1.22ZM24.349 55.876c.299-.344.624-.665.895-1.031.086.015.172.03.258.05.29.014.584-.018.87.037.38.136.699.402.998.666.134.106.221.304.415.307l.058.013c-.173.3-.493.504-.801.658-.419.187-.863.32-1.316.39-.492.083-.984.176-1.482.198.08-.338.365-.566.545-.85.142-.212.258-.447.29-.703-.152.083-.264.22-.383.34-.245.259-.491.517-.7.806-.066.105-.19.13-.303.15.088-.413.385-.728.656-1.032v.001Z" fill="#FFD300"/><path fill-rule="evenodd" clip-rule="evenodd" d="M9.007 15.568c.007-.117.145-.02.13.056l-.13-.056ZM19.065 43.543c-.119-.013-.096-.245.018-.252.013.083.023.174-.018.252ZM46.833 51.397c.093.383.099.782.088 1.175-.086-.008-.17-.023-.253-.038h.158l.037-.058c0-.36.004-.72-.03-1.08ZM35.35 54.401c.022-.052.045-.103.069-.153l-.012.105-.007.1.137.16a1.274 1.274 0 0 0-.352-.089 4.56 4.56 0 0 1 .166-.121V54.4Z" fill="#DD9F3F"/><path fill-rule="evenodd" clip-rule="evenodd" d="m15.931 17.555.058-.05a3.397 3.397 0 0 1-.077.265l.003-.03c.006-.063.009-.124.016-.185ZM18.425 53.055c.084.047.023.233-.065.247l-.015-.027c-.007-.078.005-.18.08-.221v.001ZM45.785 55.262c.106.051.2.127.255.236l-.09.023-.089.023a2.831 2.831 0 0 0-.076-.28v-.002Z" fill="#DF200E"/></svg>