<svg width="53" height="64" fill="none" xmlns="http://www.w3.org/2000/svg"><path fill-rule="evenodd" clip-rule="evenodd" d="M1.446.597v54.054c0 2.568 2.27 4.628 5.101 4.628h14.84c2.83 0 5.1 1.556 5.1 4.124 0-2.568 2.294-4.124 5.124-4.124h14.792c2.83 0 5.1-2.06 5.1-4.628V.597H1.447Z" fill="#F71A22" stroke="#1A1A1A" stroke-width=".508"/><path fill-rule="evenodd" clip-rule="evenodd" d="m25.627 8.063-1.27-3.048h4.063l-1.27 3.048 3.048-1.27v4.064l-3.048-1.27 1.27 3.047h-4.063l1.27-3.047-3.048 1.27V6.793l3.047 1.27Z" fill="#fff" stroke="#333" stroke-width=".305"/><path fill-rule="evenodd" clip-rule="evenodd" d="M11.594 45.989s-.264.921-.36 1.579c-.101.702-.036 1.123-.036 1.123s-.248-.491-.288-1.035c-.042-.575.123-1.185.123-1.185l.47-.727.09.245Z" fill="#fff" stroke="#1A1A1A" stroke-width=".214"/><path fill-rule="evenodd" clip-rule="evenodd" d="M13.638 28.006c-.115.153-.244.381-.294.566-.057.215-.012.566.033.783.059.284.326.827.326.827l1.197.01s.43-.708.49-1.065c.04-.25-.025-.602-.12-.838-.088-.216-.25-.524-.457-.63-.236-.12-.549-.109-.794-.011-.146.057-.286.233-.381.358Z" fill="#fff" stroke="#1A1A1A" stroke-width=".254"/><path fill-rule="evenodd" clip-rule="evenodd" d="M13.909 28.974s.003-.31.065-.424c.088-.16.06-.168.229-.24a.481.481 0 0 1 .272-.02.62.62 0 0 1 .326.217c.114.174.12.685.12.685s-.31-.358-.49-.392c-.116-.021-.106-.049-.217-.01a1.756 1.756 0 0 0-.305.184Z" fill="#1A1A1A" stroke="#1A1A1A" stroke-width=".254"/><path fill-rule="evenodd" clip-rule="evenodd" d="M11.974 46.167s-.263.921-.359 1.579c-.102.701-.036 1.123-.036 1.123s-.248-.492-.288-1.035c-.042-.575.123-1.185.123-1.185l.47-.728.09.246Z" fill="#fff" stroke="#1A1A1A" stroke-width=".214"/><path fill-rule="evenodd" clip-rule="evenodd" d="M12.39 46.28s-.263.922-.359 1.58c-.102.701-.036 1.123-.036 1.123s-.248-.492-.288-1.036c-.042-.574.123-1.184.123-1.184l.47-.728.09.245ZM12.728 45.474s.031.958-.036 1.619c-.072.705-.238 1.098-.238 1.098s.36-.416.531-.934c.181-.547.17-1.178.17-1.178l-.28-.82-.147.215Z" fill="#fff" stroke="#1A1A1A" stroke-width=".214"/><path fill-rule="evenodd" clip-rule="evenodd" d="M20.072 38.523s-5.294 2.415-7.028 4.142c-.667.665-1.19 1.854-1.605 2.7-.176.357-.489 1.233-.489 1.233s.559.444.908.465c.257.017.744-.101.954-.232.225-.141.461-.329.628-.536.234-.289.439-.977.54-1.336.052-.183.042-.268.042-.268s.136.171.175.371c.054.274.088.799.088.799s.503-.497.598-.822c.054-.188 0-.652 0-.652s.242.442.279.652c.04.234-.047.791-.047.791s.587-.512.698-.814c.078-.21 0-.745 0-.745s.222.463.28.675c.052.19.093.651.093.651s.353-.411.419-.628c.085-.28 0-.977 0-.977s.225.434.302.628c.111.28.303.954.303.954s.39-.66.442-.977c.045-.277-.093-.931-.093-.931s.136.62.256.861c.089.179.395.535.395.535s.205-.412.233-.605c.038-.263-.07-.884-.07-.884s.09.756.303.977c.23.24 1.047.373 1.047.373l2.048-2.002-1.699-4.398Z" fill="#fff" stroke="#1A1A1A" stroke-width=".254"/><path fill-rule="evenodd" clip-rule="evenodd" d="M31.556 51.398s-.937.199-1.563.422c-.668.24-1.01.494-1.01.494s.318-.449.78-.739c.488-.307 1.104-.446 1.104-.446l.863.074-.174.195ZM31.165 50.956s-.937.2-1.563.423c-.668.238-1.01.494-1.01.494s.319-.45.78-.74c.488-.306 1.104-.446 1.104-.446l.864.074-.175.195ZM30.763 50.514s-.937.2-1.563.423c-.668.238-1.01.494-1.01.494s.318-.45.78-.74c.488-.306 1.104-.446 1.104-.446l.863.074-.174.195Z" fill="#fff" stroke="#1A1A1A" stroke-width=".214"/><path fill-rule="evenodd" clip-rule="evenodd" d="M29.327 41.456v2.34s.018.54.072.763c.046.197.244.628.244.628l.443-.76v-.316s-.06.868 0 1.234c.038.236.253.758.253.758l.284-.727.032-.253s-.118.7-.095 1.107c.014.24.127.79.127.79l.347-.537.095-.38s-.105.562-.095.98c.006.24.095.791.095.791l.38-.632.126-.317s-.137.729-.126 1.044c.005.154.094.506.094.506l.443-.601s-.181.503-.221.727c-.03.169-.032.57-.032.57s-.792.703-1.201.885c-.221.097-.599.01-.79.158a.36.36 0 0 0-.127.253c.012.5.21 1.083.664 1.296.34.16 1.043.08 1.39-.063.342-.14.64-.593 1.013-.696.413-.114 1.014.257 1.422.127.334-.107.735-.444.886-.76.139-.29.125-.765.031-1.074-.08-.267-.38-.727-.38-.727s.125-.55.127-.79c.003-.279-.126-.665-.126-.665s.208.416.316.696c.034.087.127.284.127.284s.121-.35.126-.506c.012-.366-.095-.916-.095-.916s.057.367.221.6c.059.083.254.221.254.221v-.79l-.159-.759.348.727s.195-.703.19-1.011c-.009-.525-.38-1.708-.38-1.708l.285-1.77-4.996-1.486-1.612.759Z" fill="#fff" stroke="#1A1A1A" stroke-width=".254"/><path fill-rule="evenodd" clip-rule="evenodd" d="M20.015 52s-.938.2-1.563.423c-.668.238-1.01.493-1.01.493s.318-.448.78-.739c.488-.306 1.104-.446 1.104-.446l.863.074-.174.195ZM19.626 51.559s-.937.199-1.563.422c-.668.239-1.01.494-1.01.494s.319-.45.78-.74c.488-.306 1.104-.446 1.104-.446l.863.075-.174.195ZM19.224 51.116s-.938.2-1.563.423c-.668.239-1.01.494-1.01.494s.318-.45.78-.74c.488-.306 1.104-.446 1.104-.446l.863.074-.174.195ZM40.695 51.776s-.938.199-1.563.422c-.668.239-1.01.494-1.01.494s.318-.45.78-.74c.488-.306 1.104-.446 1.104-.446l.863.075-.174.195ZM40.306 51.334s-.937.2-1.563.423c-.668.238-1.01.494-1.01.494s.318-.45.78-.74c.488-.306 1.104-.446 1.104-.446l.863.074-.174.195ZM39.902 50.892s-.938.2-1.563.423c-.668.238-1.01.493-1.01.493s.318-.449.78-.739c.488-.306 1.104-.446 1.104-.446l.863.074-.174.195Z" fill="#fff" stroke="#1A1A1A" stroke-width=".214"/><path fill-rule="evenodd" clip-rule="evenodd" d="M13.688 29.699c-.347.035-.814.14-1.123.303a3.56 3.56 0 0 0-1.032.88c-.163.213-.238.583-.385.807-.109.166-.28.374-.434.499-.38.307-.935.538-1.4.692-.191.063-.432-.01-.607.09a.704.704 0 0 0-.303.395c-.057.266.043.632.152.88.04.09.182.274.182.274s-.015.496.121.698c.062.092.21.275.304.334.141.089.485.273.485.273s.053.37.152.486c.145.17.668.333.668.333l1.7-.03s.397.364.567.583c.112.145.202.523.202.523s.264-.448.252-.67c-.011-.198.026-.32.026-.32s.114.196.217.462c.072.185.145.506.145.506s.324-.247.364-.414c.047-.195.118-.135.118-.654 0 0 .096.626.112.864.013.203-.086.561-.086.561s.372-.242.48-.44c.053-.095.257-.432.311-.74.077-.435.057-.53.057-.53s.026.12.008.554c-.014.347-.022.495-.02.62.001.187.03.465.03.465s.255-.153.373-.399c.14-.29.323-.788.323-.788s-.19.647-.17 1.031c.006.14.1.456.1.456l.572-.78s-.268.902-.278 1.204c-.006.173.03.577.03.577s.309-.43.395-.637c.092-.225.301-.372.301-.372s-.114.157-.089.402c.022.22.15.509.122.729-.012.088-.122.273-.122.273s.32-.116.425-.213l.304-.278-.183.46s-.335.397-.364.607c-.026.196.176.634.176.634s.071-.24.128-.33a.71.71 0 0 1 .247-.247s.033.435.063.741c.02.196.238.61.238.61l.305-.474.113-.079s-.157.545-.128.926c.014.171.184.542.184.542l.271-.339.238-.206s-.18.511-.17.85c.008.24.17.78.17.78l.338-.475.11-.235s-.111.562-.085.908c.016.213.194.683.194.683l.46-.678.135-.092s-.296.801-.285 1.233c.005.224.183.724.183.724l.373-.61.114-.093s-.192.496-.216.804c-.015.205.102.678.102.678l.337-.184s-.124.398-.158.75c-.016.172.088.572.088.572l.334-.271s-.14.387-.136.726c.003.218.191.477.223.694.023.156-.01.526-.01.526l.474-.373.216-.164s-.225.382-.351.639c-.064.13-.203.44-.203.44s-.972.707-1.458.848c-.254.074-.692-.151-.881.034-.117.114-.077.385-.034.542.115.416.407 1.042.813 1.186.37.131.864-.33 1.254-.373.802-.085 1.905.307 2.678.082.39-.114.925-.317 1.085-.691.132-.311-.136-1.119-.136-1.119l.136-.915.339.678.27-.475-.236-1.22.305.678.237-.475v-1.152l.373.644s.145-.492.138-.708c-.014-.39-.227-.913-.227-.913l.36.4s.132-.419.112-.602c-.034-.32-.302-.83-.302-.83s.079.197.224.28c.07.041.27.034.27.034s-.051-.657-.112-.932c-.083-.371-.165-.88-.165-.88l.244.22s.027-.316.007-.448c-.05-.336-.208-.779-.208-.779s.099.168.235.345c.096.125.373.373.373.373s.02-.67-.034-.95c-.068-.35-.407-1.118-.407-1.118s.499 1.059.664 1.483c.054.138.15.348.15.348s.178-.47.222-.68c.03-.149.048-.341.048-.341s-.073.55.033.826c.083.22.502.6.502.6l.13-.794c.045-.291.145-.442.145-.442s-.03.165.065.442c.078.232.453.68.453.68s.136-.392.162-.567c.044-.298.085-.405.085-.405s.098.134.239.421c.062.129.275.389.275.389s.234-.393.259-.583c.052-.385.059-.611.059-.611s.185.053.265.4c.052.228 0 .778 0 .778s.393-.214.485-.373c.12-.203.145-.29.114-.524-.018-.131.029-.312.029-.312s.13.119.197.35c.084.29.033 1.005.033 1.005s.32-.272.403-.512c.045-.128.069-.3.069-.3s-.012.313.04.578c.025.13.168.412.168.412s.31-.459.389-.68c.061-.177.097-.27.097-.27s-.041.205.016.431c.05.196.307.6.307.6s.257-.567.308-.826c.03-.157.016-.258.016-.258s.153.296.243.533c.078.205.308.664.308.664s.192-.468.226-.68c.044-.269.07-.308.07-.308s.075.121.206.405c.069.15.307.453.307.453s.11-.359.13-.518c.04-.332 0-1.117 0-1.117s.266.843.312 1.217c.02.168-.005.564-.005.564s.2-.237.258-.356c.085-.172.18-.316.18-.316l.107.462.07.712.357-.47.116-.317.013.82.146.501.26-.324.148-.332s-.114.44-.096.76c.009.153.125.495.125.495l.324-.453.093-.307-.028.712.016.583.465-.59.132-.298-.044.849.066.66.286-.33.173-.386-.019.562.22.748.242-.462.236-.567s-.059.457-.016.92c.022.232.22.747.22.747s.245-.186.404-.412c.16-.227.211-.323.211-.323s-.002.181.08.455c.081.273.23.588.23.588s.23-.244.286-.374c.104-.245.27-.535.27-.535s-.231.632-.16 1.041c.038.223.223.483.264.705.051.285 0 .968 0 .968s-.538.218-.727.374c-.115.096-.285.247-.308.396-.047.314.375.99.375.99s.554.11.792.088a3.583 3.583 0 0 0 1.166-.352c.704-.36 1.378-1.262 2.09-1.606.074-.036.198-.019.265-.066.178-.128.163-.405.225-.616.054-.184.064-.458 0-.638-.126-.354-.455-.632-.622-.969-.114-.23-.175-.58-.198-.836-.043-.487-.068-1.165.088-1.628.072-.212.345-.406.419-.617.225-.65.004-1.618.164-2.287.071-.298.338-.64.397-.942.166-.859-.05-2.915-.05-2.915s-.801-.514-1.031-.823c-.241-.325-.456-1.269-.456-1.269s.216.918.446 1.24c.332.464 1.468 1.13 1.468 1.13s-.052-1.52-.328-2.122c-.24-.524-.82-1.072-1.24-1.467-.297-.28-.87-.524-1.09-.813-.324-.427-1.14-.954-1.461-1.383-.506-.673-1.306-.847-2.048-1.246-.477-.257-.73-.6-1.271-.612-.423-.01-1.12-.081-1.12-.081l.843-.546s-1.267-.136-1.784 0c-.38.1-1.14.645-1.14.645l.555-.674s-.835.038-1.25.079c-.639.063-1.475.398-2.099.418-2.085.066-4.44.076-6.727-.188-.68-.078-1.751-.419-2.427-.527-.476-.077-1.587.247-1.587.247l.734-.485s-.734-.119-1.031-.06c-.21.042-.595.397-.595.397l.347-.595s-.858-.131-1.19 0c-.284.112-.744.694-.744.694l.496-.892s-.793-.036-1.09.098c-.308.139-.744.744-.744.744s.384-.591.437-.882c.068-.377.123-.936-.13-1.27-.193-.255-.533-.492-.853-.475-.319.016-.728.258-.942.495-.214.238-.336.677-.396.992-.017.088 0 .297 0 .297s-.56-.012-.814.014Z" fill="#fff" stroke="#1A1A1A" stroke-width=".254"/><path fill-rule="evenodd" clip-rule="evenodd" d="M10.978 34.826c-.074.139-.277.27-.305.296-.142.132-.466.282-.682.333a2.037 2.037 0 0 1-.342.016c-.134-.006-.488-.046-.488-.046s.383.548.533.554c.15.006.255.014.416-.024.306-.072.66-.227.912-.46.144-.133.235-.305.318-.46.083-.156.188-.484.188-.484s-.475.137-.55.275ZM11.915 32.603a.294.294 0 0 1-.175.269.277.277 0 0 1-.309-.063.292.292 0 0 1-.083-.206.297.297 0 0 1 .083-.205.283.283 0 0 1 .2-.085.277.277 0 0 1 .201.085.29.29 0 0 1 .083.205ZM9.337 33.683c-.031.048-.225.09-.265.1-.08.02-.225-.022-.32-.052a.57.57 0 0 1-.135-.11 2.501 2.501 0 0 0-.119-.123l-.185.241s.043.058.103.127c.061.069.13.154.246.19.149.047.355.074.524.032a.549.549 0 0 0 .338-.25.609.609 0 0 0 .096-.232c.018-.086-.047-.23-.047-.23l-.236.307Z" fill="#1A1A1A"/><path fill-rule="evenodd" clip-rule="evenodd" d="M15.05 29.512s.035-.285.145-.457c.084-.13.132-.237.27-.31.116-.063.253-.159.373-.104.213.097.308.35.352.58.031.16-.03.36-.062.519-.05.246-.187.415-.187.415s-.095-.347-.27-.581c-.07-.096-.17-.168-.29-.166-.136.003-.331.104-.331.104Z" fill="#1A1A1A" stroke="#1A1A1A" stroke-width=".254"/><path d="M16.562 35.495s.143.378.09.63c-.025.122-.202.586-.202.586s-.3-.303-.405-.45c-.113-.158-.256-.324-.256-.324s.01.247-.014.459c-.02.162-.136.428-.136.428" stroke="#1A1A1A" stroke-width=".254"/><path fill-rule="evenodd" clip-rule="evenodd" d="M42.907 44.505s.003.46.071.642c.053.138.286.404.286.404s.247-.537.261-.785c.017-.306-.404-.784-.404-.784s.354.314.476.475c.079.105.213.38.213.38s.114-.469.072-.665c-.062-.29-.52-1.066-.52-1.066l.567.614s.131-.329.12-.475c-.024-.287-.528-1.111-.528-1.111l.551.611s.064-.569.024-.808c-.053-.316-.38-.999-.38-.999l.618.713s.104-.66.023-.927c-.104-.342-.69-.975-.69-.975l.62.476s-.009-.662-.096-.927c-.088-.268-.476-.809-.476-.809" fill="#fff"/><path d="M42.907 44.505s.003.46.071.642c.053.138.286.404.286.404s.247-.537.261-.785c.017-.306-.404-.784-.404-.784s.354.314.476.475c.079.105.213.38.213.38s.114-.469.072-.665c-.062-.29-.52-1.066-.52-1.066l.567.614s.131-.329.12-.475c-.024-.287-.528-1.111-.528-1.111l.551.611s.064-.569.024-.808c-.053-.316-.38-.999-.38-.999l.618.713s.104-.66.023-.927c-.104-.342-.69-.975-.69-.975l.62.476s-.009-.662-.096-.927c-.088-.268-.476-.809-.476-.809" stroke="#1A1A1A" stroke-width=".254"/><path fill-rule="evenodd" clip-rule="evenodd" d="m35.958 31.244.899-.33.807-.153-.306.39-.167.195s.414-.26.612-.32c.14-.044.487-.056.487-.056l-.167.306-.125.195s.339-.27.515-.292c.26-.034.848.222.848.222s-.445.096-.598.209a.257.257 0 0 0-.07.111s.624-.113.849-.083c.271.036.46.18.46.18l-.502.195-.306.084s.69-.047.96.055c.278.106.78.376.78.376l-.863.056-.306.027s.855.084 1.182.237c.15.07.431.348.431.348l-.347.041h-.334s.54.126.737.25c.137.088.417.307.417.307l-.793-.028-.208-.014.473.181s.562.095.75.237c.133.099.307.459.307.459l-.71-.167.43.347" fill="#fff"/><path d="m35.958 31.244.899-.33.807-.153-.306.39-.167.195s.414-.26.612-.32c.14-.044.487-.056.487-.056l-.167.306-.125.195s.339-.27.515-.292c.26-.034.848.222.848.222s-.445.096-.598.209a.257.257 0 0 0-.07.111s.624-.113.849-.083c.271.036.46.18.46.18l-.502.195-.306.084s.69-.047.96.055c.278.106.78.376.78.376l-.863.056-.306.027s.855.084 1.182.237c.15.07.431.348.431.348l-.347.041h-.334s.54.126.737.25c.137.088.417.307.417.307l-.793-.028-.208-.014.473.181s.562.095.75.237c.133.099.307.459.307.459l-.71-.167.43.347" stroke="#1A1A1A" stroke-width=".254"/><path fill-rule="evenodd" clip-rule="evenodd" d="m23.87 20.903.074 10.894s-1.12-.074-1.45-.223c-.317-.144-.632-.706-.632-.706V20.456l2.008.447Z" fill="#FC0" stroke="#1A1A1A" stroke-width=".254"/><path fill-rule="evenodd" clip-rule="evenodd" d="M30.341 19.676s-.476.703-.297 1.004c.08.136.097.393.416.592.383.24.81.56.81.56l-7.585.037s-.68-.123-1.145-.42c-.404-.256-.517-.532-.64-.767-.13-.246.012-.486.27-.646.32-.197.79-.286.79-.286l7.381-.074Z" fill="#fff" stroke="#1A1A1A" stroke-width=".254"/><path d="M31.457 21.87h-7.548v9.89h7.548v-9.89Z" fill="#D4AA00" stroke="#1A1A1A" stroke-width=".254"/><path d="M30.156 20.79H26.6M30.168 20.282H27.12M27.096 21.298h3.302" stroke="#1A1A1A" stroke-width=".229"/><path d="M23.3 21.806v9.904" stroke="#1A1A1A" stroke-width=".203"/><path d="M22.792 21.55v10.158M22.284 21.3V31.46" stroke="#1A1A1A" stroke-width=".206"/><path fill-rule="evenodd" clip-rule="evenodd" d="m23.903 26.368-.02 1.519s-.82-.078-1.122-.252c-.302-.175-.893-.913-.893-.913V24.93s.599.833.904 1.05c.305.215 1.131.388 1.131.388Z" fill="#FC0" stroke="#1A1A1A" stroke-width=".203"/><path d="M21.848 25.974s.602.671.894.837c.312.178 1.154.346 1.154.346" stroke="#1A1A1A" stroke-width=".254"/><path fill-rule="evenodd" clip-rule="evenodd" d="m23.884 29.378-.021 1.518s-.82-.077-1.121-.252c-.302-.174-.894-.912-.894-.912v-1.793s.599.834.904 1.05c.306.215 1.132.389 1.132.389Z" fill="#FC0" stroke="#1A1A1A" stroke-width=".203"/><path d="M21.829 28.984s.601.67.893.837c.312.178 1.154.345 1.154.345" stroke="#1A1A1A" stroke-width=".254"/><path fill-rule="evenodd" clip-rule="evenodd" d="m23.884 23.206-.021 1.518s-.82-.078-1.121-.252c-.302-.175-.894-.913-.894-.913v-1.792s.599.833.904 1.05c.306.215 1.132.389 1.132.389Z" fill="#FC0" stroke="#1A1A1A" stroke-width=".203"/><path d="M21.829 22.811s.601.671.893.838c.312.177 1.154.345 1.154.345" stroke="#1A1A1A" stroke-width=".254"/><path d="M30.485 22.973h-5.607v7.684h5.607v-7.684Z" fill="#D4AA00" stroke="#1A1A1A" stroke-width=".254"/><path d="m25.84 23.016-.947 1.105M29.534 23.016l.947 1.105M25.846 30.617l-.947-1.105M29.54 30.617l.947-1.105" stroke="#1A1A1A" stroke-width=".254"/><path d="M27.755 24.753h-.14v4.124h.14v-4.124Z" fill="#000" stroke="#1A1A1A" stroke-width=".203"/><path d="M28.346 25.427h-1.318v.172h1.318v-.172Z" fill="#000" stroke="#1A1A1A" stroke-width=".203"/><path d="M28.7 26.412h-2.027v.145h2.026v-.145Z" fill="#000" stroke="#1A1A1A" stroke-width=".231"/><path d="m28.304 27.967-1.153-.638-.083.151 1.152.638.084-.15Z" fill="#000" stroke="#1A1A1A" stroke-width=".203"/></svg>