<svg width="54" height="64" fill="none" xmlns="http://www.w3.org/2000/svg"><path fill-rule="evenodd" clip-rule="evenodd" d="M27.213 0H.602v52.234H19.02c.22-.385.495-.825 1.1-1.265.33-2.09.44-4.234.33-6.543l-.44-6.158c-3.41-3.189-5.444-6.598-5.938-10.722-.165-1.374-.605-2.584-1.265-3.628-.77.055-1.54.165-2.364.055l-.935.604c-.77.44-1.265.22-1.705-.11-.88-.77-.55-1.704.385-2.364.715-.495 1.32-1.1 1.76-1.98.55-.989 1.594-1.759 2.474-2.584.825-1.21 1.21-2.914 1.375-4.288.055-.33.384-.165.384-.165l-.11 1.76c.77-.495 1.595-1.32 2.255-2.035.385-.495.495-1.045.495-1.54l.384-.165-.055 1.54c1.045-.055 1.705-.605 2.145-1.65l.33.165c0 .825-.605 1.375-1.65 1.98-.055.33.055.77.055 1.1 1.21 0 2.2-.495 2.64-1.595l.22.11-.056.44c.165 0 .275-.11.44-.33l.55-1.045.275.11c-.22.77-.605 1.54-1.705 2.145-.66.44-1.484.77-2.474 1.044-1.21.33-1.98 1.265-2.804 2.585-.165.494.055.66.55.44.66-1.155 1.484-1.65 2.53-1.54 0 1.21-.88 2.034-1.87 2.914l3.629 6.928c.88 1.044 1.924 1.54 3.244 1.264l4.123-.275 10.887-.824c1.21 0 2.254.44 3.299.99.825.44 1.374 1.209 1.87 1.979.55.99.714 2.09.824 3.299l-.66.44c-.495 1.044-.88 2.144-.99 3.408 0 .99.276 1.98 1.1 2.97a6.461 6.461 0 0 0 2.2 2.199c.33.99.33 1.924-.11 2.914l.274 6.873-.77.33v.22h8.578V0H27.213Zm-6.488 52.234.55-.77.33-.055.055-2.144c.44-2.145.715-4.124.825-6.378l.33-.055.385 1.484c-.055.88.44 2.145.99 2.804l.66 5.114h-4.125Zm5.884 0-.165-.495-.88-4.894v-.275c.275-.824.165-1.814-.385-2.694l-.055-.55.11-5.223c3.464.055 7.148-.33 10.337-1.21.055 1.375.88 2.42 1.98 3.3 1.539 1.814 2.143 4.068 1.649 6.817-.275 1.815-.88 3.52-1.98 4.949l-.165.275H26.61Zm11.656 0v-.055l.77-.165.495-1.815c.604-2.254 1.21-4.233 1.924-5.663.44-.99.385-1.21-.165-2.034l-.385-1.485c1.485.935 2.694 2.2 3.684 3.684l-.055 5.663c-.495.55-.88 1.21-1.155 1.87h-5.113ZM17.646 13.36c0-.275 0-.22-.055-.275-.055-.055-.165.055-.22.055-1.484 1.374-3.133 2.749-3.903 4.399.055.22.165.22.385.055.824-1.485 1.924-2.64 3.409-3.41.11-.274.22-.55.384-.824Z" fill="#0293DE"/><path fill-rule="evenodd" clip-rule="evenodd" d="M.602 52.674H18.8c-.55.824-1.265 1.374-1.76 2.254l1.54.165.66-.55h.99c.164-.605.055-1.265.164-1.87h4.509l.055.166c-.385.44-.55.99-.44 1.814l-1.374 1.814 1.979-.055c.55.055.935-.11 1.045-.44l.11-1.759c.824-.605.66-1.154.494-1.54h9.952l-.99 1.265 1.98.11.385-1.374h5.113c-.11.494-.22.99-.22 1.484h2.09l.11-1.484h8.632v.165c-.22 4.948-3.354 6.268-9.732 5.828l-8.357.055c-4.179.77-7.588 2.694-8.523 5.278-.934-2.584-4.343-4.508-8.522-5.278l-8.357-.055c-6.378.44-9.512-.88-9.732-5.828v-.165Z" fill="#009846"/><path fill-rule="evenodd" clip-rule="evenodd" d="M10.553 22.873v.055c.605 0 1.1-.055 1.704-.11.99-.165.99-.44 1.705-1.54l.11-.384.385-.055c.055 0 .11 0 .165-.055 0-.11.055-.165.055-.22v-.165l-.055-.22c-.495-.605-.385-.66-.22-.935l.275-.165c-.165-.055-.275.055-.385.055-.88.605.77 1.265-.495 1.32-.44 2.089-1.87 2.144-3.244 2.419Zm33.704 20.124c.275.33.55.714.825 1.044-.055-.44-.275-.88-.55-1.264-.165-.22-.44-.44-.66-.715-.22-.275-.44-.605-.714-.935-.33-.495-.605-.99-.88-1.484a5.543 5.543 0 0 1-.385-.825c-.11-.22-.22-.495-.33-.77l-.165-.825-.11-.55c-.055-.274-.055-.494-.055-.77v-.549l.055-.495c.055-.33.165-.605.22-.934l.165-.77c.11-.33.165-.715.22-1.1V30.516l-.055-.275-.055-.275-.11-.22-.11-.22-.11-.22-.11-.22-.165-.165-.165-.22-.165-.165-.22-.165-.275-.11-.22-.165-.33-.11-.274-.11-.385-.11-.385-.055-.385-.055-.44-.054-.44-.055L37 27.49h-.275c1.924.88 4.948.385 4.123 5.389-.824 5.608.495 6.598 3.41 10.117ZM24.08 33.76c.165-.55.44-.715.714-.605.165.055.22.055.33.385 0 .385 0 .88.055 1.1 0 .22.11.164.22.11.055-.056.055-.22.055-.88.55.11.77.11 1.045.44.165.22.275.494.495.714.055.055.055.11.11.165.165.165.275.22.44.275.274.055.714.055.934-.165.165-.165.33-.385.385-.605.605.385.99.165 1.76.11.11.11.22.22.384.275.22.11.55 0 .77-.055.77-.275 1.705-.66 2.475-.935 0-.11.054-1.43.054-1.43.11.11.22-.054.33.056.055-.055.22 0 .33 0 .055.165.22.385.275.605-.33-1.1-.385-2.255-.33-3.3-.22-.44-.275-.33-.55-.164 0 .275-.11.605-.11.88-.44 2.584-1.044 3.518-2.474.88-.66-.386-1.1-.22-.99.659 0 .66-.604.715-.934.275l-1.815-2.31c-.77 2.2-1.924 1.32-2.804-.22-.33-.274-.66-.22-.99.11-.164.495-.054 1.595.166 2.255-.33.495-.715.495-.66 1.76.22 1.704.275 2.748-.11 4.288-.495 2.09.055 4.399.22 5.223v.77l.11-.22.385-.825c-.055-.11-.165-.22-.22-.33-.055-.11-.11-.22-.165-.384-.055-.165-.11-.275-.11-.44-.055-.165-.055-.33-.055-.495-.055-.385 0-.715 0-1.045l.055-.384c.22-.88.495-1.705.604-2.64 0-.494 0-.934-.054-1.374-.165-.99-.33-1.87-.33-2.53ZM18.8 30.13c-1.594.495-2.969-1.429-3.574-1.924.055.22 0 .495.605 1.155 1.32 1.65 1.925 2.144 1.595 3.739.55-.055.605-.165 1.154-.22-.934-1.1.11-2.365.22-2.75Zm2.914-.22c.055-.33.275-.66.605-.934.715-.33 2.584-.66 2.694-.66-.11-.055-1.1.11-2.639.22h-.385c-.275-.055-.55 0-.77-.055a8.568 8.568 0 0 0-.33-.275c0 .11 0 .165-.054.275l-.055.495-.495.055-.22-.165c-.165-.055-.275-.165-.385-.275-.055-.055-.165-.165-.22-.275a.886.886 0 0 1-.22-.385v-.11l-.055-.11v-.11c-.055-.22.055-.55.055-.77-1.1-1.924-1.98-3.848-2.914-5.662-.22-.11-.33-.33-.495-.495l-.055.165c-.055.22 0 .055-.165.22.935.384 1.32 2.254 2.09 3.793.33 1.155.275 2.64.88 2.86l1.374 1.539c.22.605.495.715.66.88l.055-.715c.11-.275.275-.275.385-.11l.66.605Zm-1.374 1.87c-.55-.055-.165 1.485-.385 2.254.22.22.495.33.77.22-.11-.714-.275-1.704-.385-2.474Z" fill="#D9DADA"/><path fill-rule="evenodd" clip-rule="evenodd" d="M19.076 14.515c.715-.275 1.21-.55 1.594-.88l-.22-.054c-.275.22-.77.494-1.43.714l-1.429.275s.11-.385-.055-.33c-.055 0-.275.385-.33.385-.77.33-2.309 1.375-2.969 3.08-.44.274-1.044.384-1.1-.056l-.33-.055-.11.165-.714.66c-.55.44-1.045.935-1.54 1.65-.11.165-.22.384-.33.55l-.44.66c-.33.44-.77.824-1.264 1.099-.44.33-.935.77-.66 1.43l.11.11c0 .054.055.11.055.11l.275.11c.22.054.825-.166 1.21-.716.165-.164.22-.164.605-.22l.165.056c.934.22 2.419.055 3.243-.33.715-.44.77-1.1.935-1.65.99-.055.88-1.54.22-1.65-.165-.054.055-.11.11-.164.11 0 .88-.11.88-.055l.33.055c.55-.495 1.154-1.045 1.54-1.65l.11-.165c.11-.22.22-.44.274-.66-.33 0-.605.11-.88.276-.22.11-.384.274-.495.44-.164.164-.274.33-.384.55l-.11.22c-.165.274-.44.274-.715.274h-.275l-.22-.11-.165-.22-.275-.055.385-.55.275-.44c.22-.384.275-.55.55-.934.22-.275.44-.495.66-.77.22-.165.385-.275.604-.44l.33-.165c.22-.11.495-.165.715-.275l1.265-.275Zm-8.523 8.358v.055c.605 0 1.1-.055 1.705-.11.99-.165.99-.44 1.704-1.54l.11-.385.385-.055c.055 0 .11 0 .165-.055 0-.11.055-.165.055-.22v-.165l-.055-.22c-.495-.604-.385-.66-.22-.934l.275-.165c-.165-.055-.275.055-.385.055-.88.605.77 1.264-.495 1.32-.44 2.089-1.869 2.144-3.244 2.419Zm33.705 20.123c.275.33.55.715.825 1.045-.055-.44-.275-.88-.55-1.264-.165-.22-.44-.44-.66-.715-.22-.275-.44-.605-.715-.935-.33-.495-.605-.99-.88-1.485-.164-.275-.274-.55-.384-.824-.11-.22-.22-.495-.33-.77l-.165-.825-.11-.55c-.055-.275-.055-.495-.055-.77v-.55l.055-.494c.055-.33.165-.605.22-.935l.165-.77c.11-.33.165-.714.22-1.1V30.516l-.055-.275-.055-.274-.11-.22-.11-.22-.11-.22-.11-.22-.165-.165-.165-.22-.165-.165-.22-.165-.275-.11-.22-.165-.33-.11-.275-.11-.385-.11-.384-.055-.385-.055-.44-.055-.44-.055-.495-.055h-.275c1.925.88 4.949.385 4.124 5.389-.825 5.608.495 6.597 3.409 10.116ZM24.079 33.76c.165-.55.44-.715.715-.605.165.055.22.055.33.385 0 .385 0 .88.055 1.1 0 .22.11.165.22.11.055-.055.055-.22.055-.88.55.11.77.11 1.044.44.165.22.275.495.495.715.055.055.055.11.11.165.165.165.275.22.44.275.275.055.715.055.935-.165.165-.165.33-.385.385-.605.604.385.99.165 1.76.11.109.11.219.22.384.275.22.11.55 0 .77-.055.77-.275 1.704-.66 2.474-.935 0-.11.055-1.43.055-1.43.11.11.22-.054.33.056.055-.055.22 0 .33 0 .055.165.22.384.275.604-.33-1.1-.385-2.254-.33-3.299-.22-.44-.275-.33-.55-.165 0 .275-.11.605-.11.88-.44 2.584-1.045 3.52-2.474.88-.66-.385-1.1-.22-.99.66 0 .66-.605.715-.935.275l-1.814-2.31c-.77 2.2-1.925 1.32-2.804-.22-.33-.274-.66-.22-.99.11-.165.495-.055 1.595.165 2.255-.33.495-.715.495-.66 1.76.22 1.704.275 2.748-.11 4.288-.495 2.09.055 4.398.22 5.223v.77l.11-.22.385-.825c-.055-.11-.165-.22-.22-.33a2.68 2.68 0 0 1-.165-.385c-.055-.164-.11-.274-.11-.44-.055-.164-.055-.33-.055-.494-.055-.385 0-.715 0-1.045l.055-.385c.22-.88.495-1.704.605-2.639 0-.495 0-.935-.055-1.374-.165-.99-.33-1.87-.33-2.53Zm-5.278-3.629c-1.595.495-2.97-1.43-3.574-1.924.055.22 0 .495.605 1.155 1.32 1.65 1.924 2.144 1.594 3.738.55-.054.605-.164 1.155-.22-.935-1.1.11-2.364.22-2.749Zm2.914-.22c.055-.33.275-.66.605-.934.715-.33 2.584-.66 2.694-.66-.11-.055-1.1.11-2.64.22h-.384c-.275-.055-.55 0-.77-.055-.055-.055-.33-.275-.33-.275 0 .11 0 .165-.055.275l-.055.495-.495.055-.22-.165c-.165-.055-.274-.165-.385-.275a1.199 1.199 0 0 1-.22-.275.885.885 0 0 1-.22-.385v-.11l-.054-.11v-.11c-.055-.22.055-.55.055-.77-1.1-1.924-1.98-3.848-2.914-5.663-.22-.11-.33-.33-.495-.495l-.055.165c-.055.22 0 .055-.165.22.935.385 1.32 2.255 2.09 3.794.329 1.155.274 2.64.879 2.86l1.374 1.539c.22.604.495.714.66.88l.055-.715c.11-.275.275-.275.385-.11l.66.604Zm-1.375 1.87c-.55-.055-.165 1.484-.385 2.254.22.22.495.33.77.22-.11-.715-.275-1.704-.385-2.474Zm-7.147-14.515c.165-.11.55-1.265.824-1.485l2.86-2.53-.11-.22-.055-.274c-.11.165-.22.495-.33.605a23.06 23.06 0 0 0-1.76 1.594l-.66.385h-.22l-.824 1.814.275.11Zm-4.949 7.037c.66.055.935-.33.935-.44-.22.165-.55.33-.935.44Zm5.114-.165c.274.44.44.88.604 1.32.165.495.33.99.385 1.484.11.44.165.88.22 1.32.055.33.165.715.22 1.1.11.33.22.66.33 1.044.11.33.22.66.385 1.045.11.33.275.66.44.99.165.33.33.66.55.934.165.33.384.66.604.99.165.275.385.55.605.825.22-.055.495-.11.605-.385-.11-.66-.385-.88-.66-1.375.22-.055.77-.275.99-.275.055.495 0 1.155.44 1.65.275.275.825.33.88-.055v-.55c.274.275.494.33.824.22-.44.495.055 2.364 1.375 3.684.385 2.584.605 3.574 1.32 5.608 0 1.32.164 2.255.824 2.584 0 0 .11 0 .11.055.33.055.33-.055.33-.11-.66-.66-.77-1.264-.385-1.814l.385-1.1-.11-.22c-.825-1.044-.44-3.079.22-5.388 0-1.594-.165-2.75-.495-3.409-.11-.495.11-.66.495-.66l.11 1.21c.165.275.385.275.66-.055v-.55c.275-.055.494.055.605.33.384.66.77 1.265 1.484 1.265.605.055 1.155-.055 1.32-.825.22.165.77.11 1.43.055.274.22.659.44 1.484.165l2.474-.825.055-1.484h.385c-.165-.99.77 5.223 5.498 7.257.385.275.825.55 1.21.77.44.33.88.715 1.264 1.1.275.22.495.44.715.715.495.494.88 1.044 1.265 1.594l.165.22.384.165.165-.33c0-.825-.44-1.65-.934-2.2-2.09-2.199-3.52-5.333-2.804-7.752 1.21-4.508.604-7.368-5.334-7.368l-9.127.66-4.069.33c-.274.055-.494.11-.77.11-.164-.055-.33-.055-.55-.055-.22-.055-.439-.11-.659-.22-.88-.385-.935.55-.715.77-.605-.165-1.044-.88-.934-1.155-.165-.11.11-.77 0-.88l-3.024-5.773c-.495-.275-.495-.824-1.045-.715-.165.715-.275.935-.495.99-.55.33-.935 1.045-.715 2.035-.44.165-.715.494-.99.934ZM24.629 47.01v.055l.55 3.959.055.11.605-.11v-.44l-.605-3.574h-.605Zm.77 5.443-.055.495c-.11.11-.165.22-.22.33-.11.165-.165.33-.22.55-.055.11-.055.22-.055.385 0 .055.165-.055.165 0l.495.055c0-.22 0-.275.275-.33l.44-.165.11-.11.11-.11.054-.11V53.003l-.055-.165c-.11-.165-.165-.33-.22-.495v-.055l-.824.165Zm-.55 2.31-.935 1.32 1.32-.056c.165 0 .44 0 .55-.165l-.275-.824c-.055-.055-.055-.11-.11-.275h-.55Zm19.739-3.574-.33.33c-.33.385-.165.165-.385.605l.99.33v-.66l.055-.55-.33-.055Zm-.99 1.594a5.23 5.23 0 0 0-.22.99h1.375v-.55l-1.155-.44Zm-5.168-1.979a.887.887 0 0 0-.22.385c-.055.11-.275.33-.385.495l.495.055.385-.055c.11-.22.165-.44.22-.66l-.495-.22Zm-1.32 1.87-.66.934.99.055.22-.825-.55-.165ZM20.835 40.576c0 .66-.33 1.265.11 1.925l.44.55c-.055.44-.33.714-.33 1.209-.055.55.11 1.155.275 1.594l.11-.22c-.11-.604-.055-1.154.22-1.594.385-.22.385-.715.385-1.21-1.155-.22-.99-1.594-1.045-2.144-.055-.33.055-.055-.165-.11Zm.33 6.323-.55 2.97.055.274c.275-.495.495-.99.605-1.43L21.33 48v-1.1h-.165Zm-1.264 5.059c-.055.055-.166-.055-.22 0-.11.165 0-.055-.11.165-.165.22-.275.44-.385.66-.165.22-.33.494-.55.714-.275.385-.66.715-.935 1.1l.77.11.55-.55h.88c0-.385-.11-.77.054-1.155.055-.165-.11-.22-.11-.385l.165-.66h-.11Zm-7.533-32.055-.55.11c-.33-.055-.605.165-.66.55l-.33.494.055.055.44-.165c.605.11.88-.33.825-.55l.275-.384-.055-.11ZM25.014 44.48c-.33-.11-.495 0-.495.385.385.275.495.715.385 1.264.11.22.275.165.44.055.22-.604.22-1.154-.33-1.704Z" fill="#fff" stroke="#fff" stroke-width=".055"/></svg>