<svg width="53" height="64" fill="none" xmlns="http://www.w3.org/2000/svg"><g clip-path="url(#a)"><path clip-rule="evenodd" d="M1.023.157H51.93v52.915c0 3.68-3.434 6.71-7.632 6.71H30.562c-2.245 0-4.04 1.997-4.063 4.218 0-1.997-1.593-4.219-4.062-4.219H8.655c-4.198 0-7.632-3.03-7.632-6.71V.158Z" stroke="#2B2A29" stroke-width=".611"/><path fill-rule="evenodd" clip-rule="evenodd" d="M1.023.157H51.93v52.915c0 3.68-3.434 6.71-7.632 6.71H30.562c-2.245 0-4.04 1.997-4.063 4.218 0-1.997-1.593-4.219-4.062-4.219H8.655c-4.198 0-7.632-3.03-7.632-6.71V.158Z" fill="#008DD2"/><path d="M51.93 48.987H1.024" stroke="#FAD907" stroke-width=".245"/><path fill-rule="evenodd" clip-rule="evenodd" d="M51.93 48.987H1.024V.157H51.93v48.83Z" fill="#01AAE0"/><path d="M51.93 48.987H1.024" stroke="#01AAE0" stroke-width=".245"/><path fill-rule="evenodd" clip-rule="evenodd" d="M51.93 48.987H1.024v4.085c0 3.68 3.434 6.71 7.632 6.71h13.782c2.469 0 4.062 2.221 4.062 4.218.023-2.221 1.819-4.219 4.063-4.219H44.3c4.198 0 7.632-3.03 7.632-6.71v-4.084Z" fill="#01AAE0"/><path d="M51.93 52.443c-6.823-2.064-15.487-3.32-24.914-3.32-9.922 0-19.012 1.39-25.993 3.657" stroke="#2B2A29" stroke-width=".245"/><path fill-rule="evenodd" clip-rule="evenodd" d="M27.016 49.122c9.427 0 18.091 1.257 24.915 3.321v.629c0 3.68-3.434 6.71-7.632 6.71H30.562c-2.245 0-4.04 1.997-4.063 4.218 0-1.997-1.593-4.219-4.062-4.219H8.655c-4.198 0-7.632-3.03-7.632-6.71v-.291c6.98-2.267 16.071-3.658 25.993-3.658Z" fill="#FCDD07"/><path d="M49.081 58.278c-6.532-1.683-14.118-2.67-22.199-2.67-8.328 0-16.117 1.032-22.783 2.827" stroke="#2B2A29" stroke-width=".245"/><path fill-rule="evenodd" clip-rule="evenodd" d="M26.88 55.607c8.08 0 15.668.988 22.2 2.67-1.302.943-2.964 1.504-4.782 1.504H30.561c-2.244 0-4.04 1.998-4.063 4.22 0-1.998-1.593-4.22-4.062-4.22H8.654c-1.706 0-3.278-.493-4.557-1.346 6.667-1.795 14.455-2.828 22.783-2.828Z" fill="#252725"/><path clip-rule="evenodd" d="M23.85 12.881v-.965c-.494-.494-.786-.987-.943-1.75-.157-1.077-.09-1.795.404-2.424.696-.808 1.683-1.077 2.626-1.01.112-.157.18-.224.471-.314v-.74h-.359v-.45h.337v-.403h.516v.404h.382v.449h-.36v.74c.27.068.315.18.495.427 1.414-.292 2.536.605 2.805 1.077.494.74.494 1.548.314 2.468-.112.606-.448 1.055-.808 1.571v.92h-5.88Z" stroke="#2B2A29" stroke-width=".093"/><path fill-rule="evenodd" clip-rule="evenodd" d="M23.85 12.881v-.965c-.494-.494-.786-.987-.943-1.75-.157-1.077-.09-1.795.404-2.424.696-.808 1.683-1.077 2.626-1.01.112-.157.18-.224.471-.314v-.74h-.359v-.45h.337v-.403h.516v.404h.382v.449h-.36v.74c.27.068.315.18.495.427 1.414-.292 2.536.605 2.805 1.077.494.74.494 1.548.314 2.468-.112.606-.448 1.055-.808 1.571v.92h-5.88Z" fill="#2B2A29"/><path clip-rule="evenodd" d="M26.41 6.575v-.898h-.36V5.23h.337v-.404h.516v.404h.382v.448h-.36v.898h-.516Z" stroke="#2B2A29" stroke-width=".245"/><path fill-rule="evenodd" clip-rule="evenodd" d="M26.41 6.575v-.898h-.36V5.23h.337v-.404h.516v.404h.382v.448h-.36v.898h-.516ZM25.625 9.65c.18-.023.336-.023.494-.023-.158-.965-.292-1.773-.562-2.715-.291 0-.583.045-.897.157.404.898.695 1.616.965 2.58ZM27.755 9.65c-.157-.023-.314-.023-.494-.023.157-.965.292-1.75.561-2.693.292 0 .606.045.898.135-.404.897-.696 1.615-.965 2.58Z" fill="#FFED00"/><path fill-rule="evenodd" clip-rule="evenodd" d="M26.635 7.63c.404 0 .74-.27.74-.584 0-.336-.336-.606-.74-.606-.404 0-.741.27-.741.606 0 .314.337.584.74.584ZM24.007 12.028c.92-.471 1.661-.763 2.716-.763 1.37.023 2.065.36 2.85.673v.875h-.268c-.629-.359-1.482-.628-2.514-.673-.966.023-1.729.27-2.402.673h-.382v-.785Z" fill="#FFED00"/><path fill-rule="evenodd" clip-rule="evenodd" d="M24.792 12.813c.606-.269 1.033-.448 1.886-.47 1.1 0 1.593.291 2.222.47h-4.108ZM24.479 7.181c.404.808.696 1.593.965 2.446.112.292-.157.36-.09.65.023.113.225.136.157.27a.754.754 0 0 1-.359.225c-.359.022-.449-.27-.696-.27-.202-.022-.336.314-.56.404a.811.811 0 0 1-.472.09c-.337-.471-.404-1.055-.427-1.548 0-.472.068-.988.225-1.302.337-.56.83-.875 1.257-.965ZM28.946 7.181c-.404.808-.695 1.593-.965 2.446-.112.292.157.36.09.65-.022.113-.225.136-.135.27a.69.69 0 0 0 .337.225c.36.022.449-.27.696-.27.202-.022.336.314.561.404a.811.811 0 0 0 .471.09c.337-.471.404-1.055.427-1.548-.068-.808-.157-.988-.314-1.302-.36-.56-.764-.808-1.168-.965Z" fill="#FFED00"/><path d="M23.896 7.652c.337.83.606 1.706.763 2.648M23.357 8.595c.426.628.583.942.785 1.885" stroke="#2B2A29" stroke-width=".093"/><path d="M23.267 8.954c.426-.629.65-.786 1.37-1.1M23.806 10.48c.471-.561.673-.651 1.212-.876M23.378 9.896c.427-.628.764-.897 1.437-1.279M29.507 7.652c-.337.83-.651 1.706-.808 2.648M30.068 8.595c-.449.628-.628.942-.83 1.885" stroke="#2B2A29" stroke-width=".093"/><path d="M30.159 8.954c-.45-.629-.674-.786-1.437-1.1M29.597 10.48c-.471-.561-.718-.651-1.28-.876M30.046 9.896c-.449-.628-.808-.897-1.504-1.279" stroke="#2B2A29" stroke-width=".093"/><path fill-rule="evenodd" clip-rule="evenodd" d="M26.005 7.742c.09.36.202.718.292 1.077.27-.157.561-.202.853 0 .045-.381.09-.718.157-1.077-.359.247-.673.449-1.302 0Z" fill="#FFED00"/><path clip-rule="evenodd" d="M26.68 8.168c.157 0 .27.068.27.158s-.113.157-.27.157c-.135 0-.247-.068-.247-.157 0-.09.112-.158.247-.158Z" stroke="#2B2A29" stroke-width=".093"/><path fill-rule="evenodd" clip-rule="evenodd" d="M26.68 8.168c.157 0 .27.068.27.158s-.113.157-.27.157c-.135 0-.247-.068-.247-.157 0-.09.112-.158.247-.158ZM26.386 9.762v-.808c.135-.314.606-.225.651 0v.808c.067.157.606.022.673.246.045.427-.09.472-.247.54-.134.021-.157.089-.18.156 0 .09.383.067.607.09.157.022.337.112.516.112.315.045.517-.247.584-.224.157-.023.337.381.561.426.157.023.247-.09.314-.022.09.09.09.18.045.291-.09.18-.157.292-.292.404-2.85-1.167-3.591-.763-5.679 0-.18-.134-.404-.404-.404-.493-.044-.113.023-.157.09-.157.09 0 .225.044.314 0 .203-.09.337-.427.45-.427.179-.022.179.09.358.135.225.067.247.112.45.067.359-.224.852-.135.897-.18.023-.112-.18-.134-.224-.224-.202-.247-.202-.471-.135-.516.202-.135.561-.09.651-.224Z" fill="#FFED00"/><path clip-rule="evenodd" d="M26.723 10.098c.112 0 .224.135.224.292 0 .18-.112.314-.224.314s-.202-.135-.202-.314c0-.157.09-.292.202-.292Z" stroke="#2B2A29" stroke-width=".093"/><path fill-rule="evenodd" clip-rule="evenodd" d="M26.723 10.098c.112 0 .224.135.224.292 0 .18-.112.314-.224.314s-.202-.135-.202-.314c0-.157.09-.292.202-.292Z" fill="#FFED00"/><path clip-rule="evenodd" d="M23.626 13.105c0-.157-.314-.314-.516-.516-.898-.292-1.055-1.436-1.347-1.346-.36.134-.494.359-.427.628.045.112.741.718 1.168 1.234h1.122Z" stroke="#2B2A29" stroke-width=".22"/><path fill-rule="evenodd" clip-rule="evenodd" d="M23.626 13.105c0-.157-.314-.314-.516-.516-.898-.292-1.055-1.436-1.347-1.346-.36.134-.494.359-.427.628.045.112.741.718 1.168 1.234h1.122Z" fill="#FEFEFE"/><path clip-rule="evenodd" d="M21.763 11.243c-.36.134-.494.359-.427.628-.336.606-.92.36-1.01 1.234 0 .629.068.763.36 1.1.314.83.179 1.66 0 2.468-.203-.18-.382-.359-.562-.538l-.336.875c-.247-.292-.36-.584-.337-.875.112-.36.449-.83.359-1.055-.067-.539-.561-.718-.718-1.167-.112-.404-.135-.65-.023-.92.157-.404.584-.404.651-.583-.09-.45-.112-.92.135-1.28.27-.291.426-.605.785-.47.382.224.741.358 1.123.583Z" stroke="#2B2A29" stroke-width=".22"/><path fill-rule="evenodd" clip-rule="evenodd" d="M21.763 11.243c-.36.134-.494.359-.427.628-.336.606-.92.36-1.01 1.234 0 .629.068.763.36 1.1.314.83.179 1.66 0 2.468-.203-.18-.382-.359-.562-.538l-.336.875c-.247-.292-.36-.584-.337-.875.112-.36.449-.83.359-1.055-.067-.539-.561-.718-.718-1.167-.112-.404-.135-.65-.023-.92.157-.404.584-.404.651-.583-.09-.45-.112-.92.135-1.28.27-.291.426-.605.785-.47.382.224.741.358 1.123.583Z" fill="#FEFEFE"/><path clip-rule="evenodd" d="M29.933 13.105c0-.157.314-.314.516-.516.92-.292 1.055-1.436 1.347-1.346.382.134.516.359.426.628-.022.112-.74.718-1.167 1.234h-1.122Z" stroke="#2B2A29" stroke-width=".22"/><path fill-rule="evenodd" clip-rule="evenodd" d="M29.933 13.105c0-.157.314-.314.516-.516.92-.292 1.055-1.436 1.347-1.346.382.134.516.359.426.628-.022.112-.74.718-1.167 1.234h-1.122Z" fill="#FEFEFE"/><path clip-rule="evenodd" d="M31.796 11.243c.382.134.517.359.427.628.336.606.92.36 1.01 1.234 0 .629-.067.763-.36 1.1-.291.83-.156 1.66 0 2.468.203-.18.382-.359.562-.538.112.291.247.583.359.875.224-.292.337-.584.337-.875-.135-.36-.472-.83-.36-1.055.045-.539.54-.718.696-1.167.135-.404.135-.65.023-.92-.157-.404-.561-.404-.651-.583.09-.45.112-.92-.135-1.28-.27-.291-.404-.605-.785-.47-.36.224-.741.358-1.123.583Z" stroke="#2B2A29" stroke-width=".22"/><path fill-rule="evenodd" clip-rule="evenodd" d="M31.796 11.243c.382.134.517.359.427.628.336.606.92.36 1.01 1.234 0 .629-.067.763-.36 1.1-.291.83-.156 1.66 0 2.468.203-.18.382-.359.562-.538.112.291.247.583.359.875.224-.292.337-.584.337-.875-.135-.36-.472-.83-.36-1.055.045-.539.54-.718.696-1.167.135-.404.135-.65.023-.92-.157-.404-.561-.404-.651-.583.09-.45.112-.92-.135-1.28-.27-.291-.404-.605-.785-.47-.36.224-.741.358-1.123.583Z" fill="#FEFEFE"/><path clip-rule="evenodd" d="M22.19 13.105h9.204v1.077H22.19v-1.077Z" stroke="#2B2A29" stroke-width=".245"/><path fill-rule="evenodd" clip-rule="evenodd" d="M22.19 13.105h9.204v1.077H22.19v-1.077Z" fill="#FEFEFE"/><path clip-rule="evenodd" d="M23.019 15.08h7.587v-.65h-7.587v.65Z" stroke="#2B2A29" stroke-width=".245"/><path fill-rule="evenodd" clip-rule="evenodd" d="M23.019 15.08h7.587v-.65h-7.587v.65Z" fill="#FEFEFE"/><path clip-rule="evenodd" d="M23.357 15.91h6.98v-.56h-6.98v.56Z" stroke="#2B2A29" stroke-width=".245"/><path fill-rule="evenodd" clip-rule="evenodd" d="M23.357 15.91h6.98v-.56h-6.98v.56Z" fill="#FEFEFE"/><path clip-rule="evenodd" d="m22.394 39.473.965-23.563h6.98l1.213 23.563h-9.158Z" stroke="#2B2A29" stroke-width=".245"/><path fill-rule="evenodd" clip-rule="evenodd" d="m22.394 39.473.965-23.563h6.98l1.213 23.563h-9.158Z" fill="#FEFEFE"/><path clip-rule="evenodd" d="m23.357 38.104.538-20.892c.09-.292.629-.202.652.045l-.135 20.757c-.112.516-.988.606-1.055.09ZM25.31 38.014c.09-6.911.157-13.846.224-20.757.045-.404.898-.314.898 0 0 6.912.023 13.823.023 20.712-.09.629-1.1.651-1.145.045ZM27.486 38.059c-.09-6.912-.158-13.846-.225-20.78 0-.359.786-.381.808 0 .202 6.912.382 13.823.584 20.735.045.718-1.145.561-1.167.045ZM29.62 38.104c-.18-7.002-.382-14.003-.562-20.982-.022-.292.696-.292.696-.022.292 6.956.584 13.913.853 20.87-.022.515-.853.583-.987.134Z" stroke="#C5C6C6" stroke-width=".245"/><path clip-rule="evenodd" d="M22.257 40.123h9.45v-.65h-9.45v.65Z" stroke="#2B2A29" stroke-width=".245"/><path fill-rule="evenodd" clip-rule="evenodd" d="M22.257 40.123h9.45v-.65h-9.45v.65Z" fill="#FEFEFE"/><path clip-rule="evenodd" d="M21.245 41.694h11.583c0-.538-.135-1.48-1.235-1.503h-9.225c-.898.09-1.122.83-1.122 1.503Z" stroke="#2B2A29" stroke-width=".245"/><path fill-rule="evenodd" clip-rule="evenodd" d="M21.245 41.694h11.583c0-.538-.135-1.48-1.235-1.503h-9.225c-.898.09-1.122.83-1.122 1.503Z" fill="#FEFEFE"/><path clip-rule="evenodd" d="M21.245 44.657h11.583v-2.963H21.245v2.962Z" stroke="#2B2A29" stroke-width=".245"/><path fill-rule="evenodd" clip-rule="evenodd" d="M21.245 44.657h11.583v-2.963H21.245v2.962Z" fill="#FEFEFE"/><path clip-rule="evenodd" d="M20.774 42.368H33.39c.606 0 .65 1.548 0 1.548H20.774c-.696-.022-.65-1.503 0-1.548Z" stroke="#2B2A29" stroke-width=".245"/><path fill-rule="evenodd" clip-rule="evenodd" d="M20.774 42.368H33.39c.606 0 .65 1.548 0 1.548H20.774c-.696-.022-.65-1.503 0-1.548Z" fill="#FEFEFE"/><path clip-rule="evenodd" d="M21.404 51.68h11.223v-6.934H21.404v6.934Z" stroke="#2B2A29" stroke-width=".245"/><path fill-rule="evenodd" clip-rule="evenodd" d="M21.404 51.68h11.223v-6.934H21.404v6.934Z" fill="#FEFEFE"/><path clip-rule="evenodd" d="M23.626 45.6h6.846c.113.852.584 1.346 1.392 1.458v2.468c-.561.023-1.28.202-1.369 1.257h-6.936c-.067-.83-.494-1.257-1.302-1.28V46.99c.92-.09 1.392-.538 1.37-1.39Z" stroke="#C5C6C6" stroke-width=".245"/><path fill-rule="evenodd" clip-rule="evenodd" d="M22.57 45.689c-.157 0-.291.112-.291.269 0 .157.134.292.291.292.135 0 .27-.135.27-.292a.273.273 0 0 0-.27-.27ZM22.57 50.222c-.157 0-.291.112-.291.269 0 .157.134.292.291.292.135 0 .27-.135.27-.292a.273.273 0 0 0-.27-.27ZM31.505 45.689a.26.26 0 0 0-.27.269c0 .157.113.292.27.292.157 0 .27-.135.27-.292a.26.26 0 0 0-.27-.27ZM31.505 50.222a.26.26 0 0 0-.27.269c0 .157.113.292.27.292.157 0 .27-.135.27-.292a.26.26 0 0 0-.27-.27Z" fill="#C5C6C6"/><path clip-rule="evenodd" d="M20.956 52.331h12.099v-.516H20.956v.516Z" stroke="#2B2A29" stroke-width=".245"/><path fill-rule="evenodd" clip-rule="evenodd" d="M20.956 52.331h12.099v-.516H20.956v.516Z" fill="#FEFEFE"/><path clip-rule="evenodd" d="M19.721 53.767h14.545c0-.516-.202-1.189-.808-1.279H20.552c-.427.023-.876.651-.83 1.28Z" stroke="#2B2A29" stroke-width=".245"/><path fill-rule="evenodd" clip-rule="evenodd" d="M19.721 53.767h14.545c0-.516-.202-1.189-.808-1.279H20.552c-.427.023-.876.651-.83 1.28Z" fill="#FEFEFE"/><path clip-rule="evenodd" d="M18.892 54.44h16.274v-.538H18.892v.539Z" stroke="#2B2A29" stroke-width=".245"/><path fill-rule="evenodd" clip-rule="evenodd" d="M18.892 54.44h16.274v-.538H18.892v.539Z" fill="#FEFEFE"/><path clip-rule="evenodd" d="M18.037 56.101H35.97v-1.369H18.037v1.37Z" stroke="#2B2A29" stroke-width=".245"/><path fill-rule="evenodd" clip-rule="evenodd" d="M18.037 56.101H35.97v-1.369H18.037v1.37Z" fill="#2B2A29"/><path clip-rule="evenodd" d="M18.285 55.854h17.44v-1.279h-17.44v1.28Z" stroke="#2B2A29" stroke-width=".245"/><path fill-rule="evenodd" clip-rule="evenodd" d="M18.285 55.854h17.44v-1.279h-17.44v1.28Z" fill="#FEFEFE"/></g><defs><clipPath id="a"><path fill="#fff" transform="translate(.86)" d="M0 0h51.227v64H0z"/></clipPath></defs></svg>