<svg width="66" height="66" fill="none" xmlns="http://www.w3.org/2000/svg"><path d="M33.039 56.728c0-4.548 5.316-5.128 5.316-5.128H50.9s4.172-.739 4.172-5.635V1H10.976v44.95c0 4.897 4.172 5.636 4.172 5.636h12.545c.015.014 5.346.594 5.346 5.142Z" fill="#fff" stroke="#000" stroke-width=".29" stroke-miterlimit="10"/><path d="M4.124 10.271s.725.073 5.838-2.665c0 0-2.332 1.71-.637 8.46 0 0 2.086 8.807-.348 9.488l-4.244 2.1s.072-8.372-.55-9.59c-.059 0-1.87-4.896-.059-7.793Z" fill="#CD201A" stroke="#000" stroke-width=".051" stroke-miterlimit="10"/><path d="M4.242 10.286s-1 1.144-.826 4.128c0 0 .03 1.652.927 4.114 0 0 .29 2.057.261 3.071l.435-.275s.26-.377-.29-2.998c0 0-.435-1.391-.768-3.955 0 0-.275-2.564.826-4.26l-.565.175ZM9.79 7.722s-1.956 1.637-.682 7.59c0 0 .956 3.535 1 7.186 0 0 .16 2.955-1.463 3.114l-1.16.03s3.956.535.87-10.286c0 0-1.275-4.94.522-7.156l.912-.478Z" fill="#FCF43A"/><path d="m1.227 29.45 7.678-3.91s-1.884.767-1.435-2.13c0 0 .522-2.434-1.52-2.52a1.268 1.268 0 0 0-.624.13C3.82 21.947.604 24.047.532 24.163c-.015.015-1.043 1.637.695 5.288Z" fill="#B71515"/><path d="M5.037 21.396s1.188-.608 1.81.348c0 0 .32.739.117 1.666 0 0-.464 2 1.043 2.564l.666-.348s-1.651.42-1.231-2.26c0 0 .362-1.781-.768-2.303 0 0-1-.536-1.782.232l.145.101Z" fill="#FCF43A"/><path d="M5.341 21.034c-.434 2.318-.173 4.593 1.16 5.824 1.332 1.231 3.157 5.954 2.491 11.082-.666 5.142-.072 10.17.71 11.299.782 1.13 2.97 2.593 4.317 2.593h7.112s1.724.435 1.058 1.623l-.666 5.157h-5.607S5.4 58.467 3.531 49.862c0 0-.87-3.622.072-15.022 0 0 .174-.783-2.593-5.635 0 0-1.985-3.752-.101-5.433l4.432-2.738Z" fill="#CD201A" stroke="#000" stroke-width=".051" stroke-miterlimit="10"/><path d="M22.335 53.005s-.189 1.913-3.332.623c0 0-1.68-.941-2.564.493 0 0-.985 6.417-.87 6.924 0 0 3.97 1.68 5.81.493-.015-.015 1.245-7.548.956-8.533Z" fill="#B71515"/><path d="M16.41 54.396s.854-.97 2.491-.116c0 0 3.868 1.232 3.42-1.13 0 0-.334 1.753-3.347.522 0 0-1.637-.942-2.535.492l-.03.232ZM.894 23.787s-1.796 1.202-.029 5.099c0 0 .203.377.768 1.405.782 1.42 1.608 2.94 1.97 4.433 0 0-.623 6.939-.405 11.618 0 0 .029 3.172.695 4.824 0 0 1.883 6.62 11.69 7.388l.116-1S3.806 57.438 4.14 46.269c0 0-.29-4.664.305-10.618 0 0 .622-1.623-2.84-7.301 0 0-1.52-2.463-.188-4.925l-.522.362Z" fill="#FCF43A"/><path d="M5.298 21.092s-.912 3.94 1.275 5.882c0 0 2.332 2.491 2.52 8.46 0 0 .059 1.318-.26 3.549 0 0-.42 3.752.043 7.228 0 0 .044 1.536.71 2.912 0 0 1.304 2 3.955 2.68l.319.044h7.272s1.608.405 1.072 1.463c0 0-.174.42-.609.608l-.246.087s1.449-.97-.275-1.362l-7.243.073s-2.912-.189-5.085-3.173c0 0-1.304-1.347-.768-10.546 0 0 1.16-6.663-2.013-11.343 0 0-2.477-2.607-1.478-6.055l.811-.507Z" fill="#FCF43A"/><path d="M4.428 10.242c-1.1 1.97-.767 4.896-.536 5.751M3.894 15.993c.058.203.232 1.434.58 2.361M4.793 21.295c.029-.869-.015-1.912-.319-2.94M1.012 28.118c-.406-.941-1.174-2.433.028-4.389M3.966 34.695c-.363-2.506-1.782-4.288-2.941-6.591M3.95 34.68c.073.42.015.623 0 .812M3.965 35.492c-.42 4.693-.507 10.777-.218 12.994M3.748 48.486c.492 3.172 1.173 4.39 3.476 6.49" stroke="#CD201A" stroke-width=".145" stroke-miterlimit="10"/><path d="M7.181 54.947c1.825 1.405 4.216 2.97 8.46 3.128M16.482 54.237c.68-.754 1.637-.681 2.434-.305" stroke="#CD201A" stroke-width=".145" stroke-miterlimit="10"/><path d="M18.886 53.918c1.608.507 2.984.811 3.419-.478" stroke="#CD201A" stroke-width=".145" stroke-miterlimit="10"/><path d="M21.654 53.875c.811-.797.637-1.391-.492-1.695M21.162 52.165h-7.33M9.138 49.253c.797 1.406 2.897 2.825 4.694 2.898" stroke="#CD201A" stroke-width=".145" stroke-miterlimit="10"/><path d="M8.341 39.244c-.406 5.794.13 8.75.811 10.024M8.34 39.244c.652-3.738.362-7.446-1.231-10.46M7.138 28.828c-.231-.406-.507-1.13-1.289-1.97M4.849 21.411c-.609 2.448.26 4.65 1.014 5.461M5.37 21.15c.74-.275 1.71.044 1.84 1.072M7.224 22.193c.044.362.087.725.015 1.029" stroke="#CD201A" stroke-width=".145" stroke-miterlimit="10"/><path d="M7.24 23.178c-.377 1.58.246 2.521.985 2.622M9.18 8.07c-1.289 1.854-1.043 4.94-.55 6.967M8.615 14.994C9.6 18.789 9.658 19.6 9.832 21.7" stroke="#CD201A" stroke-width=".145" stroke-miterlimit="10"/><path d="M9.834 21.686c0 2.144-.102 3.303-1.391 3.854" stroke="#CD201A" stroke-width=".145" stroke-miterlimit="10"/><path d="M61.752 18.08c-.623 1.216-.55 9.589-.55 9.589-.232-.116-4.245-2.1-4.245-2.1-2.448-.681-.348-9.489-.348-9.489 1.68-6.75-.637-8.46-.637-8.46 5.1 2.738 5.838 2.666 5.838 2.666 1.767 2.882-.029 7.779-.058 7.793Z" fill="#CD201A" stroke="#000" stroke-width=".051" stroke-miterlimit="10"/><path d="M61.084 10.112c1.101 1.695.826 4.259.826 4.259-.319 2.564-.768 3.955-.768 3.955-.55 2.622-.29 2.998-.29 2.998l.435.275c-.03-1.014.26-3.07.26-3.07.899-2.463.928-4.115.928-4.115.173-2.984-.826-4.128-.826-4.128l-.565-.174ZM57.014 8.2c1.797 2.216.522 7.156.522 7.156-3.086 10.821.87 10.285.87 10.285l-1.16-.029c-1.622-.174-1.463-3.114-1.463-3.114.058-3.636 1-7.186 1-7.186 1.274-5.953-.681-7.59-.681-7.59l.912.478Z" fill="#FCF43A"/><path d="M65.359 24.164c-.073-.116-3.274-2.217-4.795-3.144a1.268 1.268 0 0 0-.623-.13c-2.043.087-1.521 2.52-1.521 2.52.45 2.898-1.434 2.13-1.434 2.13l7.678 3.911c1.738-3.65.695-5.273.695-5.287Z" fill="#B71515"/><path d="M60.997 21.295c-.782-.768-1.782-.232-1.782-.232-1.144.522-.767 2.304-.767 2.304.42 2.665-1.232 2.26-1.232 2.26l.667.347c1.506-.565 1.043-2.564 1.043-2.564-.203-.927.116-1.666.116-1.666.622-.956 1.81-.348 1.81-.348l.145-.1Z" fill="#FCF43A"/><path d="M65.01 23.772c1.883 1.666-.102 5.433-.102 5.433-2.766 4.852-2.593 5.635-2.593 5.635.942 11.386.073 15.022.073 15.022-1.869 8.605-12.386 8.75-12.386 8.75h-5.62l-.667-5.157c-.666-1.188 1.058-1.623 1.058-1.623h7.112c1.348 0 3.535-1.463 4.317-2.593.797-1.13 1.391-6.171.71-11.3-.666-5.127 1.159-9.85 2.492-11.081 1.332-1.232 1.593-3.491 1.159-5.824l4.447 2.738Z" fill="#CD201A" stroke="#000" stroke-width=".051" stroke-miterlimit="10"/><path d="M44.526 61.538c1.825 1.188 5.809-.493 5.809-.493.116-.492-.87-6.924-.87-6.924-.883-1.434-2.563-.493-2.563-.493-3.144 1.29-3.332-.623-3.332-.623-.304.985.97 8.518.956 8.533Z" fill="#B71515"/><path d="M32.952 65c6.91 0 10.14-.724 10.14-.724 4.723-.507 7.258-3.202 7.258-3.202.101-3.838-.87-6.924-.87-6.924s1.015 2.23-7.098 3.622c0 0-5.04.434-9.43.434s-9.43-.434-9.43-.434c-8.113-1.406-7.099-3.622-7.099-3.622s-.97 3.071-.87 6.924c0 0 2.536 2.695 7.258 3.202.015 0 3.23.724 10.14.724Z" fill="#CD201A" stroke="#000" stroke-width=".051" stroke-miterlimit="10"/><path d="M49.452 54.15c-.898-1.42-2.535-.493-2.535-.493-3.013 1.232-3.346-.521-3.346-.521-.45 2.361 3.419 1.13 3.419 1.13 1.637-.84 2.491.116 2.491.116l-.029-.232Z" fill="#FCF43A"/><path d="M32.937 58.25c-4.592 0-9.445-.435-9.445-.435s-6.924-1.029-7.142-3.332l-.231.985s-.826 1.883 7.3 3.23c0 0 4.347.493 9.533.479a92.436 92.436 0 0 0 9.532-.478c8.127-1.348 7.3-3.23 7.3-3.23l-.231-.986c-.232 2.303-7.142 3.332-7.142 3.332s-4.882.435-9.474.435ZM32.938 64.261c-2.55.087-5.998-.231-5.998-.231-1.289-.073-4.215-.638-4.215-.638s-4.795-.652-7.156-3.752l-.015 1.405s2.593 2.71 7.243 3.187c0 0 .58.13 1.623.261 0 0 3.52.464 8.518.464 4.997 0 8.518-.464 8.518-.464 1.043-.145 1.622-.26 1.622-.26 4.65-.479 7.243-3.188 7.243-3.188l-.014-1.405c-2.347 3.1-7.157 3.767-7.157 3.767s-2.926.565-4.215.637c0-.015-3.448.304-5.997.217ZM64.474 23.41c1.333 2.463-.188 4.925-.188 4.925-3.462 5.68-2.84 7.301-2.84 7.301.595 5.969.305 10.619.305 10.619.333 11.169-11.56 11.285-11.56 11.285l.116 1c9.807-.769 11.69-7.389 11.69-7.389.681-1.637.696-4.824.696-4.824.217-4.693-.406-11.618-.406-11.618.362-1.492 1.188-2.998 1.97-4.432.565-1.029.768-1.405.768-1.405 1.767-3.897-.03-5.1-.03-5.1l-.52-.362Z" fill="#FCF43A"/><path d="M61.433 21.585c1 3.433-1.478 6.055-1.478 6.055-3.187 4.68-2.013 11.343-2.013 11.343.536 9.199-.768 10.546-.768 10.546-2.158 2.984-5.085 3.172-5.085 3.172l-7.243-.072c-1.724.377-.275 1.361-.275 1.361l-.246-.086c-.435-.189-.609-.609-.609-.609-.536-1.057 1.072-1.463 1.072-1.463h7.258l.319-.043c2.65-.681 3.954-2.68 3.954-2.68.667-1.377.71-2.912.71-2.912.478-3.448.044-7.229.044-7.229-.32-2.245-.261-3.549-.261-3.549.188-5.954 2.52-8.46 2.52-8.46 2.173-1.926 1.275-5.881 1.275-5.881l.826.507Z" fill="#FCF43A"/><path d="M61.476 10.242c1.101 1.97.768 4.896.536 5.751M62.013 15.993c-.058.203-.232 1.434-.58 2.361M61.114 21.295c-.028-.869.015-1.912.32-2.94M64.88 28.118c.406-.941 1.173-2.433-.029-4.389M61.939 34.695c.362-2.506 1.782-4.288 2.94-6.591M61.955 34.68c-.072.42-.014.623 0 .812M61.939 35.492c.42 4.693.507 10.777.217 12.994M62.156 48.486c-.493 3.172-1.173 4.39-3.477 6.49" stroke="#CD201A" stroke-width=".145" stroke-miterlimit="10"/><path d="M58.708 54.947c-1.826 1.405-4.216 2.97-8.46 3.129M50.278 60.437c-1.029.985-2.854 2.491-6.026 3.23" stroke="#CD201A" stroke-width=".145" stroke-miterlimit="10"/><path d="M44.267 63.667c-.812.174-5.331 1.13-11.329.957-6.012.173-10.502-.783-11.328-.957h.03c-3.173-.738-4.999-2.245-6.027-3.23M49.64 55.106c-.435 1.55-2.984 2.564-7.258 3.129M49.423 54.237c-.68-.754-1.637-.681-2.433-.305M47.004 53.918c-1.608.507-2.984.811-3.419-.478" stroke="#CD201A" stroke-width=".145" stroke-miterlimit="10"/><path d="M42.413 58.235c-.681.101-4.202.464-9.474.464-5.273 0-8.794-.348-9.474-.464h.028c-4.258-.58-6.823-1.579-7.257-3.129M44.25 53.875c-.81-.797-.637-1.391.493-1.695M44.744 52.165h7.33M56.754 49.253c-.797 1.406-2.898 2.825-4.694 2.898" stroke="#CD201A" stroke-width=".145" stroke-miterlimit="10"/><path d="M57.551 39.244c.406 5.794-.13 8.75-.811 10.024M57.549 39.244c-.652-3.738-.362-7.446 1.231-10.46" stroke="#CD201A" stroke-width=".145" stroke-miterlimit="10"/><path d="M58.753 28.828c.232-.406.507-1.13 1.29-1.97M61.056 21.411c.609 2.448-.26 4.65-1.014 5.461M60.519 21.15c-.739-.275-1.71.044-1.84 1.072M58.666 22.193c-.043.362-.087.725-.014 1.029" stroke="#CD201A" stroke-width=".145" stroke-miterlimit="10"/><path d="M58.65 23.178c.377 1.58-.246 2.521-.984 2.622M56.709 8.07c1.289 1.854 1.042 4.94.55 6.967M57.275 14.994c-.985 3.795-1.043 4.606-1.217 6.707" stroke="#CD201A" stroke-width=".145" stroke-miterlimit="10"/><path d="M56.058 21.686c0 2.144.102 3.303 1.39 3.854" stroke="#CD201A" stroke-width=".145" stroke-miterlimit="10"/><path d="M28.203 12.546s-2.144-.174-2.955-1.811c0 0 1.477 1.159 2.607.956 0 0-2.317-2.999-3.969-4.245 0 0 2.086 1.463 2.434 1.695l-.565-3.07s-.927-1.305-.493-2.782c0 0 .116 2.071.623 2.086 0 0 .348-.174.696-1.854 0 0-.044 1.926-.45 2.491 0 0 .392.391 1.478-.869 0 0-.637 1.188-1.246 1.623l.03.593s.622 2.985 2.418 4.462c0 0 .783.594 2.275 0 0 0-.348-.405-.507-1.564 0 0 .71 1.1 1.26 1.434a.864.864 0 0 0 .16.087c.536.174 1.405.29 2.173-1.058 0 0-.957-1.405-.87-3.013 0 0 .754 2.434 1.478 2.608 0 0 .391.39 2.535-2.55 0 0 .145-1.854-.782-2.825 0 0 .825.956 1.231 1.666 0 0 .753-.174.42-2.998 0 0 .26 1.492.435 2.317 0 0 .608-.941.97-2.13 0 0-.333 4.767-7.518 9.243.058-.029-3.26-.391-3.868-.492Z" fill="#000"/><path d="M24.48 15.602s-.348-.782-.03-.84c.45-.072 2.246-.58 2.796-1.246 0 0 1.246-1.275 2.13-1.188 0 0 1.825.174 2.375.667 0 0 2.434-.044 2.927-.348 0 0 .449.348 0 .855 0 0-.594.883-2.695 1.057 0 0-.116 3.419-.666 4.91-.377 1.03-.782 4.115 1.608 4.636 0 0 3.419.537 4.81 0 1.375-.535 7.735-1.506 9.3 2.651 0 0 .535 1.319-.971.594 0 0-.87 2.608-.218 4.592 0 0-.173 2.463 3.52 3.709 0 0-.13 4.896 1.565 6.65v.622s-1.275 1.825-1.014 2.376h-1.39s1.245-2.1 1.506-2.52c0 0-.97-3.29-1.1-4.535 0 0-.827-1.565-1.696-1.825 0 0-3.332-.406-4.954-2.1 0 0-.087 2.331-1.608 4.113 0 0-.406.276-.594.826l-.13 4.592s-1.319.927-1.319 1.478h-1.694s1.694-2.13 1.868-2.188c0 0 1.014-4.114.97-4.997 0 0 .218-1.101-.347-1.826 0 0-2.883-2.52-2.926-4.157 0 0-2.564 1.188-5.128.594 0 0 .275 1.1-.406 1.912 0 0-.275 2.187-.13 2.608 0 0 .869 1.13-.015 2.071l-.087 3.882.435.174s-.927 1.347-.97 1.941h-1.377s.753-1.361 1.203-1.608l-.116-4.331s-.826-.42-.218-1.898c0 0 .03-1.492-.42-1.94 0 0-2.187-2.188-2.187-3.564 0 0-3.52.202-5.244-1.203 0 0 .029-.13-1.854-.029 0 0-.826 1.246-1.782 1.941 0 0-1.101 2.492-.927 3.578l-.725.928-1.376.275s1.014-1.912 1.376-2.753c0 0 1.478-4.027 2-4.766 0 0 .275-1.014 1.564-1.1 0 0 3.288-.348 3.839-.928 0 0 .377-.376.391-.898 0 0-1.173-1.52.492-4.679 0 0 2-2.216 2.97-4.737 0 0-.536-1.231-1.26-1.376 0 0-.811.072-1.854-.435l-.218-.217Z" fill="#CD201A" stroke="#9B1515" stroke-width=".145" stroke-miterlimit="10"/><path d="m16.483 37.143-1.377.26-.13 1.58 1.854-1.203-.13-.927-.217.29ZM28.768 45.284h1.376s.232.71.232.927h-1.941c-.03 0 .13-.695.333-.927ZM36.88 45.284s-.537.507-.537.928h2.086s0-.536.145-.928H36.88ZM49.903 45.284h-1.405s-.623.42-.666.927h2.1c-.029 0 .014-.637-.029-.927ZM28.927 13.53s-.391.29-.985.595c0 0-.116.086.029.246 0 0 .536.16 1.26 0 .015 0 .333-.783-.304-.84Z" fill="#000"/><path d="M36.472 32.102c.884-.71 3.13-1.347 4.447-1.188" stroke="#9B1515" stroke-width=".145" stroke-miterlimit="10"/><path d="M40.921 30.523c-.348 1.159.29 2.622 1.362 3.766M27.029 31.943c0-.42.043-.768.13-1.16M31.346 32.71c-.144-.608-.173-.768-.405-1.463" stroke="#9B1515" stroke-width=".145" stroke-miterlimit="10"/><path d="M24.625 29.147c.246 1.535 1.158 2.433 2.433 2.796M26.521 16.254c1.71.449 2.376 0 2.651-.26" stroke="#9B1515" stroke-width=".145" stroke-miterlimit="10"/><path d="M24.552 29.161s-1.028 1.362-1.144 2.303c0 0 1.202.42 3.23.42-.014 0-1.796-.579-2.086-2.723ZM36.764 32.942s3.52-.97 4.476.03c0 0-.58-1.03-.478-1.986 0 0-2.202-.173-4.2 1.16-.015 0 .014.405.202.796ZM27.029 16.442s1.405.276 2.187-.39c0 0-.449.926-1.376 1.578.015 0-.275-.738-.811-1.188Z" fill="#B71515"/></svg>