<svg width="56" height="56" fill="none" xmlns="http://www.w3.org/2000/svg"><path d="M28 45.5c9.665 0 17.5-7.835 17.5-17.5S37.665 10.5 28 10.5 10.5 18.335 10.5 28 18.335 45.5 28 45.5ZM28 28h22.75M28 28 16.625 8.297M28 28 16.625 47.703M28 10.5V5.25M12.845 19.25l-4.548-2.625M10.5 28H5.25M12.845 36.75l-4.548 2.625M28 45.5v5.25M36.75 43.155l2.625 4.548M43.155 36.75l4.548 2.625M43.155 19.25l4.548-2.625M36.75 12.845l2.625-4.548" stroke="#0C6" stroke-width="2" stroke-linecap="round" stroke-linejoin="round"/></svg>