<svg width="56" height="56" fill="none" xmlns="http://www.w3.org/2000/svg"><g clip-path="url(#a)" stroke="#0C6" stroke-width="2" stroke-linecap="round" stroke-linejoin="round"><path d="M21 26.25c9.665 0 17.5-3.526 17.5-7.875 0-4.35-7.835-7.875-17.5-7.875S3.5 14.026 3.5 18.375c0 4.35 7.835 7.875 17.5 7.875Z"/><path d="M3.5 18.375v8.75C3.5 31.474 11.336 35 21 35s17.5-3.526 17.5-7.875v-8.75M14 25.594v8.75"/><path d="M38.5 21.157c7.989.731 14 3.907 14 7.718 0 4.349-7.836 7.875-17.5 7.875-4.288 0-8.216-.694-11.259-1.846"/><path d="M17.5 34.843v2.782c0 4.349 7.836 7.875 17.5 7.875s17.5-3.526 17.5-7.875v-8.75M42 36.094v8.75M28 25.594v19.25"/></g><defs><clipPath id="a"><path fill="#fff" d="M0 0h56v56H0z"/></clipPath></defs></svg>