<svg width="56" height="56" fill="none" xmlns="http://www.w3.org/2000/svg"><path d="M39.375 8.75H45.5a1.75 1.75 0 0 1 1.75 1.75v6.125M39.375 47.25H45.5a1.75 1.75 0 0 0 1.75-1.75v-6.125M16.625 47.25H10.5a1.75 1.75 0 0 1-1.75-1.75v-6.125M16.625 8.75H10.5a1.75 1.75 0 0 0-1.75 1.75v6.125M28 31.5a7 7 0 1 0 0-14 7 7 0 0 0 0 14Z" stroke="#0C6" stroke-width="2" stroke-linecap="round" stroke-linejoin="round"/><path d="M17.5 36.75a13.126 13.126 0 0 1 21 0" stroke="#0C6" stroke-width="2" stroke-linecap="round" stroke-linejoin="round"/></svg>