<svg xmlns="http://www.w3.org/2000/svg" width="96" height="96" fill="none"><path fill="#0C6" fill-rule="evenodd" d="M21.693 29.108a4.001 4.001 0 0 1 2.642-3.14V41.97h-4.734l2.092-12.862Zm4.642 12.862h9.498l1.76-4.691a1 1 0 0 1 1.872.702L37.97 41.97h5.508l-3.909-13.344a4 4 0 0 0-3.838-2.876h-9.395v16.22Zm15.153-13.907L45.56 41.97h25.267v-5.98a6.585 6.585 0 0 1 6.584-6.586c.938 0 1.698.76 1.698 1.698v2.863a1.838 1.838 0 0 1-1.837 1.837.675.675 0 0 0-.676.676v5.492h.594a10 10 0 0 1 8.51 4.748l.864 1.4a9 9 0 0 1 1.341 4.727V64.1a5 5 0 0 1-5 5h-.426c.26.984.4 2.017.4 3.084 0 6.624-5.37 11.994-11.995 11.994-6.624 0-11.995-5.37-11.995-11.994 0-1.067.14-2.1.4-3.084H43.268c-.515 8.067-7.221 14.45-15.419 14.45-8.298 0-15.068-6.542-15.434-14.75a.969.969 0 0 1-.044-.048L8.347 64.08a1.307 1.307 0 0 1-.309-.996.995.995 0 0 1-.007-.519l3.29-13.042a10 10 0 0 1 6.147-6.903l2.251-13.834a6 6 0 0 1 5.922-5.036H35.73a6 6 0 0 1 5.758 4.313ZM25.328 43.97h-4.334a8 8 0 0 0-7.733 6.043l-1.266 5.014a20.074 20.074 0 0 1 15.573-7.403h1.446c6.473 0 12.122 3.26 15.488 8.168h41.404v-2.947a7 7 0 0 0-1.043-3.676l-.864-1.4a8 8 0 0 0-6.808-3.8H25.328Zm60.578 13.822H45.698a18.63 18.63 0 0 1 2.069 9.309h12.25a11.996 11.996 0 0 1 10.868-6.911c4.807 0 8.954 2.828 10.867 6.91h1.154a3 3 0 0 0 3-3v-6.308Zm-56.892-8.168c9.593 0 17.163 8.013 16.75 17.477h-2.497c-.515-8.067-7.222-14.45-15.419-14.45-7.786 0-14.227 5.76-15.294 13.25l-2.455-2.851a18.078 18.078 0 0 1 17.47-13.426h1.445Zm48.096-18.21a4.585 4.585 0 0 0-4.282 4.575v5.98h1.77v-5.491a2.675 2.675 0 0 1 2.512-2.67v-2.394ZM14.398 68.101c0-7.428 6.022-13.45 13.45-13.45 7.429 0 13.45 6.021 13.45 13.45 0 7.428-6.021 13.45-13.45 13.45-7.428 0-13.45-6.022-13.45-13.45Zm46.492 4.084c0-5.52 4.475-9.995 9.995-9.995s9.995 4.475 9.995 9.995-4.475 9.994-9.995 9.994-9.995-4.475-9.995-9.994Z" clip-rule="evenodd"/></svg>