<svg xmlns="http://www.w3.org/2000/svg" width="96" height="96" fill="none"><path fill="#0C6" fill-rule="evenodd" d="M17.491 31.75a4 4 0 0 0-3.94 3.311L10.941 50h28.946l-4.86-15.45a4 4 0 0 0-3.816-2.8H17.49Zm-5.91 2.967L8.91 50H8.5a2 2 0 0 0-2 2v7.75H4.25a3 3 0 0 0-3 3v8.75a3 3 0 0 0 3 3h2.382c.843 5.52 5.612 9.75 11.368 9.75h47.25c6.351 0 11.5-5.149 11.5-11.5 0-1.645-.345-3.21-.968-4.625h6.468v6.75a9 9 0 0 0 9 9h.135a3 3 0 0 0 2.958-3.499l-4.716-27.959a2 2 0 0 0-1.972-1.667H84.25a2 2 0 0 0-2 2v3.171c-2.41.863-5.737 2.043-8.618 3.04a262.997 262.997 0 0 1-4.097 1.39c-.405.131-.755.243-1.041.33l-3.873-7.885A5 5 0 0 0 60.133 50H58v-4.8a1 1 0 0 1 1-1 2 2 0 0 0 2-2v-2.367C61 38.821 60.18 38 59.167 38a7.667 7.667 0 0 0-7.667 7.667V50h-9.516l-5.05-16.05a6 6 0 0 0-5.723-4.2H17.49a6 6 0 0 0-5.91 4.967ZM8.5 72.75a9.5 9.5 0 0 0 9.5 9.5h47.25a9.5 9.5 0 0 0 9.5-9.5c0-1.707-.451-3.309-1.24-4.693a1 1 0 0 1-.635-.973 9.486 9.486 0 0 0-7.626-3.834H18a9.5 9.5 0 0 0-9.5 9.5Zm0-13v6.517A11.488 11.488 0 0 1 18 61.25h47.25c.45 0 .894.026 1.331.076l-3.756-7.648A3 3 0 0 0 60.133 52H8.5v7.75Zm-2 2H4.25a1 1 0 0 0-1 1v8.75a1 1 0 0 0 1 1H6.5V61.75Zm47-16.083a5.667 5.667 0 0 1 5.5-5.665V42.2a3 3 0 0 0-3 3V50h-2.5v-4.333Zm30.75 21.458v7.75a7 7 0 0 0 7 7h.133a1 1 0 0 0 .987-1.166L87.655 52.75H84.25v14.375Zm-2-9.08v8.08h-7.6a11.547 11.547 0 0 0-4.615-3.835l.12-.039c1.097-.358 2.55-.852 4.13-1.4 2.63-.91 5.626-1.97 7.964-2.806Zm-66.876 14.08a1 1 0 1 0 0 2h50.25a1 1 0 1 0 0-2h-50.25Z" clip-rule="evenodd"/><path stroke="#0C6" stroke-linecap="round" stroke-width="2" d="M18 31.5V51"/></svg>