<svg xmlns="http://www.w3.org/2000/svg" width="96" height="96" fill="none"><g clip-path="url(#a)"><path fill="#0C6" fill-rule="evenodd" d="M89.25 4.25a6.252 6.252 0 0 0-5.799 3.914l-.016.011-39.375 27a1 1 0 1 0 1.13 1.65L83.013 10.89a6.25 6.25 0 0 0 3.193 5.07c-10.7 11.723-28.04 31.045-29.236 32.54a1 1 0 1 0 1.562 1.25c1.165-1.457 19.062-21.4 29.73-33.078.12.02.242.035.364.047v35.906h-2a1 1 0 1 0 0 2h2v1.618a2 2 0 0 0 .51 1.334l3.135 3.504a3.59 3.59 0 0 1-5.11 5.032l-.354-.326a3.283 3.283 0 0 1-1.056-2.412 1 1 0 1 0-2 0c0 1.474.616 2.882 1.7 3.882l.353.326a5.59 5.59 0 0 0 7.958-7.835l-3.136-3.505v-1.618h2a1 1 0 1 0 0-2h-2V16.598A6.25 6.25 0 0 0 89.25 4.25ZM85 10.5a4.25 4.25 0 1 1 8.5 0 4.25 4.25 0 0 1-8.5 0ZM19.5 34.25a7 7 0 0 0-7 7v21.5h-.75a3 3 0 0 0-3 3v1.966C3.981 69.118.5 73.527.5 78.75c0 6.351 5.149 11.5 11.5 11.5h47.25c6.351 0 11.5-5.149 11.5-11.5 0-5.756-4.23-10.525-9.75-11.368V65.75a3.001 3.001 0 0 0-2.25-2.906V61.25c0-14.912-12.088-27-27-27H19.5Zm0 2h2.75v26.5H14.5v-21.5a5 5 0 0 1 5-5Zm4.75 0v26.5h32.5v-1.5c0-13.807-11.193-25-25-25h-7.5ZM13.5 64.75H58a1 1 0 0 1 1 1v1.5H10.75v-1.5a1 1 0 0 1 1-1h1.75Zm-1.5 4.5h47.25a9.5 9.5 0 0 1 0 19H12a9.5 9.5 0 0 1 0-19Zm-2.625 8.875a1 1 0 1 0 0 2h50.25a1 1 0 1 0 0-2H9.375Z" clip-rule="evenodd"/></g><defs><clipPath id="a"><path fill="#fff" d="M0 0h96v96H0z"/></clipPath></defs></svg>