<svg xmlns="http://www.w3.org/2000/svg" width="96" height="96" fill="none"><path fill="#0C6" fill-rule="evenodd" d="M43.746 17.75a3 3 0 0 0-2.917 3.7l2.283 9.514a3 3 0 0 0 2.917 2.3h1.478v.78l-2.189 2.446a4.308 4.308 0 0 0 .427 6.161l-15.071 8.612H24.75a4 4 0 0 0-4 4V74.67a4 4 0 0 0 4 4h45.892a4 4 0 0 0 4-4V55.264a4 4 0 0 0-4-4h-5.113L50.945 42.93c.176-.12.345-.253.506-.402l.255-.235a4.087 4.087 0 0 0 1.314-3.002 1 1 0 0 0-2 0c0 .582-.243 1.138-.671 1.533l-.255.235a2.3 2.3 0 0 1-1.367.603.996.996 0 0 0-.626-.12 1 1 0 0 0-.313.007 2.308 2.308 0 0 1-.98-3.726l2.2-2.458c.321-.359.499-.823.499-1.305v-.797h.937a3 3 0 0 0 2.917-2.3l2.283-9.513a3 3 0 0 0-2.917-3.7h-8.98Zm4.441 25.907a4.523 4.523 0 0 1-.147-.014l-13.335 7.62h26.793l-13.31-7.605Zm17.057 9.607H24.75a2 2 0 0 0-2 2v19.405a2 2 0 0 0 2 2h45.892a2 2 0 0 0 2-2V55.264a2 2 0 0 0-2-2h-5.398Zm-16.737-22h1.937a1 1 0 0 0 .972-.767l2.283-9.514a1 1 0 0 0-.972-1.233h-8.98a1 1 0 0 0-.973 1.233l2.283 9.514a1 1 0 0 0 .972.767h2.478Zm.189 28.027a1 1 0 0 0-2 0v11.35a1 1 0 0 0 2 0v-11.35Zm13.054-1a1 1 0 0 1 1 1v11.35a1 1 0 1 1-2 0v-11.35a1 1 0 0 1 1-1Zm-27.108 1a1 1 0 0 0-2 0v11.35a1 1 0 1 0 2 0v-11.35Z" clip-rule="evenodd"/></svg>