<svg xmlns="http://www.w3.org/2000/svg" width="96" height="96" fill="none"><g clip-path="url(#a)"><path fill="#0C6" fill-rule="evenodd" d="M0 31h88.25v17.5H0v2h93.5v4.75H0v2h16.625v9.25a5 5 0 0 0 5 5h7.378c.133 7.064 5.9 12.75 12.997 12.75 7.096 0 12.864-5.686 12.998-12.75h2.505c.133 7.064 5.9 12.75 12.997 12.75 7.096 0 12.865-5.686 12.998-12.75h4.752v.75a3 3 0 0 0 3 3h1.25a3 3 0 0 0 3-3V35c0-3.06-2.29-5.584-5.25-5.954V29H0v2Zm88.25 26.25V69.5h-4.867c-.854-6.352-6.297-11.25-12.883-11.25-6.586 0-12.028 4.898-12.883 11.25h-2.734C54.03 63.148 48.586 58.25 42 58.25c-6.586 0-12.028 4.898-12.883 11.25h-7.492a3 3 0 0 1-3-3v-9.25H88.25Zm2 13.25V58h3.25v14.25a1 1 0 0 1-1 1h-1.25a1 1 0 0 1-1-1V70.5Zm0-39.43V48.5h3.25V35c0-1.953-1.4-3.579-3.25-3.93ZM42 60.25c-6.075 0-11 4.925-11 11s4.925 11 11 11 11-4.925 11-11-4.925-11-11-11Zm-3.5 11a3.5 3.5 0 1 1 7 0 3.5 3.5 0 0 1-7 0Zm3.5-5.5a5.5 5.5 0 1 0 0 11 5.5 5.5 0 0 0 0-11Zm25 5.5a3.5 3.5 0 1 1 7 0 3.5 3.5 0 0 1-7 0Zm3.5-5.5a5.5 5.5 0 1 0 0 11 5.5 5.5 0 0 0 0-11Zm-11 5.5c0-6.075 4.925-11 11-11s11 4.925 11 11-4.925 11-11 11-11-4.925-11-11ZM43.68 41.138h1.681L47.27 45h1.756v-.089L46.9 40.748a3.85 3.85 0 0 0 .745-.438 2.63 2.63 0 0 0 .943-1.34c.092-.277.138-.587.138-.929 0-.497-.087-.93-.26-1.299a2.58 2.58 0 0 0-.725-.936 3.32 3.32 0 0 0-1.12-.56 5.175 5.175 0 0 0-1.423-.2H42.04V45h1.64v-3.862Zm1.538-1.34H43.68v-3.411h1.517c.283.004.538.043.766.116.228.068.421.17.58.307.174.146.304.329.39.547.092.215.137.465.137.752 0 .256-.04.483-.123.684-.082.2-.196.37-.342.506-.164.16-.364.282-.601.369a2.472 2.472 0 0 1-.786.13Zm6.945.738h4.115V39.21h-4.115v-2.803h4.772v-1.36h-6.42V45h6.454v-1.353h-4.806v-3.11ZM63.613 45h1.648v-9.953h-1.655l-.013 6.822-3.213-6.822h-1.668V45h1.661l.007-6.85L63.613 45Zm7.622-8.593h3.07v-1.36h-7.752v1.36h3.049V45h1.633v-8.593Z" clip-rule="evenodd"/></g><defs><clipPath id="a"><path fill="#fff" d="M0 0h96v96H0z"/></clipPath></defs></svg>