<svg width="24" height="24" fill="none" xmlns="http://www.w3.org/2000/svg"><g clip-path="url(#a)"><path d="M12 0C5.373 0 0 5.373 0 12c0 6.628 5.373 12 12 12 6.628 0 12-5.372 12-12 0-6.627-5.372-12-12-12Z" fill="#40B3E0"/><path d="m17.839 6.903-2.144 10.806s-.3.75-1.124.39l-4.946-3.792-1.798-.87-3.028-1.018s-.464-.165-.51-.525c-.044-.36.525-.555.525-.555L16.85 6.62s.99-.435.99.284Z" fill="#fff"/><path d="M9.245 17.588s-.145-.014-.325-.583c-.18-.57-1.094-3.567-1.094-3.567l7.27-4.617s.419-.254.404 0c0 0 .075.045-.15.255-.225.21-5.71 5.141-5.71 5.141" fill="#D2E5F1"/><path d="m11.523 15.761-1.957 1.784s-.153.116-.32.043l.375-3.313" fill="#B5CFE4"/></g><defs><clipPath id="a"><rect width="24" height="24" rx="12" fill="#fff"/></clipPath></defs></svg>