<svg width="24" height="24" fill="none" xmlns="http://www.w3.org/2000/svg"><g clip-path="url(#a)"><path d="M24 0H0v24h24V0Z" fill="#1BD741"/><path d="m3.607 20.402 1.176-4.175a8.356 8.356 0 0 1-1.154-4.247c0-4.622 3.76-8.382 8.382-8.382s8.382 3.76 8.382 8.382-3.76 8.383-8.382 8.383c-1.44 0-2.85-.37-4.098-1.07l-4.306 1.11Zm4.526-2.633.257.157a6.946 6.946 0 0 0 3.621 1.015 6.968 6.968 0 0 0 6.96-6.96 6.968 6.968 0 0 0-6.96-6.961 6.968 6.968 0 0 0-6.96 6.96c0 1.338.38 2.636 1.099 3.756l.173.269-.677 2.404 2.487-.64Z" fill="#fff"/><path d="m9.657 8.079-.544-.03a.658.658 0 0 0-.468.16c-.263.23-.685.672-.815 1.249-.193.86.106 1.913.878 2.966.773 1.054 2.212 2.739 4.757 3.459.82.232 1.466.075 1.964-.243.394-.252.666-.657.764-1.115l.086-.405a.282.282 0 0 0-.157-.315l-1.838-.848a.282.282 0 0 0-.341.084l-.722.936a.207.207 0 0 1-.232.069c-.494-.174-2.15-.867-3.058-2.617a.209.209 0 0 1 .026-.233l.69-.797a.282.282 0 0 0 .046-.296L9.9 8.25a.282.282 0 0 0-.243-.171Z" fill="#fff"/></g><defs><clipPath id="a"><rect width="24" height="24" rx="12" fill="#fff"/></clipPath></defs></svg>