<svg width="384" height="384" fill="none" xmlns="http://www.w3.org/2000/svg"><path fill-rule="evenodd" clip-rule="evenodd" d="M163.322 85.8c-1.811-7.545 3.909-14.8 11.669-14.8h35.922c7.76 0 13.479 7.255 11.668 14.8l-9.133 38.055a12 12 0 0 1-11.668 9.199h-3.752v3.188c0 1.925-.71 3.782-1.993 5.217l-8.8 9.835a9.232 9.232 0 0 0 .553 12.88 9.19 9.19 0 0 0 3.365 2.023 3.97 3.97 0 0 1 1.249-.025 3.98 3.98 0 0 1 2.504.478 9.196 9.196 0 0 0 5.472-2.415l1.019-.94a8.344 8.344 0 0 0 2.685-6.133 4 4 0 0 1 8 0c0 4.562-1.907 8.917-5.259 12.011l-1.019.941a17.417 17.417 0 0 1-2.024 1.607l58.333 33.333h20.458c8.837 0 16 7.164 16 16v77.622c0 8.836-7.163 16-16 16H99.004c-8.837 0-16-7.164-16-16v-77.622c0-8.836 7.163-16 16-16h23.688l60.288-34.45a18.208 18.208 0 0 1-.675-.604c-6.808-6.407-7.266-17.073-1.032-24.04l8.755-9.785v-3.121h-5.904a12 12 0 0 1-11.669-9.199L163.322 85.8Zm28.836 88.773c.196.022.392.041.587.057l53.244 30.424H138.816l53.342-30.481Zm-68.327 38.481h137.142l.08.001.068-.001h21.45a8 8 0 0 1 8 8v77.622a8 8 0 0 1-8 8H99.004a8 8 0 0 1-8-8v-77.622a8 8 0 0 1 8-8H123.83ZM174.991 79a4 4 0 0 0-3.89 4.933l9.133 38.055a4 4 0 0 0 3.89 3.066h17.656a4 4 0 0 0 3.889-3.066l9.133-38.055A4 4 0 0 0 210.913 79h-35.922Zm34.214 188.47c0 3.665-.422 6.922-1.266 9.769-.844 2.822-2.057 5.195-3.639 7.119a15.224 15.224 0 0 1-5.814 4.43c-2.294 1.002-4.917 1.503-7.87 1.503-2.927 0-5.551-.488-7.871-1.463a15.324 15.324 0 0 1-5.893-4.47c-1.608-1.924-2.834-4.297-3.678-7.119-.844-2.847-1.266-6.104-1.266-9.769v-13.487c0-3.665.422-6.908 1.266-9.729.844-2.848 2.07-5.247 3.678-7.198a15.224 15.224 0 0 1 5.814-4.43c2.32-1.028 4.944-1.543 7.871-1.543 2.953 0 5.576.515 7.87 1.543a15.476 15.476 0 0 1 5.893 4.43c1.582 1.951 2.795 4.35 3.639 7.198.844 2.821 1.266 6.064 1.266 9.729v13.487Zm-29.94-1.463 22.425-17.205c-.211-1.898-.593-3.573-1.147-5.023-.527-1.476-1.252-2.702-2.175-3.678-.897-1.002-2.004-1.753-3.323-2.254-1.292-.501-2.795-.752-4.508-.752-1.741 0-3.283.277-4.628.831a8.885 8.885 0 0 0-3.362 2.333c-1.107 1.292-1.938 2.967-2.491 5.023-.528 2.03-.791 4.39-.791 7.08v13.645Zm22.583 3.006V255.803l-22.386 17.125c.238 1.925.66 3.626 1.266 5.102.606 1.45 1.397 2.65 2.373 3.599.897.897 1.978 1.582 3.243 2.057 1.266.448 2.69.672 4.272.672 1.661 0 3.137-.25 4.429-.751 1.292-.501 2.387-1.226 3.283-2.175 1.213-1.292 2.096-2.98 2.65-5.063.58-2.083.87-4.535.87-7.356Zm-47.777 1.147h8.029v5.972h-8.029V289.5h-7.317v-13.368h-26.262v-4.311l25.787-39.907h7.792v38.246Zm-25.471 0h18.154v-28.516l-1.187 2.214L128.6 270.16Zm130.795 0h-8.029v-38.246h-7.792l-25.787 39.907v4.311h26.262V289.5h7.317v-13.368h8.029v-5.972Zm-15.346 0h-18.154l16.967-26.302 1.187-2.214v28.516Z" fill="#0C6"/></svg>