<svg width="49" height="49" fill="none" xmlns="http://www.w3.org/2000/svg"><rect x="11.167" y="10.755" width="25" height="26.471" rx="12.5" fill="#0C6"/><path d="M5.327 40.253C8.15 36.65 15.62 29.043 22.919 27.439c-.968 2.951-2.676 10.1-1.771 15.08 1.694-3.951 8.124-13.054 20.295-17.851 1.449-1.007 3.894-5.111 2.079-13.482-.221-.22-1.78-.923-6.244-1.963-.597-.217-2.166-.978-3.666-2.289-1.874-1.637-13.555 1.958-16.24 4.101-1.941-.366-6.134-.454-7.377 2.118-1.243 2.573.048 3.673.85 3.902-2.136 1.46-6.46 4.765-6.678 6.304 2.488-1.734 8.276-5.256 11.522-5.48-.971-1.569-1.89-4.71 2.208-4.722C21.543 11.077 29.55 7.16 32.41 8.13c1.249.73 3.867 2.198 4.356 2.226.61.034 3.507.404 3.537.763.013.155-.198.366-.43.597-.304.302-.644.64-.57.94.055.218.614.556 1.261.947.934.564 2.05 1.24 2.099 1.822.017.21.068.437.12.674.196.878.42 1.891-.883 2.65-.189.11-.388.233-.593.36-1.6.986-3.61 2.225-4.435-.264-.47-1.419-.486-2.695-.498-3.751-.012-1.035-.022-1.859-.454-2.4-.873-1.097-3.04-2.075-4.726-1.47-1.348.485-3.061 1.455-3.75 1.879.872.373 2.68 1.094 2.95.997.065-.023.226-.146.45-.319.935-.717 2.973-2.282 3.783-.97 1.006 1.626 1.208 1.97.538 3.296-.12.239-.28.519-.453.824-.79 1.392-1.878 3.307-.95 4.187 1.133 1.072 4.31 1.687 6.273.242 1.57-1.155 2.612-1.985 2.937-2.256-.14 1.43-.886 4.33-2.748 4.5-2.327.212-9.97 2.264-11.014 3.263-.011-1.506.193-4.936 1.094-6.61-5.438.736-18.046 5.766-24.977 19.997Z" fill="#000"/><path d="M26.141 14.125c-1.23.865-3.963 3.471-5.058 6.97 2.424-1.124 7.748-3.273 9.658-2.868-1.314-.483-4.378-1.265-6.123-.527-.009-.452.283-1.798 1.523-3.575ZM19.837 16.863c.416-.282.599-.76.407-1.068-.193-.309-.686-.33-1.103-.05-.417.282-.599.76-.407 1.068.192.309.686.33 1.103.05ZM19.313 20.623c.179.287-.014.747-.431 1.028-.417.282-.9.277-1.078-.01-.179-.286.014-.747.431-1.028.417-.282.9-.277 1.078.01ZM14.993 22.081c.557-.376.816-.993.577-1.377-.24-.383-.885-.39-1.443-.013-.557.376-.816.993-.577 1.377.24.383.885.39 1.443.013ZM10.11 22.984c.288.464.02 1.18-.598 1.598-.62.418-1.356.38-1.646-.084-.29-.465-.022-1.18.598-1.599.62-.418 1.356-.38 1.645.085ZM13.217 26.632c.47-.317.661-.877.428-1.25-.232-.374-.801-.42-1.27-.104-.47.317-.662.877-.429 1.25.233.374.802.42 1.271.104ZM9.115 30.059c.267.429.073 1.054-.433 1.396-.507.341-1.134.27-1.4-.158-.268-.43-.074-1.054.432-1.396.507-.342 1.134-.271 1.401.158ZM12.788 37.462c.544-.367.79-.977.55-1.362-.24-.385-.874-.4-1.418-.032-.544.367-.79.977-.55 1.361.239.385.874.4 1.418.033ZM18.86 35.251c.275.443-.048 1.17-.722 1.626-.675.455-1.445.465-1.72.023-.276-.443.047-1.171.722-1.626.674-.455 1.444-.465 1.72-.023ZM20.073 31.479c.605-.41.895-1.064.646-1.463-.248-.4-.94-.392-1.546.017-.606.409-.895 1.064-.647 1.463.249.4.941.392 1.547-.017Z" fill="#000"/></svg>