<svg width="167" height="41" fill="none" xmlns="http://www.w3.org/2000/svg"><rect x="11.917" y="10.323" width="18.75" height="19.608" rx="9.375" fill="#0C6"/><path d="M7.537 32.173c2.117-2.668 7.72-8.302 13.194-9.491-.726 2.186-2.007 7.48-1.329 11.17 1.27-2.927 6.094-9.67 15.222-13.223 1.087-.745 2.92-3.786 1.56-9.986-.167-.164-1.335-.684-4.683-1.454-.448-.161-1.625-.725-2.75-1.696-1.406-1.213-10.167 1.45-12.18 3.038-1.456-.271-4.601-.337-5.533 1.569-.932 1.906.036 2.72.637 2.89-1.602 1.082-4.845 3.53-5.008 4.67 1.866-1.284 6.207-3.894 8.642-4.06-.729-1.162-1.417-3.489 1.656-3.497 2.734-1.54 8.74-4.443 10.884-3.725.937.541 2.9 1.628 3.267 1.649.458.026 2.63.3 2.653.565.01.115-.149.271-.323.443-.228.223-.482.474-.426.696.04.161.46.412.945.702.7.417 1.537.917 1.574 1.349.013.155.05.324.09.5.147.65.315 1.4-.662 1.962-.142.082-.291.173-.445.267-1.2.73-2.708 1.648-3.327-.195-.352-1.052-.364-1.997-.373-2.78-.009-.766-.016-1.376-.34-1.778-.655-.811-2.28-1.536-3.544-1.087-1.012.358-2.297 1.077-2.813 1.391.653.276 2.01.81 2.212.739.05-.018.17-.109.338-.236.7-.532 2.23-1.691 2.837-.72.754 1.205.906 1.46.404 2.442-.09.177-.21.384-.34.61-.593 1.032-1.409 2.45-.712 3.102.849.794 3.232 1.25 4.704.18a54.04 54.04 0 0 0 2.203-1.672c-.106 1.059-.665 3.208-2.061 3.333-1.745.157-7.477 1.677-8.26 2.418-.01-1.116.144-3.657.82-4.897-4.079.546-13.535 4.271-18.733 14.812Z" fill="#000"/><path d="M23.148 12.82c-.923.64-2.973 2.57-3.794 5.163 1.818-.833 5.811-2.425 7.244-2.125-.986-.357-3.284-.937-4.593-.39-.006-.335.213-1.332 1.143-2.648ZM18.42 14.848c.312-.209.448-.563.304-.792-.144-.228-.514-.244-.826-.036-.313.208-.45.563-.306.791.145.229.515.245.827.037ZM18.026 17.633c.134.212-.01.553-.323.762-.313.208-.674.205-.808-.008-.134-.212.01-.553.323-.762.313-.208.674-.205.808.008ZM14.786 18.713c.418-.279.612-.735.433-1.02-.18-.284-.664-.288-1.082-.01-.418.28-.612.736-.433 1.02.18.284.664.289 1.082.01ZM11.123 19.382c.218.344.017.874-.448 1.184-.464.31-1.017.281-1.234-.063-.217-.344-.016-.874.449-1.184.464-.31 1.016-.281 1.233.063ZM13.455 22.084c.352-.235.495-.65.32-.926-.174-.277-.6-.311-.953-.077-.351.235-.495.65-.32.927.174.276.6.31.953.076ZM10.378 24.623c.2.317.055.78-.325 1.034-.38.253-.85.2-1.05-.118-.2-.317-.055-.78.325-1.033.38-.254.85-.201 1.05.117ZM13.133 30.106c.407-.272.592-.723.413-1.008-.18-.285-.656-.296-1.064-.024-.408.272-.593.723-.413 1.008.18.285.656.296 1.064.024ZM17.686 28.469c.207.328-.035.867-.541 1.204-.506.337-1.083.345-1.29.017-.207-.328.036-.867.541-1.205.506-.337 1.084-.344 1.29-.016ZM18.596 25.674c.454-.302.672-.788.485-1.084-.186-.295-.706-.29-1.16.013-.454.303-.671.788-.485 1.084.187.296.706.29 1.16-.013ZM47.792 26.02v-10.5h4.8c.96 0 1.785.155 2.475.465.7.31 1.24.76 1.62 1.35.38.58.57 1.27.57 2.07 0 .79-.19 1.474-.57 2.054-.38.58-.92 1.03-1.62 1.35-.69.31-1.515.465-2.475.465h-3.15l1.32-1.29v4.035h-2.97Zm2.97-3.72-1.32-1.366h2.97c.62 0 1.08-.135 1.38-.405.31-.27.465-.645.465-1.125 0-.49-.155-.87-.465-1.14-.3-.27-.76-.404-1.38-.404h-2.97l1.32-1.366V22.3Zm9.902 3.72v-8.805l.66.66h-3.885V15.52h9.36v2.355h-3.87l.66-.66v8.805h-2.925Zm14.089-4.2v-2.19h4.95v2.19h-4.95Zm1.41-6.51c.81 0 1.55.134 2.22.404.67.26 1.25.635 1.74 1.126.5.49.885 1.07 1.155 1.74.28.66.42 1.39.42 2.19s-.14 1.535-.42 2.204a5.082 5.082 0 0 1-1.155 1.726c-.49.49-1.07.87-1.74 1.14-.67.26-1.41.39-2.22.39-.98 0-1.855-.17-2.625-.51-.77-.35-1.41-.84-1.92-1.47l1.875-1.71c.34.4.715.704 1.125.915.42.21.885.315 1.395.315.4 0 .765-.07 1.095-.21.33-.14.61-.34.84-.6.24-.27.42-.59.54-.96.13-.37.195-.78.195-1.23 0-.45-.065-.86-.195-1.23-.12-.37-.3-.685-.54-.945-.23-.27-.51-.476-.84-.615-.33-.14-.695-.21-1.095-.21-.51 0-.975.105-1.395.314a3.69 3.69 0 0 0-1.125.916l-1.875-1.71c.51-.64 1.15-1.13 1.92-1.47.77-.34 1.645-.51 2.625-.51ZM89.93 26.02l-2.955-4.995 2.385-1.41 3.915 6.405H89.93Zm-6.69 0v-10.5h2.955v10.5H83.24Zm2.1-4.02v-2.4h3.81V22h-3.81Zm4.305-.916-2.745-.3 3.225-5.264h3.12l-3.6 5.564Zm9.639 5.146c-.83 0-1.6-.13-2.31-.39-.7-.27-1.31-.65-1.83-1.14a5.353 5.353 0 0 1-1.2-1.726 5.492 5.492 0 0 1-.435-2.204c0-.8.145-1.53.435-2.19.29-.67.69-1.25 1.2-1.74.52-.49 1.13-.865 1.83-1.126.71-.27 1.48-.405 2.31-.405.97 0 1.835.17 2.595.51.77.34 1.41.83 1.92 1.47l-1.89 1.71a3.69 3.69 0 0 0-1.125-.915 2.86 2.86 0 0 0-1.35-.314c-.43 0-.825.07-1.185.21-.36.14-.67.345-.93.614-.25.26-.45.575-.6.945-.14.37-.21.78-.21 1.23 0 .45.07.86.21 1.23.15.37.35.69.6.96.26.26.57.46.93.6.36.14.755.21 1.185.21.5 0 .95-.104 1.35-.314a3.69 3.69 0 0 0 1.125-.915l1.89 1.71c-.51.63-1.15 1.12-1.92 1.47-.76.34-1.625.51-2.595.51Zm5.856-.21v-10.5h9.855v10.5h-2.94v-8.805l.66.66h-5.295l.645-.66v8.805h-2.925Zm12.1 0v-10.5h4.8c.96 0 1.785.155 2.475.465.7.31 1.24.76 1.62 1.35.38.58.57 1.27.57 2.07 0 .79-.19 1.474-.57 2.054-.38.58-.92 1.03-1.62 1.35-.69.31-1.515.465-2.475.465h-3.15l1.32-1.29v4.035h-2.97Zm2.97-3.72-1.32-1.366h2.97c.62 0 1.08-.135 1.38-.405.31-.27.465-.645.465-1.125 0-.49-.155-.87-.465-1.14-.3-.27-.76-.404-1.38-.404h-2.97l1.32-1.366V22.3Zm10.571-2.716h4.875v2.22h-4.875v-2.22Zm.21 4.14h5.49v2.296h-8.43v-10.5h8.235v2.294h-5.295v5.91Zm12.297 2.506c-.83 0-1.6-.13-2.31-.39-.7-.27-1.31-.65-1.83-1.14a5.353 5.353 0 0 1-1.2-1.726 5.492 5.492 0 0 1-.435-2.204c0-.8.145-1.53.435-2.19.29-.67.69-1.25 1.2-1.74.52-.49 1.13-.865 1.83-1.126.71-.27 1.48-.405 2.31-.405.97 0 1.835.17 2.595.51.77.34 1.41.83 1.92 1.47l-1.89 1.71a3.69 3.69 0 0 0-1.125-.915 2.86 2.86 0 0 0-1.35-.314c-.43 0-.825.07-1.185.21-.36.14-.67.345-.93.614-.25.26-.45.575-.6.945-.14.37-.21.78-.21 1.23 0 .45.07.86.21 1.23.15.37.35.69.6.96.26.26.57.46.93.6.36.14.755.21 1.185.21.5 0 .95-.104 1.35-.314a3.69 3.69 0 0 0 1.125-.915l1.89 1.71c-.51.63-1.15 1.12-1.92 1.47-.76.34-1.625.51-2.595.51Zm10.752 0c-.83 0-1.6-.13-2.31-.39-.7-.27-1.31-.65-1.83-1.14a5.353 5.353 0 0 1-1.2-1.726 5.492 5.492 0 0 1-.435-2.204c0-.8.145-1.53.435-2.19.29-.67.69-1.25 1.2-1.74.52-.49 1.13-.865 1.83-1.126.71-.27 1.48-.405 2.31-.405.97 0 1.835.17 2.595.51.77.34 1.41.83 1.92 1.47l-1.89 1.71a3.69 3.69 0 0 0-1.125-.915 2.86 2.86 0 0 0-1.35-.314c-.43 0-.825.07-1.185.21-.36.14-.67.345-.93.614-.25.26-.45.575-.6.945-.14.37-.21.78-.21 1.23 0 .45.07.86.21 1.23.15.37.35.69.6.96.26.26.57.46.93.6.36.14.755.21 1.185.21.5 0 .95-.104 1.35-.314a3.69 3.69 0 0 0 1.125-.915l1.89 1.71c-.51.63-1.15 1.12-1.92 1.47-.76.34-1.625.51-2.595.51Z" fill="#000"/></svg>