<svg width="156" height="74" fill="none" xmlns="http://www.w3.org/2000/svg"><rect x="66.467" y="13.284" width="22.5" height="23.529" rx="11.25" fill="#0C6"/><path d="M61.21 39.505c2.541-3.203 9.265-9.964 15.834-11.39-.871 2.623-2.409 8.977-1.594 13.405 1.524-3.513 7.311-11.605 18.265-15.869 1.304-.894 3.505-4.543 1.871-11.983-.199-.197-1.601-.82-5.619-1.745-.537-.193-1.95-.87-3.299-2.035-1.687-1.455-12.2 1.74-14.617 3.645-1.747-.325-5.52-.403-6.639 1.883-1.118 2.287.044 3.265.764 3.468-1.921 1.298-5.813 4.236-6.01 5.604 2.24-1.54 7.45-4.672 10.371-4.87-.874-1.396-1.7-4.188 1.987-4.198 3.282-1.85 10.488-5.332 13.062-4.47 1.123.65 3.48 1.954 3.92 1.979.55.03 3.156.359 3.184.678.011.138-.179.325-.388.53-.273.27-.579.57-.512.837.048.193.552.493 1.135.841.84.502 1.844 1.101 1.888 1.62.016.186.061.388.109.599.175.78.378 1.68-.795 2.356-.17.097-.35.206-.534.32-1.44.875-3.25 1.977-3.992-.235-.423-1.261-.437-2.396-.448-3.335-.01-.92-.02-1.652-.408-2.134-.787-.974-2.736-1.843-4.253-1.305-1.214.43-2.756 1.292-3.375 1.67.784.331 2.412.972 2.654.886.06-.02.204-.13.405-.283.842-.638 2.676-2.03 3.406-.863.904 1.446 1.086 1.75.483 2.93-.108.212-.251.461-.407.732-.712 1.238-1.69 2.94-.855 3.722 1.02.953 3.88 1.5 5.646.216a65.031 65.031 0 0 0 2.642-2.006c-.126 1.27-.797 3.85-2.473 4-2.094.188-8.972 2.012-9.912 2.9-.01-1.338.173-4.388.984-5.875-4.894.654-16.241 5.125-22.48 17.774Z" fill="#000"/><path d="M79.944 16.28c-1.107.77-3.567 3.085-4.553 6.196 2.182-1 6.974-2.91 8.693-2.55-1.183-.43-3.941-1.124-5.51-.469-.009-.4.254-1.598 1.37-3.177ZM74.27 18.713c.375-.25.539-.675.366-.949-.173-.274-.617-.294-.992-.044s-.54.675-.367.95c.173.274.618.293.993.043ZM73.798 22.056c.161.255-.013.664-.388.914s-.81.246-.97-.009c-.16-.255.013-.664.388-.914s.81-.246.97.009ZM69.91 23.352c.502-.335.734-.883.52-1.224-.216-.34-.797-.346-1.299-.012-.502.335-.734.883-.52 1.224.216.341.797.347 1.3.012ZM65.515 24.154c.26.413.02 1.05-.538 1.421-.557.372-1.22.338-1.48-.075-.261-.413-.02-1.049.537-1.42.557-.372 1.22-.339 1.48.074ZM68.312 27.397c.422-.281.595-.779.386-1.111-.21-.333-.722-.374-1.144-.092-.423.281-.595.779-.386 1.111.21.333.722.374 1.144.092ZM64.62 30.443c.24.382.066.937-.39 1.241-.455.304-1.02.241-1.26-.14-.24-.382-.066-.937.39-1.241.455-.304 1.02-.241 1.26.14ZM67.926 37.024c.49-.326.71-.868.495-1.21-.215-.343-.787-.355-1.276-.03-.49.327-.712.869-.496 1.211.216.342.787.355 1.277.029ZM73.39 35.059c.248.393-.043 1.04-.65 1.445-.606.404-1.3.413-1.547.02-.248-.394.042-1.04.65-1.445.606-.405 1.3-.414 1.547-.02ZM74.482 31.706c.545-.364.806-.946.582-1.301-.224-.355-.847-.348-1.392.015-.545.364-.806.946-.582 1.3.224.356.847.349 1.392-.014ZM12.017 64.52v-12.6h5.76c1.152 0 2.142.185 2.97.557.84.373 1.488.913 1.944 1.62.456.697.684 1.524.684 2.484 0 .948-.228 1.77-.684 2.466-.456.697-1.104 1.236-1.944 1.62-.828.372-1.818.558-2.97.558h-3.78l1.584-1.547v4.841h-3.564Zm3.564-4.464-1.584-1.639h3.564c.744 0 1.296-.162 1.656-.486.372-.323.558-.773.558-1.35 0-.588-.186-1.044-.558-1.367-.36-.325-.912-.486-1.656-.486h-3.564l1.584-1.639v6.967Zm11.882 4.463V53.953l.792.792h-4.662V51.92h11.232v2.825h-4.644l.792-.791v10.565h-3.51Zm16.907-5.04v-2.627h5.94v2.628h-5.94Zm1.692-7.812c.972 0 1.86.163 2.664.486.804.313 1.5.763 2.088 1.35a6.057 6.057 0 0 1 1.386 2.089c.336.791.504 1.668.504 2.627 0 .96-.168 1.843-.504 2.646a6.098 6.098 0 0 1-1.386 2.07 6.186 6.186 0 0 1-2.088 1.368c-.804.313-1.692.469-2.664.469-1.176 0-2.226-.205-3.15-.613a6.234 6.234 0 0 1-2.304-1.764l2.25-2.052c.408.48.858.846 1.35 1.098a3.69 3.69 0 0 0 1.674.378c.48 0 .918-.084 1.314-.252a2.771 2.771 0 0 0 1.008-.72c.288-.324.504-.708.648-1.151.156-.444.234-.936.234-1.477 0-.54-.078-1.032-.234-1.476a3.019 3.019 0 0 0-.648-1.134 2.68 2.68 0 0 0-1.008-.738 3.331 3.331 0 0 0-1.314-.252 3.69 3.69 0 0 0-1.674.379 4.429 4.429 0 0 0-1.35 1.098l-2.25-2.052a5.991 5.991 0 0 1 2.304-1.764c.924-.409 1.974-.613 3.15-.613Zm16.52 12.852-3.546-5.994 2.862-1.691 4.698 7.685h-4.014Zm-8.028 0v-12.6H58.1v12.6h-3.546Zm2.52-4.824v-2.88h4.572v2.88h-4.572Zm5.166-1.098-3.294-.36 3.87-6.318h3.744l-4.32 6.678Zm11.567 6.175c-.996 0-1.92-.157-2.772-.469a6.658 6.658 0 0 1-2.196-1.367 6.423 6.423 0 0 1-1.44-2.07c-.348-.804-.522-1.687-.522-2.647 0-.96.174-1.836.522-2.627.348-.804.828-1.5 1.44-2.088a6.425 6.425 0 0 1 2.196-1.35 7.735 7.735 0 0 1 2.772-.487c1.164 0 2.202.204 3.114.612a5.991 5.991 0 0 1 2.304 1.764l-2.268 2.053a4.429 4.429 0 0 0-1.35-1.098 3.432 3.432 0 0 0-1.62-.378c-.516 0-.99.084-1.422.252a3.076 3.076 0 0 0-1.116.737c-.3.313-.54.69-.72 1.134a4.141 4.141 0 0 0-.252 1.476c0 .54.084 1.032.252 1.477.18.444.42.828.72 1.151.312.313.684.553 1.116.72.432.169.906.252 1.422.252.6 0 1.14-.126 1.62-.378a4.429 4.429 0 0 0 1.35-1.098l2.268 2.052a6.234 6.234 0 0 1-2.304 1.764c-.912.408-1.95.612-3.114.612Zm7.028-.253v-12.6h11.826v12.6h-3.528V53.953l.792.792h-6.354l.774-.791v10.565h-3.51Zm14.52 0v-12.6h5.76c1.152 0 2.142.187 2.97.559.84.371 1.488.911 1.944 1.62.456.696.684 1.523.684 2.483 0 .948-.228 1.77-.684 2.466-.456.697-1.104 1.236-1.944 1.62-.828.372-1.818.558-2.97.558h-3.78l1.584-1.547v4.841h-3.564Zm3.564-4.464-1.584-1.638h3.564c.744 0 1.296-.162 1.656-.486.372-.323.558-.773.558-1.35 0-.588-.186-1.044-.558-1.367-.36-.325-.912-.486-1.656-.486h-3.564l1.584-1.639v6.967Zm12.684-3.258h5.85v2.665h-5.85v-2.665Zm.252 4.969h6.588v2.753h-10.116v-12.6h9.882v2.755h-6.354v7.092Zm14.757 3.006c-.996 0-1.92-.157-2.772-.469a6.658 6.658 0 0 1-2.196-1.367 6.423 6.423 0 0 1-1.44-2.07c-.348-.804-.522-1.687-.522-2.647 0-.96.174-1.836.522-2.627.348-.804.828-1.5 1.44-2.088a6.425 6.425 0 0 1 2.196-1.35 7.735 7.735 0 0 1 2.772-.487c1.164 0 2.202.204 3.114.612a5.991 5.991 0 0 1 2.304 1.764l-2.268 2.053a4.429 4.429 0 0 0-1.35-1.098 3.432 3.432 0 0 0-1.62-.378c-.516 0-.99.084-1.422.252a3.076 3.076 0 0 0-1.116.737c-.3.313-.54.69-.72 1.134a4.141 4.141 0 0 0-.252 1.476c0 .54.084 1.032.252 1.477.18.444.42.828.72 1.151.312.313.684.553 1.116.72.432.169.906.252 1.422.252.6 0 1.14-.126 1.62-.378a4.429 4.429 0 0 0 1.35-1.098l2.268 2.052a6.234 6.234 0 0 1-2.304 1.764c-.912.408-1.95.612-3.114.612Zm12.902 0c-.996 0-1.92-.157-2.772-.469a6.658 6.658 0 0 1-2.196-1.367 6.423 6.423 0 0 1-1.44-2.07c-.348-.804-.522-1.687-.522-2.647 0-.96.174-1.836.522-2.627.348-.804.828-1.5 1.44-2.088a6.425 6.425 0 0 1 2.196-1.35 7.735 7.735 0 0 1 2.772-.487c1.164 0 2.202.204 3.114.612a5.991 5.991 0 0 1 2.304 1.764l-2.268 2.053a4.429 4.429 0 0 0-1.35-1.098 3.432 3.432 0 0 0-1.62-.378c-.516 0-.99.084-1.422.252a3.076 3.076 0 0 0-1.116.737c-.3.313-.54.69-.72 1.134a4.141 4.141 0 0 0-.252 1.476c0 .54.084 1.032.252 1.477.18.444.42.828.72 1.151.312.313.684.553 1.116.72.432.169.906.252 1.422.252.6 0 1.14-.126 1.62-.378a4.429 4.429 0 0 0 1.35-1.098l2.268 2.052a6.234 6.234 0 0 1-2.304 1.764c-.912.408-1.95.612-3.114.612Z" fill="#000"/></svg>