<svg xmlns="http://www.w3.org/2000/svg" width="96" height="96" fill="none"><path fill="#0C6" fill-rule="evenodd" d="M44.796 17.75h-8.763a3 3 0 0 0-3 3v25.434c0 .35.06.687.17 1H20.75a3 3 0 0 0-3 3v25.434a3 3 0 0 0 3 3h25.434a2.99 2.99 0 0 0 2-.764c.53.475 1.232.764 2 .764h25.434a3 3 0 0 0 3-3V50.184a3 3 0 0 0-3-3H64.296c.11-.313.171-.65.171-1V20.75a3 3 0 0 0-3-3H44.796Zm21.067 31.434H59.94v9.961l1.726-1.356a2 2 0 0 1 2.472 0l1.726 1.356v-9.961Zm-7.924 0v9.961c0 1.67 1.923 2.604 3.235 1.573l1.727-1.357 1.727 1.357c1.312 1.031 3.235.096 3.235-1.573v-9.961h7.755a1 1 0 0 1 1 1v25.434a1 1 0 0 1-1 1H50.184a1 1 0 0 1-1-.998V50.184a1 1 0 0 1 1-1h7.755Zm-10.755 1v25.434a1 1 0 0 1-1 1H20.75a1 1 0 0 1-1-1V50.184a1 1 0 0 1 1-1h7.755v9.961c0 1.67 1.923 2.604 3.236 1.573l1.726-1.357 1.727 1.357c1.312 1.031 3.235.096 3.235-1.573v-9.961h7.755a1 1 0 0 1 1 .998v.002Zm-10.755-1v9.961l-1.726-1.356a2 2 0 0 0-2.472 0l-1.726 1.356v-9.961h5.924Zm7.359-29.434h-7.755a1 1 0 0 0-1 1v25.434a1 1 0 0 0 1 1h25.434a1 1 0 0 0 1-1V20.75a1 1 0 0 0-1-1h-7.755v9.961c0 1.67-1.923 2.604-3.235 1.573l-1.727-1.357-1.727 1.357c-1.312 1.031-3.235.096-3.235-1.573V19.75Zm7.924 0v9.961l-1.726-1.356a2 2 0 0 0-2.471 0l-1.727 1.356V19.75h5.924Zm0 20.226a1 1 0 0 1 1-1h6.51a1 1 0 1 1 0 2h-6.51a1 1 0 0 1-1-1Zm1 2.114a1 1 0 1 0 0 2h6.51a1 1 0 1 0 0-2h-6.51ZM36.43 69.41a1 1 0 0 1 1-1h6.51a1 1 0 0 1 0 2h-6.51a1 1 0 0 1-1-1Zm1 2.114a1 1 0 1 0 0 2h6.51a1 1 0 0 0 0-2h-6.51Zm28.434-2.114a1 1 0 0 1 1-1h6.51a1 1 0 0 1 0 2h-6.51a1 1 0 0 1-1-1Zm1 2.114a1 1 0 1 0 0 2h6.51a1 1 0 0 0 0-2h-6.51Z" clip-rule="evenodd"/></svg>