<svg xmlns="http://www.w3.org/2000/svg" width="96" height="96" fill="none"><g clip-path="url(#a)"><path fill="#0C6" fill-rule="evenodd" d="M57.5 23.25a6.25 6.25 0 0 1 11.362-3.597c.068.017.135.04.2.073l13.634 6.632a6.25 6.25 0 0 1 9.067 8.089l2.476 2.27a4 4 0 0 1 .855 4.775l-5.242 10.21a4 4 0 0 1-3.559 2.173h-9.398c-1.843 0-2.705-2.28-1.323-3.5l2.401-2.119a10 10 0 0 0 2.692-3.842l2.862-7.287a6.266 6.266 0 0 1-3.299-3.948 765.895 765.895 0 0 1-8.623-2.386 207.73 207.73 0 0 1-3.82-1.117 38.038 38.038 0 0 1-1.229-.394 7.65 7.65 0 0 1-.481-.184l-9.458 20.37a9.1 9.1 0 0 1 2.883 6.657 2.625 2.625 0 0 1-2.625 2.625H55v2.5h3.5c6.351 0 11.5 5.149 11.5 11.5s-5.149 11.5-11.5 11.5H11.25c-6.351 0-11.5-5.149-11.5-11.5 0-5.756 4.23-10.525 9.75-11.368V58.75h-.75a3 3 0 0 1-3-3V54a7.003 7.003 0 0 1 4.58-6.57l2.79-17.144a6 6 0 0 1 5.922-5.036h13.592a6 6 0 0 1 5.758 4.313L43.499 47h2.8l11.99-20.71a6.221 6.221 0 0 1-.789-3.04ZM85.451 37.7l-2.925 7.445a12 12 0 0 1-3.23 4.61l-2.401 2.12h9.398a2 2 0 0 0 1.78-1.086l5.242-10.21a2 2 0 0 0-.427-2.388l-2.345-2.149a6.229 6.229 0 0 1-5.092 1.657Zm-15.45-14.45c0-.296-.022-.588-.061-.873l11.24 5.468a6.216 6.216 0 0 0-1.164 3.204 745.036 745.036 0 0 1-7.864-2.18 205.703 205.703 0 0 1-4.008-1.175A6.23 6.23 0 0 0 70 23.25Zm-10.365 4.705L48.61 47h1.765c1.68 0 3.253.454 4.605 1.245L63.684 29.5a6.225 6.225 0 0 1-4.048-1.545ZM46.856 49h3.519a7.125 7.125 0 0 1 7.125 7.125c0 .345-.28.625-.625.625H8.75a1 1 0 0 1-1-1V54a5 5 0 0 1 5-5h34.106ZM63.75 19a4.25 4.25 0 1 0 0 8.5 4.25 4.25 0 0 0 0-8.5ZM18.5 27.287a4 4 0 0 0-3.406 3.32L12.425 47H18.5V27.287Zm2-.037V47h11.666l2.148-5.726a1 1 0 0 1 1.873.702L34.303 47h7.112l-4.943-16.874a4 4 0 0 0-3.838-2.876H20.5ZM53 58.75H11.5v2.5H53v-2.5Zm-51.25 14a9.5 9.5 0 0 1 9.5-9.5H58.5a9.5 9.5 0 0 1 0 19H11.25a9.5 9.5 0 0 1-9.5-9.5Zm6.875-.625a1 1 0 1 0 0 2h50.25a1 1 0 1 0 0-2H8.625ZM82 31.5a4.25 4.25 0 1 1 8.5 0 4.25 4.25 0 0 1-8.5 0Z" clip-rule="evenodd"/></g><defs><clipPath id="a"><path fill="#fff" d="M0 0h96v96H0z"/></clipPath></defs></svg>