<svg xmlns="http://www.w3.org/2000/svg" width="96" height="96" fill="none"><path fill="#0C6" fill-rule="evenodd" d="M21.568 26.57a1 1 0 0 1 .984-.82h17.726a1 1 0 0 1 .928.629l.547 1.365a1 1 0 0 1-.929 1.372H28.251a3 3 0 0 0-3 3v13.096h-7.1l3.417-18.642ZM16.95 47.212H43.656a6 6 0 0 1 5.721 4.193l.08.25a3.058 3.058 0 0 0-.167-.004H6.13L8.81 48.97a6 6 0 0 1 4.243-1.758h3.896Zm-.833-2 3.484-19.003a3 3 0 0 1 2.95-2.459h17.727a3 3 0 0 1 2.785 1.886L43.61 27c.788 1.971-.663 4.115-2.786 4.115H28.251a1 1 0 0 0-1 1v13.096h13.116l1.769-4.717a1 1 0 1 1 1.873.703l-1.506 4.014h1.153a8 8 0 0 1 7.629 5.591l.601 1.904c.052.164.06.332.029.49.239.43.375.926.375 1.454v7.016h3.876c5.085-15.736 27.613-15.848 32.475.042a5.472 5.472 0 0 1-.118 10.871c-5.057 15.397-26.971 15.286-32.237.03H34.334c-.678 6.433-6.12 11.446-12.733 11.446S9.546 79.043 8.868 72.609H5a3 3 0 0 1-3-3V54.651c0-.528.136-1.024.376-1.454a.999.999 0 0 1 .275-.896l4.746-4.746a8 8 0 0 1 5.657-2.343h3.063ZM57.036 70.61H52.29v-6.942h35.665a3.471 3.471 0 1 1 0 6.942H57.036Zm1.381 2c4.973 12.643 23.206 12.638 27.975 0H79.71c-3.63 4.857-10.97 4.886-14.627 0h-6.666Zm6.41-10.942h-6.545c4.81-13.12 23.641-13.115 28.24 0h-6.558c-3.592-5.302-11.404-5.365-15.075-.09l-.062.09Zm2.99 10.942h9.16c-2.624 2.2-6.526 2.21-9.16 0Zm-.396-10.942h9.95c-2.74-2.675-7.195-2.689-9.95 0ZM4.001 54.65a1 1 0 0 1 1-1h44.29a1 1 0 0 1 1 1V70.61H34.388c-.335-6.774-5.932-12.163-12.788-12.163S9.147 63.837 8.812 70.61H5a1 1 0 0 1-1-1V54.651Zm6.849 17.677a.997.997 0 0 0-.046-1.479c.212-5.78 4.964-10.402 10.797-10.402 5.967 0 10.804 4.837 10.804 10.804 0 5.968-4.837 10.805-10.804 10.805-5.604 0-10.211-4.266-10.751-9.728Z" clip-rule="evenodd"/></svg>