<svg width="52" height="64" fill="none" xmlns="http://www.w3.org/2000/svg"><g clip-path="url(#a)"><path fill-rule="evenodd" clip-rule="evenodd" d="M51.706.095v53.163c0 2.837-2.292 5.144-5.11 5.144h-14.48c-3.148 0-5.727 2.458-5.947 5.572h-.03c-.219-3.114-2.798-5.572-5.947-5.572H5.713c-2.818 0-5.11-2.307-5.11-5.144V.095h51.103Z" fill="#F4F4F4"/><path fill-rule="evenodd" clip-rule="evenodd" d="M26.154 39.967c7.595 0 16.964 3.001 25.552 3.001v10.29c0 2.837-2.292 5.144-5.11 5.144h-14.48c-3.148 0-5.727 2.458-5.947 5.572h-.03c-.22-3.114-2.798-5.572-5.947-5.572H5.712c-2.818 0-5.11-2.307-5.11-5.144v-10.29c8.382 0 17.957-3.001 25.552-3.001Z" fill="#006436"/><path d="M5.561 47.468a.369.369 0 1 0-.7-.16M4.86 47.308v1.335" stroke="#897B2B" stroke-width=".225" stroke-miterlimit="22.926" stroke-linecap="round" stroke-linejoin="round"/><path d="M4.861 47.308a.369.369 0 1 0-.7.16M10.294 47.469a.37.37 0 1 0-.701-.16M9.593 47.308v1.335" stroke="#897B2B" stroke-width=".225" stroke-miterlimit="22.926" stroke-linecap="round" stroke-linejoin="round"/><path d="M9.594 47.308a.369.369 0 1 0-.7.16M15.026 47.469a.368.368 0 1 0-.7-.16M14.325 47.308v1.335M14.325 47.308a.369.369 0 1 0-.701.16M19.758 47.469a.368.368 0 1 0-.7-.16M19.058 47.308v1.335M19.057 47.308a.369.369 0 1 0-.7.16M24.489 47.469a.37.37 0 1 0-.7-.16M23.788 47.308v1.335" stroke="#897B2B" stroke-width=".225" stroke-miterlimit="22.926" stroke-linecap="round" stroke-linejoin="round"/><path d="M23.79 47.308a.369.369 0 1 0-.701.16M29.221 47.469a.37.37 0 1 0-.7-.16M28.52 47.308v1.335" stroke="#897B2B" stroke-width=".225" stroke-miterlimit="22.926" stroke-linecap="round" stroke-linejoin="round"/><path d="M28.52 47.308a.369.369 0 1 0-.7.16M33.954 47.469a.37.37 0 0 0-.332-.53.369.369 0 0 0-.369.37M33.253 47.308v1.335" stroke="#897B2B" stroke-width=".225" stroke-miterlimit="22.926" stroke-linecap="round" stroke-linejoin="round"/><path d="M33.252 47.308a.369.369 0 1 0-.7.16M38.684 47.469a.368.368 0 1 0-.7-.16M37.983 47.308v1.335" stroke="#897B2B" stroke-width=".225" stroke-miterlimit="22.926" stroke-linecap="round" stroke-linejoin="round"/><path d="M37.984 47.308a.369.369 0 1 0-.7.16M43.416 47.469a.37.37 0 1 0-.7-.16M42.716 47.308v1.335" stroke="#897B2B" stroke-width=".225" stroke-miterlimit="22.926" stroke-linecap="round" stroke-linejoin="round"/><path d="M42.715 47.308a.368.368 0 1 0-.7.16M48.149 47.469a.37.37 0 0 0-.332-.53.369.369 0 0 0-.369.37M47.448 47.308v1.335" stroke="#897B2B" stroke-width=".225" stroke-miterlimit="22.926" stroke-linecap="round" stroke-linejoin="round"/><path d="M47.447 47.308a.369.369 0 1 0-.7.16M5.561 55.134a.367.367 0 0 0-.332-.53.369.369 0 0 0-.369.37M4.86 54.973v1.335" stroke="#897B2B" stroke-width=".225" stroke-miterlimit="22.926" stroke-linecap="round" stroke-linejoin="round"/><path d="M4.861 54.974a.369.369 0 1 0-.7.16M10.294 55.134a.37.37 0 1 0-.701-.16M9.593 54.973v1.335" stroke="#897B2B" stroke-width=".225" stroke-miterlimit="22.926" stroke-linecap="round" stroke-linejoin="round"/><path d="M9.594 54.974a.369.369 0 1 0-.7.16M15.026 55.134a.368.368 0 1 0-.7-.16M14.325 54.973v1.335M14.325 54.974a.369.369 0 1 0-.701.16M19.758 55.134a.368.368 0 1 0-.7-.16M19.058 54.973v1.335M19.057 54.974a.369.369 0 1 0-.7.16M24.489 55.134a.37.37 0 1 0-.7-.16M23.788 54.973v1.335" stroke="#897B2B" stroke-width=".225" stroke-miterlimit="22.926" stroke-linecap="round" stroke-linejoin="round"/><path d="M23.79 54.974a.369.369 0 1 0-.701.16M29.221 55.134a.37.37 0 1 0-.7-.16M28.52 54.973v1.335" stroke="#897B2B" stroke-width=".225" stroke-miterlimit="22.926" stroke-linecap="round" stroke-linejoin="round"/><path d="M28.52 54.974a.369.369 0 1 0-.7.16M33.954 55.134a.37.37 0 0 0-.332-.53.369.369 0 0 0-.369.37M33.253 54.973v1.335" stroke="#897B2B" stroke-width=".225" stroke-miterlimit="22.926" stroke-linecap="round" stroke-linejoin="round"/><path d="M33.252 54.974a.369.369 0 1 0-.7.16M38.684 55.134a.368.368 0 1 0-.7-.16M37.983 54.973v1.335" stroke="#897B2B" stroke-width=".225" stroke-miterlimit="22.926" stroke-linecap="round" stroke-linejoin="round"/><path d="M37.984 54.974a.369.369 0 1 0-.7.16M43.416 55.134a.37.37 0 1 0-.7-.16M42.716 54.973v1.335" stroke="#897B2B" stroke-width=".225" stroke-miterlimit="22.926" stroke-linecap="round" stroke-linejoin="round"/><path d="M42.715 54.974a.368.368 0 1 0-.7.16M48.149 55.134a.37.37 0 0 0-.332-.53.369.369 0 0 0-.369.37M47.448 54.973v1.335" stroke="#897B2B" stroke-width=".225" stroke-miterlimit="22.926" stroke-linecap="round" stroke-linejoin="round"/><path d="M47.447 54.974a.369.369 0 1 0-.7.16M3.432 43.636a.369.369 0 1 0-.7-.16M2.732 43.475v1.335" stroke="#897B2B" stroke-width=".225" stroke-miterlimit="22.926" stroke-linecap="round" stroke-linejoin="round"/><path d="M2.733 43.475a.369.369 0 1 0-.701.161M8.118 43.636a.37.37 0 1 0-.7-.16M7.417 43.475v1.335" stroke="#897B2B" stroke-width=".225" stroke-miterlimit="22.926" stroke-linecap="round" stroke-linejoin="round"/><path d="M7.416 43.475a.369.369 0 1 0-.7.161M12.801 43.636a.369.369 0 1 0-.7-.16M12.1 43.475v1.335" stroke="#897B2B" stroke-width=".225" stroke-miterlimit="22.926" stroke-linecap="round" stroke-linejoin="round"/><path d="M12.102 43.475a.369.369 0 1 0-.7.161M17.487 43.636a.369.369 0 1 0-.7-.16M16.786 43.475v1.335M16.785 43.475a.369.369 0 1 0-.7.161M22.17 43.636a.369.369 0 1 0-.7-.16M21.47 43.475v1.335" stroke="#897B2B" stroke-width=".225" stroke-miterlimit="22.926" stroke-linecap="round" stroke-linejoin="round"/><path d="M21.47 43.475a.369.369 0 1 0-.701.161M26.854 43.636a.369.369 0 1 0-.7-.16M26.153 43.475v1.335" stroke="#897B2B" stroke-width=".225" stroke-miterlimit="22.926" stroke-linecap="round" stroke-linejoin="round"/><path d="M26.154 43.475a.369.369 0 1 0-.7.161M31.54 43.636a.369.369 0 1 0-.701-.16M30.839 43.475v1.335M30.838 43.475a.369.369 0 1 0-.7.161M36.223 43.636a.368.368 0 0 0-.332-.53.369.369 0 0 0-.368.37M35.523 43.475v1.335" stroke="#897B2B" stroke-width=".225" stroke-miterlimit="22.926" stroke-linecap="round" stroke-linejoin="round"/><path d="M35.524 43.475a.369.369 0 1 0-.7.161M40.909 43.636a.369.369 0 1 0-.7-.16M40.208 43.475v1.335M40.207 43.475a.369.369 0 1 0-.7.161M45.592 43.636a.369.369 0 1 0-.7-.16M44.892 43.475v1.335M44.89 43.475a.369.369 0 1 0-.7.161M50.276 43.636a.369.369 0 1 0-.7-.16M49.575 43.475v1.335" stroke="#897B2B" stroke-width=".225" stroke-miterlimit="22.926" stroke-linecap="round" stroke-linejoin="round"/><path d="M49.578 43.475a.369.369 0 1 0-.7.161M3.432 51.301a.369.369 0 1 0-.7-.16M2.732 51.14v1.336" stroke="#897B2B" stroke-width=".225" stroke-miterlimit="22.926" stroke-linecap="round" stroke-linejoin="round"/><path d="M2.733 51.14a.369.369 0 1 0-.701.161M8.118 51.301a.369.369 0 1 0-.7-.16M7.417 51.14v1.336M7.416 51.14a.369.369 0 1 0-.7.161M12.801 51.301a.369.369 0 1 0-.7-.16M12.1 51.14v1.336" stroke="#897B2B" stroke-width=".225" stroke-miterlimit="22.926" stroke-linecap="round" stroke-linejoin="round"/><path d="M12.102 51.14a.369.369 0 1 0-.7.161M17.487 51.301a.37.37 0 0 0-.332-.53.369.369 0 0 0-.369.37M16.786 51.14v1.336M16.785 51.14a.369.369 0 1 0-.7.161M22.17 51.301a.369.369 0 1 0-.7-.16M21.47 51.14v1.335" stroke="#897B2B" stroke-width=".225" stroke-miterlimit="22.926" stroke-linecap="round" stroke-linejoin="round"/><path d="M21.47 51.14a.369.369 0 1 0-.701.161M26.854 51.301a.37.37 0 0 0-.332-.53.369.369 0 0 0-.369.37M26.153 51.14v1.336" stroke="#897B2B" stroke-width=".225" stroke-miterlimit="22.926" stroke-linecap="round" stroke-linejoin="round"/><path d="M26.154 51.14a.369.369 0 1 0-.7.161M31.54 51.301a.369.369 0 1 0-.701-.16M30.839 51.14v1.336M30.838 51.14a.369.369 0 1 0-.7.161M36.223 51.301a.369.369 0 1 0-.7-.16M35.523 51.14v1.336" stroke="#897B2B" stroke-width=".225" stroke-miterlimit="22.926" stroke-linecap="round" stroke-linejoin="round"/><path d="M35.524 51.14a.369.369 0 1 0-.7.161M40.909 51.301a.37.37 0 0 0-.332-.53.369.369 0 0 0-.369.37M40.208 51.14v1.336M40.207 51.14a.369.369 0 1 0-.7.161M45.592 51.301a.369.369 0 1 0-.7-.16M44.892 51.14v1.335M44.89 51.14a.369.369 0 1 0-.7.161M50.276 51.301a.369.369 0 1 0-.7-.16M49.575 51.14v1.336" stroke="#897B2B" stroke-width=".225" stroke-miterlimit="22.926" stroke-linecap="round" stroke-linejoin="round"/><path d="M49.578 51.14a.369.369 0 1 0-.7.161" stroke="#897B2B" stroke-width=".225" stroke-miterlimit="22.926" stroke-linecap="round" stroke-linejoin="round"/><path fill-rule="evenodd" clip-rule="evenodd" d="M11.324 21.4c-.052-.046-.419-.687-.296-.967.122-.28.563-.466.873-.796.31-.33.873-1.386 1.17-1.637.165-.148.483-.281.483-.281s-.247-.828.5-1.154c.847-.39.809.842 1.387.842.27 0 .515-.676.655-.764.14-.088.462-.178.858 0 .839.438.748 1.747.748 1.747s1.054.85 1.716 2.417c.662 1.566.147 3.455.889 4.772.742 1.317 2.63 3.197 6.613 3.197 3.15 0 6.753-2.417 9.31-2.417 1.047 0 1.965.405 1.965.405s2.636-1.135 2.62-4.756c-.134-3.188-2.524-4.043-4.585-4.523-2.06-.48-8.148-.728-10.605-1.622-.6-.2-2.916-1.168-2.916-3.976 0-2.809 1.825-4.242 1.825-4.242s1.144 1.815 4.085 2.183c2.942.369 8.253 1.271 8.953 1.404.699.133 4.66.767 5.848 2.214 1.188 1.447 2.106 3.87 1.684 5.989-.422 2.118-.79 3.607-2.308 5.646-1.518 2.04-2.932 2.417-2.932 2.417s1.52 1.04 2.449 1.996c.928.956 2.53 4.135 2.854 4.85.323.716 2.102 2.853 2.604 4.04.714 1.833.439 3.002.359 3.306-.08.304-.44 1.45-1.232 1.45-.6.01-.765-.187-.765-.187s.023-.205.094-.452c.07-.246.702-.715.702-1.356 0-1.052-.687-2.266-2.355-3.728-1.668-1.462-4.741-2.87-4.741-2.87s.8 1.472.967 1.732c.167.26 2.528 3.553 2.698 5.037.14 1.026.265 2.504-.374 3.088-.442.348-.94.161-1.045.031-.105-.13-.02-.308.03-.437.051-.128.483-.562.515-.904.033-.342-.246-1.466-1.107-2.277-.86-.811-3.055-1.554-3.977-2.09-.922-.536-2.952-1.981-3.478-2.433-.525-.451-1.221-1.333-2.228-1.333-1.527 0-2.1.199-5.023 1.24-.804.288-2.678 1.123-4.835 1.123s-4.117-1.591-4.117-1.591-1.555 1.684-4.258 1.684c-2.903 0-3.946-1.778-5.583-1.778-.96 0-1.693.749-2.34.749-.186.002-.467-.085-.467-.514 0-.23.772-1.367 2.011-1.42 1.24-.052 2.278.409 4.648.234 2.37-.174 3.04-1.497 3.04-1.497s-.822.374-1.902.374c-2.496 0-4.969-1.575-6.285-1.575-.82 0-1.616.784-2.105.749-.319-.027-.464-.113-.508-.22-.044-.107-.07-.273.1-.594.332-.628 1.313-1.55 4.213-1.526 1.691-.011 3.589.611 4.679-.452 1.09-1.063 1.236-2.095 1.34-2.635.107-.54.384-3.006.39-3.182.008-.175.016-.751-.514-1.294s-1.25-.695-1.575-.764c-.326-.07-.838-.068-.967-.125-.129-.058-.37-.319-.343-.39.027-.072.704-.025.717-.062.014-.038-.774-.05-.826-.096Z" fill="#8C161A"/><path d="M13.792 19.517s.176-.509.75-.509c.574 0 .81.388.81.388s-.166.382-.76.382-.8-.261-.8-.261Z" stroke="#897B2B" stroke-width=".15" stroke-miterlimit="22.926"/><path d="M13.792 19.517s.176-.509.75-.509c.574 0 .81.388.81.388s-.166.382-.76.382-.8-.261-.8-.261Z" stroke="#897B2B" stroke-width=".129" stroke-miterlimit="22.926" stroke-linecap="round"/><path fill-rule="evenodd" clip-rule="evenodd" d="M14.23 19.39a.328.328 0 1 1 .655.001.328.328 0 0 1-.655 0Z" fill="#897B2B"/><path d="M11.09 20.616s.482.009.603-.282" stroke="#897B2B" stroke-width=".162" stroke-miterlimit="22.926" stroke-linecap="round"/><path d="M42.476 43.962c-.232.137-.397.644-.397.644M42.763 44.126c-.191.137-.342.562-.342.562M46.665 42.483c-.328.137-.465.63-.465.63M47.093 42.606c-.274.206-.426.644-.426.644" stroke="#897B2B" stroke-width=".15" stroke-miterlimit="22.926" stroke-linecap="round"/><path d="M16.051 17.65s-.161-.772.374-.748c.536.025.598.461.623.573.025.362-.15.623-.15.623s-.012-1.009-.523-1.009c-.15 0-.324.56-.324.56Z" stroke="#897B2B" stroke-width=".157" stroke-miterlimit="22.926" stroke-linecap="round"/><path d="M5.624 35.603c-.266.097-.322.508-.322.508M5.827 35.757c-.266.096-.322.507-.322.507" stroke="#897B2B" stroke-width=".15" stroke-miterlimit="22.926" stroke-linecap="round"/><path d="M18.019 25.474c.089-.214.115-.658.378-.585" stroke="#897B2B" stroke-width=".143" stroke-miterlimit="22.926" stroke-linecap="round"/><path d="M15.784 22.482c.89-.644 1.288-1.75 1.41-2.801M16.179 22.81c.675-.562 1.054-1.441 1.151-2.304M16.626 23.239c.576-.472.922-1.167 1.089-1.874M16.901 23.771c.511-.362.826-.938.929-1.547M17.314 24.356c.378-.303.638-.755.704-1.237M17.614 24.865c.159-.218.318-.437.428-.68M13.56 32.89c-.35-.513-.411-1.177-.315-1.784M13.017 32.676a3.242 3.242 0 0 1-.241-1.547M12.432 32.539c-.181-.366-.206-.799-.172-1.204M11.916 32.607c-.238-.33-.301-.774-.223-1.169M11.309 32.493a1.269 1.269 0 0 1-.195-.952M10.677 32.229c-.12-.193-.193-.427-.137-.653M10.254 32.172c-.146-.121-.27-.298-.28-.493" stroke="#897B2B" stroke-width=".162" stroke-miterlimit="22.926" stroke-linecap="round"/><path d="M13.767 35.101c.29.06.199.613-.115.619" stroke="#897B2B" stroke-width=".143" stroke-miterlimit="22.926" stroke-linecap="round"/><path d="M19.599 33.282c.69-1.574.626-3.372.139-5.161M21.112 32.16c.411-1.184.42-2.5.049-3.694M20.487 32.527c.422-1.241.31-2.985.042-4.255M19.036 33.555c.575-1.344.497-3.318-.095-4.65M21.903 31.902c.394-.938.397-2.012.07-2.974M22.573 31.885c.063-.825.166-1.664.069-2.492M18.396 33.862c.532-1.355.44-2.857.111-4.246M23.032 31.61c.154-.608.337-1.271.078-1.877M23.536 31.335c.13-.498.145-1.024.13-1.547M17.657 34.051c.392-1.071.53-2.274.155-3.369M16.923 34.521c.252-.678.343-1.433.2-2.154M16.282 34.67c.248-.498.287-1.112.275-1.685M15.458 35.254c.207-.47.408-.995.355-1.535M15.16 34.257c.07.432-.131.879-.303 1.238M14.274 35.653c.126-.254.274-.53.28-.811M36.986 36.423c-.102-.382-.206-.764-.375-1.123M37.527 36.732c-.06-.467-.276-.893-.45-1.322M36.24 35.968c-.046-.197-.108-.404-.231-.57M37.975 36.939c-.098-.47-.111-.98-.39-1.387M38.405 37.283c-.033-.57-.093-1.155-.379-1.668M38.861 37.386c.108-.586-.224-1.142-.399-1.69M39.47 37.67c-.082-.652-.323-1.272-.555-1.889M39.957 37.97c-.134-.663-.229-1.315-.499-1.93M40.424 38.246c-.048-.663-.17-1.337-.452-1.944M41.224 39.096c-.108-.706-.184-1.455-.516-2.105" stroke="#897B2B" stroke-width=".162" stroke-miterlimit="22.926" stroke-linecap="round"/><path d="M29.261 14.954c-1.152-.774-2.07-2.156-2.149-3.559M30.205 14.843c-1.112-.543-2.008-1.709-2.114-3.07M28.968 12.014c.341 1.354 1.602 2.064 2.579 2.877M36.187 15.624c-.338-1.498-2.152-1.902-2.819-3.163M37.871 16.483c-.078-1.839-2.266-2.342-2.888-3.884M39.145 16.827c.053-1.705-1.72-2.48-2.398-3.816M39.407 13.756c.785 1.35 2.096 2.713 1.559 4.412M41.654 18.855c.097-.869.268-1.773-.076-2.658-.204-.523-.536-1.006-.723-1.604M42.089 20.597a4.189 4.189 0 0 0 1.052-2.739M42.25 21.342c.53-.624.959-1.377 1.14-2.186M42.325 21.864c.549-.384.84-1.038 1.21-1.599M27.731 14.592c-.875-.86-1.648-2.111-1.616-3.403M33.438 14.97c-.998-.95-2.703-1.364-3.206-2.745M34.882 15.383c-.618-1.553-2.488-1.798-3.3-3.128M41.724 20.162c1.156-1.385.58-3.218.412-4.779M26.458 13.974c-.938-.812-1.354-2.13-1.186-3.335M40.141 17.584a4.326 4.326 0 0 0-1.107-2.847M39.033 14.737l-.165-.179M38.867 14.558c-.426-.38-.794-.901-.893-1.478" stroke="#897B2B" stroke-width=".225" stroke-miterlimit="22.926" stroke-linecap="round"/><path d="M37.837 31.713c-.014-1.386-.296-2.832-1.203-3.936M37.047 31.129c-.037-1.175-.393-2.376-1.145-3.312M38.715 31.662c-.24-1.31-.38-2.705-1.163-3.845M39.402 31.91c.04-1.372-.27-2.777-1.024-3.934M35.758 31.507c-.344-1.168-.641-2.42-1.358-3.455M36.497 31.748c-.189-1.245-.292-2.667-1.318-3.553M35.019 31.473c-.129-1.134-.57-2.24-1.317-3.12M40.193 32.169c-.034-1.279-.136-2.595-.83-3.71M34.143 31.06c-.115-.972-.59-1.836-1.138-2.627M33.369 31.129c-.082-.866-.385-1.69-.928-2.372M32.682 31.232c-.242-.762-.348-1.622-.935-2.228M31.099 29.341c.34.348.51.802.584 1.272M41.533 33.157a8.076 8.076 0 0 0-.635-3.747M30.814 30.224c-.05-.182-.106-.386-.264-.505M41.708 30.145c.49 1.037.528 2.218.53 3.356M42.822 33.81c.177-.892-.102-1.763-.292-2.62M43.312 34.12c.05-.658.123-1.366-.112-1.994M43.888 34.498c-.165-.501-.03-1.048-.086-1.564M44.764 35.443c-.01-.261.05-.518.034-.773M40.77 32.447c.044-1.23-.053-2.572-.675-3.667M44.358 34.773c-.041-.33.016-.665.005-.997" stroke="#897B2B" stroke-width=".162" stroke-miterlimit="22.926" stroke-linecap="round"/><path d="M4.49 31.979c-.266.097-.323.508-.323.508M4.693 32.132c-.266.097-.323.508-.323.508" stroke="#897B2B" stroke-width=".15" stroke-miterlimit="22.926" stroke-linecap="round"/></g><defs><clipPath id="a"><path fill="#fff" transform="translate(.519)" d="M0 0h51.23v64H0z"/></clipPath></defs></svg>