<svg xmlns="http://www.w3.org/2000/svg" width="96" height="96" fill="none"><g clip-path="url(#a)"><path fill="#0C6" fill-rule="evenodd" d="M88.25 31H0v-2h90.25v.046A6.001 6.001 0 0 1 95.5 35v37.25a3 3 0 0 1-3 3h-1.25a3 3 0 0 1-3-3v-.75h-4.752c-.133 7.064-5.902 12.75-12.998 12.75-7.096 0-12.864-5.686-12.998-12.75h-2.504C54.865 78.564 49.096 84.25 42 84.25c-7.096 0-12.864-5.686-12.997-12.75h-7.378a5 5 0 0 1-5-5v-9.25H0v-2h93.5V50.5H0v-2h88.25V31Zm0 38.5V57.25H18.625v9.25a3 3 0 0 0 3 3h7.492c.855-6.352 6.297-11.25 12.883-11.25 6.586 0 12.029 4.898 12.883 11.25h2.734c.855-6.352 6.297-11.25 12.883-11.25 6.586 0 12.029 4.898 12.883 11.25h4.867Zm2-11.5v14.25a1 1 0 0 0 1 1h1.25a1 1 0 0 0 1-1V58h-3.25Zm0-9.5V31.07A4.001 4.001 0 0 1 93.5 35v13.5h-3.25ZM31 71.25c0-6.075 4.925-11 11-11s11 4.925 11 11-4.925 11-11 11-11-4.925-11-11Zm11-3.5a3.5 3.5 0 1 0 0 7 3.5 3.5 0 0 0 0-7Zm-5.5 3.5a5.5 5.5 0 1 1 11 0 5.5 5.5 0 0 1-11 0Zm34-3.5a3.5 3.5 0 1 0 0 7 3.5 3.5 0 0 0 0-7Zm-5.5 3.5a5.5 5.5 0 1 1 11 0 5.5 5.5 0 0 1-11 0Zm5.5-11c-6.075 0-11 4.925-11 11s4.925 11 11 11 11-4.925 11-11-4.925-11-11-11Z" clip-rule="evenodd"/></g><defs><clipPath id="a"><path fill="#fff" d="M0 0h96v96H0z"/></clipPath></defs></svg>